<?xml version="1.0" encoding="utf-8"?>
<!-- Generator: Adobe Illustrator 27.9.0, SVG Export Plug-In . SVG Version: 6.00 Build 0)  -->
<svg version="1.1" id="Layer_1" xmlns="http://www.w3.org/2000/svg" xmlns:xlink="http://www.w3.org/1999/xlink" x="0px" y="0px"
	 viewBox="0 0 1100.5 250.04" style="enable-background:new 0 0 1100.5 250.04;" xml:space="preserve">
<style type="text/css">
	.st0{fill:#FFFFFF;}
	.st1{fill:url(#SVGID_1_);}
	.st2{fill:url(#SVGID_00000165204229993708354980000013071700344812462513_);}
	.st3{fill:url(#SVGID_00000182488372474567710770000002374435850102676636_);}
	.st4{fill:url(#SVGID_00000013161793247897621340000000947266094542245521_);}
	.st5{fill:url(#SVGID_00000026846961496436999960000009877342912347037875_);}
	.st6{fill:url(#SVGID_00000083790276918349048880000002305497672211485615_);}
	.st7{fill:url(#SVGID_00000011026358778848844400000009497099808412351365_);}
	.st8{fill:url(#SVGID_00000152966641617160967180000014578478389880503969_);}
	.st9{fill:url(#SVGID_00000158003264783728315870000001172562741904742800_);}
	.st10{fill:url(#SVGID_00000014614523014157215390000011950349778084532152_);}
	.st11{fill:url(#SVGID_00000052073834659829567790000006648970055005829011_);}
	.st12{fill:url(#SVGID_00000165198031017387256730000014812083941319221950_);}
	.st13{fill:url(#SVGID_00000088836999649087799870000013792222192743704720_);}
	.st14{fill:url(#SVGID_00000026843332944472728320000017851434611553799303_);}
	.st15{fill:url(#SVGID_00000004517183212329199450000012852537398893485704_);}
	.st16{fill:url(#SVGID_00000031916865575361247580000007900232612705795225_);}
	
		.st17{fill:none;stroke:url(#SVGID_00000171690825099463660900000013542069860071563439_);stroke-width:9;stroke-linecap:round;stroke-miterlimit:10;}
	.st18{fill:#282828;}
	.st19{fill:#353535;}
	.st20{fill:#434343;}
	.st21{fill:#505050;}
	.st22{fill:#5E5E5E;}
	.st23{fill:#6B6B6B;}
	.st24{fill:#787878;}
	.st25{fill:#868686;}
	.st26{fill:#939393;}
	.st27{fill:#A1A1A1;}
	.st28{fill:#AEAEAE;}
	.st29{fill:#BCBCBC;}
	.st30{fill:#C9C9C9;}
	.st31{fill:#D7D7D7;}
	.st32{fill:#E4E4E4;}
	.st33{fill:#F2F2F2;}
	.st34{fill:none;}
	.st35{fill:url(#SVGID_00000138552530548950520740000007140424636902843055_);}
	.st36{fill:url(#SVGID_00000021798867677451292810000005868642439849666204_);}
	.st37{fill:url(#SVGID_00000168079978870800461360000007691674546320466321_);}
	.st38{fill:url(#SVGID_00000048469350409947723590000007812248538249092029_);}
	.st39{fill:url(#SVGID_00000014617713880986263360000007047722392050004103_);}
	.st40{fill:url(#SVGID_00000043418266079842715110000010073379941173574841_);}
	.st41{fill:url(#SVGID_00000034089522341939088230000017390478843573650587_);}
	.st42{fill:url(#SVGID_00000096036160526117388940000015034678709400816261_);}
	.st43{fill:url(#SVGID_00000054969331277741831900000015944030072576608441_);}
	.st44{fill:url(#SVGID_00000118359145028868559730000001933219188718556825_);}
	.st45{fill:url(#SVGID_00000092453845660673910010000016085747702442150535_);}
	.st46{fill:url(#SVGID_00000050637223293107417810000016192972354781058201_);}
	.st47{fill:url(#SVGID_00000009548211662667587990000011176181857941516470_);}
	.st48{fill:url(#SVGID_00000030468342159506625830000003236486235295400380_);}
	.st49{fill:url(#SVGID_00000007404146889758032430000004798786591924777405_);}
	.st50{fill:url(#SVGID_00000000214318532799659970000013642342490576263323_);}
	.st51{fill:url(#SVGID_00000108310974798281787200000016219748571716395710_);}
</style>
<g>
	<g>
		<path class="st0" d="M994.84,119.16h-19.32l-5.5,28.29h-13.68l7.89-39.22h32.78L994.84,119.16z"/>
		<path class="st0" d="M1030.48,109.72c2.53,1.42,4.57,3.49,6.12,6.19c1.54,2.7,2.32,5.86,2.32,9.48c0,4.29-0.95,8.17-2.86,11.61
			c-1.91,3.45-4.49,6.16-7.74,8.14c-3.26,1.98-6.81,2.97-10.67,2.97c-5.69,0-9.7-1.78-12.01-5.36l-3.76,18.74h-13.75l10.64-53.26
			h13.03l-0.8,3.69c3.14-2.89,6.92-4.34,11.36-4.34C1025.24,107.58,1027.95,108.29,1030.48,109.72z M1022.42,133.99
			c1.74-2.03,2.61-4.66,2.61-7.89c0-2.32-0.66-4.15-1.99-5.5c-1.33-1.35-3.15-2.03-5.46-2.03c-2.75,0-4.99,1.01-6.73,3.04
			c-1.74,2.03-2.61,4.68-2.61,7.96c0,2.32,0.66,4.14,1.99,5.46c1.33,1.33,3.15,1.99,5.46,1.99
			C1018.43,137.03,1020.68,136.02,1022.42,133.99z"/>
		<path class="st0" d="M1045.86,108.23h13.68l-2.97,14.54h14.11l2.97-14.54h13.68l-7.89,39.22h-13.68l2.75-13.75h-14.11l-2.75,13.75
			h-13.68L1045.86,108.23z"/>
		<path class="st0" d="M1086.13,145.97c-1.47-1.42-2.21-3.22-2.21-5.39c0-2.6,0.86-4.71,2.57-6.33c1.71-1.62,3.8-2.42,6.26-2.42
			c2.32,0,4.18,0.69,5.61,2.06s2.13,3.2,2.13,5.46c0,2.56-0.86,4.66-2.57,6.29c-1.71,1.64-3.78,2.46-6.19,2.46
			C1089.47,148.11,1087.6,147.39,1086.13,145.97z"/>
	</g>
	<g>
		<path class="st0" d="M309.97,94.5l-6.18,30.92h-8.61l4.77-23.98h-8.83l-1.55,6.76c-1.06,4.56-2.16,8.11-3.31,10.65
			s-2.51,4.35-4.09,5.46c-1.58,1.1-3.57,1.66-5.99,1.66c-1.35,0-2.65-0.18-3.89-0.53l1.9-7.16c0.35,0.09,0.74,0.13,1.15,0.13
			c1.03,0,1.93-0.37,2.69-1.1c0.77-0.74,1.47-1.94,2.12-3.6c0.65-1.66,1.31-3.95,1.99-6.87l2.92-12.32H309.97z"/>
		<path class="st0" d="M314.43,94.5h8.61l-3.75,18.15l16.39-18.15h8.35l-6.18,30.92h-8.61l3.75-18.11l-16.39,18.11h-8.35
			L314.43,94.5z"/>
		<path class="st0" d="M390.36,94.5l-6.18,30.92h-41.92l6.18-30.92h8.61l-4.73,23.99h8.08l4.68-23.99h8.61l-4.68,23.99h8.04
			l4.68-23.99H390.36z"/>
		<path class="st0" d="M402.02,101.26l-1.02,5.21h13.74l-1.28,6.54h-13.78l-1.1,5.65h16.21l-1.41,6.76h-24.78l6.18-30.92h24.21
			l-1.37,6.76H402.02z"/>
		<path class="st0" d="M345.53,159.02c0.75,1.13,1.13,2.42,1.13,3.87c0,2.06-0.74,3.87-2.21,5.43s-3.44,2.77-5.9,3.62
			c-2.46,0.85-5.12,1.28-7.97,1.28c-2.18,0-4.33-0.26-6.45-0.77c-2.12-0.52-4.11-1.3-5.96-2.36l3.84-6.1
			c1.27,0.71,2.66,1.25,4.17,1.63c1.52,0.38,3.01,0.57,4.48,0.57c2.09,0,3.84-0.35,5.23-1.06s2.1-1.69,2.1-2.96
			c0-1.56-1.24-2.34-3.71-2.34h-8l1.28-6.4h7.33c1.24,0,2.24-0.27,3-0.82s1.15-1.24,1.15-2.1c0-0.91-0.44-1.61-1.33-2.1
			c-0.88-0.49-2.08-0.73-3.58-0.73c-1.27,0-2.64,0.18-4.13,0.55c-1.49,0.37-2.95,0.89-4.4,1.57l-1.28-6.63
			c3.71-1.62,7.42-2.43,11.13-2.43c2.36,0,4.5,0.33,6.45,0.99c1.94,0.66,3.47,1.61,4.59,2.83c1.12,1.22,1.68,2.66,1.68,4.31
			c0,1.62-0.52,3.11-1.57,4.46c-1.04,1.36-2.45,2.39-4.22,3.09C343.74,157.02,344.77,157.88,345.53,159.02z"/>
		<path class="st0" d="M370.28,166.41h-13.16l-3.58,6.01h-9.23l19.83-30.92h8.61l7.46,30.92h-8.7L370.28,166.41z M368.96,159.97
			l-2.08-10.03l-5.92,10.03H368.96z"/>
	</g>
	<g>
		<g>
			<path class="st18" d="M550.55,78.5l-31.33,156.64h-44.31l24.39-122.4h-29.09l6.94-34.24H550.55z"/>
			<path class="st18" d="M637.83,191.5c5.22-7.01,9.18-15.59,11.86-25.73c2.69-10.14,4.03-19.77,4.03-28.87
				c0-8.65-1.61-15.03-4.81-19.13c-3.21-4.1-7.72-6.15-13.54-6.15c-7.16,0-13.35,3.51-18.57,10.52
				c-5.22,7.01-9.18,15.59-11.86,25.73c-2.69,10.15-4.03,19.77-4.03,28.87c0,16.86,6.12,25.28,18.35,25.28
				C626.41,202.02,632.6,198.52,637.83,191.5z M572.15,222.27c-10.52-10.66-15.78-25.47-15.78-44.42c0-19.09,3.54-36.44,10.63-52.03
				c7.08-15.59,16.97-27.89,29.65-36.92c12.68-9.02,27-13.54,42.97-13.54c18.05,0,32.33,5.34,42.85,16
				c10.52,10.67,15.78,25.48,15.78,44.42c0,19.1-3.55,36.44-10.63,52.03c-7.09,15.59-16.97,27.9-29.65,36.92
				c-12.68,9.03-27,13.54-42.97,13.54C596.95,238.27,582.67,232.94,572.15,222.27z"/>
			<path class="st18" d="M791.11,191.5c5.22-7.01,9.18-15.59,11.86-25.73C805.66,155.62,807,146,807,136.9
				c0-8.65-1.61-15.03-4.81-19.13c-3.21-4.1-7.72-6.15-13.54-6.15c-7.16,0-13.35,3.51-18.57,10.52
				c-5.22,7.01-9.18,15.59-11.86,25.73c-2.69,10.15-4.03,19.77-4.03,28.87c0,16.86,6.12,25.28,18.35,25.28
				C779.7,202.02,785.89,198.52,791.11,191.5z M725.43,222.27c-10.52-10.66-15.78-25.47-15.78-44.42c0-19.09,3.54-36.44,10.63-52.03
				c7.08-15.59,16.97-27.89,29.65-36.92c12.68-9.02,27-13.54,42.97-13.54c18.05,0,32.33,5.34,42.85,16
				c10.52,10.67,15.78,25.48,15.78,44.42c0,19.1-3.55,36.44-10.63,52.03c-7.09,15.59-16.97,27.9-29.65,36.92
				c-12.68,9.03-27,13.54-42.97,13.54C750.23,238.27,735.95,232.94,725.43,222.27z"/>
		</g>
		<g>
			<polygon class="st19" points="550.21,75.26 518.65,233.1 474,233.1 498.58,109.76 469.27,109.76 476.26,75.26 			"/>
			<path class="st19" d="M638.15,189.13c5.26-7.06,9.25-15.71,11.95-25.93c2.71-10.22,4.06-19.92,4.06-29.09
				c0-8.72-1.62-15.14-4.85-19.28c-3.23-4.13-7.78-6.2-13.64-6.2c-7.22,0-13.45,3.53-18.71,10.6c-5.26,7.07-9.25,15.71-11.95,25.93
				c-2.71,10.22-4.06,19.92-4.06,29.09c0,16.99,6.16,25.48,18.49,25.48C626.65,199.73,632.89,196.2,638.15,189.13z M571.97,220.14
				c-10.6-10.75-15.9-25.67-15.9-44.76c0-19.24,3.57-36.71,10.71-52.42c7.14-15.71,17.1-28.11,29.88-37.2
				c12.78-9.09,27.21-13.64,43.29-13.64c18.19,0,32.58,5.38,43.18,16.12c10.6,10.75,15.9,25.67,15.9,44.76
				c0,19.24-3.57,36.72-10.71,52.42c-7.14,15.71-17.1,28.11-29.88,37.21c-12.78,9.1-27.21,13.64-43.29,13.64
				C596.96,236.26,582.57,230.89,571.97,220.14z"/>
			<path class="st19" d="M792.61,189.13c5.26-7.06,9.25-15.71,11.95-25.93c2.71-10.22,4.06-19.92,4.06-29.09
				c0-8.72-1.62-15.14-4.85-19.28c-3.23-4.13-7.78-6.2-13.64-6.2c-7.22,0-13.45,3.53-18.71,10.6c-5.26,7.07-9.25,15.71-11.95,25.93
				c-2.71,10.22-4.06,19.92-4.06,29.09c0,16.99,6.16,25.48,18.49,25.48C781.11,199.73,787.34,196.2,792.61,189.13z M726.43,220.14
				c-10.6-10.75-15.9-25.67-15.9-44.76c0-19.24,3.57-36.71,10.71-52.42c7.14-15.71,17.1-28.11,29.88-37.2
				c12.78-9.09,27.21-13.64,43.29-13.64c18.19,0,32.58,5.38,43.18,16.12c10.6,10.75,15.9,25.67,15.9,44.76
				c0,19.24-3.57,36.72-10.71,52.42c-7.14,15.71-17.1,28.11-29.88,37.21c-12.78,9.1-27.21,13.64-43.29,13.64
				C751.42,236.26,737.03,230.89,726.43,220.14z"/>
		</g>
		<g>
			<polygon class="st20" points="549.87,72.03 518.07,231.07 473.08,231.07 497.85,106.79 468.31,106.79 475.36,72.03 			"/>
			<path class="st20" d="M638.48,186.76c5.3-7.12,9.32-15.83,12.04-26.13c2.73-10.3,4.09-20.07,4.09-29.31
				c0-8.78-1.63-15.26-4.89-19.42c-3.26-4.16-7.84-6.25-13.74-6.25c-7.27,0-13.56,3.56-18.86,10.68
				c-5.3,7.12-9.32,15.83-12.04,26.13c-2.73,10.3-4.09,20.07-4.09,29.31c0,17.12,6.21,25.67,18.63,25.67
				C626.89,197.44,633.17,193.88,638.48,186.76z M571.8,218c-10.68-10.83-16.02-25.86-16.02-45.1c0-19.38,3.6-36.99,10.79-52.82
				c7.19-15.83,17.23-28.32,30.1-37.49c12.87-9.16,27.41-13.74,43.62-13.74c18.32,0,32.83,5.42,43.51,16.24
				c10.68,10.83,16.02,25.86,16.02,45.1c0,19.39-3.6,37-10.79,52.82c-7.2,15.83-17.23,28.32-30.1,37.49
				c-12.88,9.16-27.42,13.74-43.62,13.74C596.98,234.25,582.48,228.83,571.8,218z"/>
			<path class="st20" d="M794.1,186.76c5.3-7.12,9.32-15.83,12.04-26.13c2.73-10.3,4.09-20.07,4.09-29.31
				c0-8.78-1.63-15.26-4.89-19.42c-3.26-4.16-7.84-6.25-13.74-6.25c-7.27,0-13.56,3.56-18.86,10.68
				c-5.3,7.12-9.32,15.83-12.04,26.13c-2.73,10.3-4.09,20.07-4.09,29.31c0,17.12,6.21,25.67,18.63,25.67
				C782.52,197.44,788.8,193.88,794.1,186.76z M727.42,218c-10.68-10.83-16.02-25.86-16.02-45.1c0-19.38,3.6-36.99,10.79-52.82
				c7.19-15.83,17.23-28.32,30.1-37.49c12.87-9.16,27.41-13.74,43.62-13.74c18.32,0,32.83,5.42,43.51,16.24
				c10.68,10.83,16.02,25.86,16.02,45.1c0,19.39-3.6,37-10.79,52.82c-7.2,15.83-17.23,28.32-30.1,37.49
				c-12.88,9.16-27.42,13.74-43.62,13.74C752.6,234.25,738.1,228.83,727.42,218z"/>
		</g>
		<g>
			<polygon class="st21" points="549.53,68.8 517.49,229.03 472.17,229.03 497.12,103.82 467.36,103.82 474.46,68.8 			"/>
			<path class="st21" d="M638.8,184.39c5.34-7.17,9.39-15.94,12.13-26.32c2.75-10.38,4.12-20.22,4.12-29.53
				c0-8.85-1.64-15.37-4.92-19.57c-3.28-4.19-7.9-6.29-13.85-6.29c-7.32,0-13.66,3.59-19,10.76c-5.34,7.17-9.39,15.95-12.13,26.32
				c-2.75,10.38-4.12,20.22-4.12,29.53c0,17.24,6.26,25.86,18.77,25.86C627.13,195.15,633.46,191.57,638.8,184.39z M571.62,215.87
				c-10.76-10.91-16.14-26.05-16.14-45.44c0-19.53,3.62-37.27,10.87-53.22c7.25-15.94,17.36-28.53,30.33-37.77
				c12.97-9.23,27.62-13.85,43.95-13.85c18.46,0,33.08,5.46,43.83,16.37c10.76,10.91,16.14,26.06,16.14,45.44
				c0,19.54-3.63,37.27-10.87,53.22c-7.25,15.95-17.36,28.54-30.33,37.77c-12.97,9.23-27.62,13.85-43.95,13.85
				C596.99,232.23,582.38,226.78,571.62,215.87z"/>
			<path class="st21" d="M795.6,184.39c5.34-7.17,9.39-15.94,12.13-26.32c2.75-10.38,4.12-20.22,4.12-29.53
				c0-8.85-1.64-15.37-4.92-19.57c-3.28-4.19-7.9-6.29-13.85-6.29c-7.32,0-13.66,3.59-19,10.76c-5.34,7.17-9.39,15.95-12.13,26.32
				c-2.75,10.38-4.12,20.22-4.12,29.53c0,17.24,6.26,25.86,18.77,25.86C783.93,195.15,790.26,191.57,795.6,184.39z M728.42,215.87
				c-10.76-10.91-16.14-26.05-16.14-45.44c0-19.53,3.62-37.27,10.87-53.22c7.25-15.94,17.36-28.53,30.33-37.77
				c12.97-9.23,27.62-13.85,43.95-13.85c18.46,0,33.08,5.46,43.83,16.37c10.76,10.91,16.14,26.06,16.14,45.44
				c0,19.54-3.63,37.27-10.87,53.22c-7.25,15.95-17.36,28.54-30.33,37.77c-12.97,9.23-27.62,13.85-43.95,13.85
				C753.79,232.23,739.18,226.78,728.42,215.87z"/>
		</g>
		<g>
			<polygon class="st22" points="549.19,65.57 516.91,226.99 471.25,226.99 496.39,100.85 466.41,100.85 473.56,65.57 			"/>
			<path class="st22" d="M639.13,182.03c5.38-7.23,9.46-16.06,12.22-26.52c2.77-10.45,4.15-20.37,4.15-29.75
				c0-8.92-1.65-15.49-4.96-19.72c-3.31-4.23-7.96-6.34-13.95-6.34c-7.38,0-13.76,3.61-19.14,10.84
				c-5.38,7.23-9.46,16.07-12.22,26.52c-2.77,10.46-4.15,20.37-4.15,29.75c0,17.37,6.3,26.06,18.91,26.06
				C627.37,192.86,633.75,189.25,639.13,182.03z M571.45,213.73c-10.84-10.99-16.26-26.25-16.26-45.78
				c0-19.68,3.65-37.55,10.95-53.62c7.3-16.06,17.49-28.75,30.56-38.05c13.07-9.3,27.82-13.95,44.28-13.95
				c18.6,0,33.32,5.5,44.16,16.49c10.84,10.99,16.26,26.25,16.26,45.78c0,19.68-3.65,37.55-10.95,53.62
				c-7.3,16.07-17.49,28.75-30.56,38.05c-13.07,9.3-27.83,13.95-44.28,13.95C597.01,230.22,582.29,224.73,571.45,213.73z"/>
			<path class="st22" d="M797.1,182.03c5.38-7.23,9.46-16.06,12.22-26.52c2.77-10.45,4.15-20.37,4.15-29.75
				c0-8.92-1.65-15.49-4.96-19.72c-3.31-4.23-7.96-6.34-13.95-6.34c-7.38,0-13.76,3.61-19.14,10.84
				c-5.38,7.23-9.46,16.07-12.22,26.52c-2.77,10.46-4.15,20.37-4.15,29.75c0,17.37,6.3,26.06,18.91,26.06
				C785.34,192.86,791.71,189.25,797.1,182.03z M729.41,213.73c-10.84-10.99-16.26-26.25-16.26-45.78
				c0-19.68,3.65-37.55,10.95-53.62c7.3-16.06,17.49-28.75,30.56-38.05c13.07-9.3,27.82-13.95,44.28-13.95
				c18.6,0,33.32,5.5,44.16,16.49c10.84,10.99,16.26,26.25,16.26,45.78c0,19.68-3.65,37.55-10.95,53.62
				c-7.3,16.07-17.49,28.75-30.56,38.05c-13.07,9.3-27.83,13.95-44.28,13.95C754.97,230.22,740.25,224.73,729.41,213.73z"/>
		</g>
		<g>
			<polygon class="st23" points="548.85,62.34 516.33,224.96 470.33,224.96 495.65,97.88 465.45,97.88 472.65,62.34 			"/>
			<path class="st23" d="M639.46,179.66c5.42-7.28,9.53-16.18,12.31-26.72c2.79-10.53,4.18-20.52,4.18-29.97
				c0-8.98-1.67-15.6-5-19.86c-3.33-4.26-8.01-6.39-14.06-6.39c-7.43,0-13.86,3.64-19.28,10.92c-5.42,7.28-9.53,16.18-12.31,26.71
				c-2.79,10.53-4.18,20.52-4.18,29.97c0,17.5,6.35,26.25,19.05,26.25C627.61,190.57,634.03,186.94,639.46,179.66z M571.27,211.6
				c-10.92-11.07-16.38-26.44-16.38-46.12c0-19.82,3.68-37.83,11.03-54.01c7.35-16.18,17.62-28.96,30.78-38.33
				c13.16-9.37,28.03-14.06,44.61-14.06c18.74,0,33.57,5.54,44.49,16.61c10.92,11.08,16.38,26.45,16.38,46.12
				c0,19.83-3.68,37.83-11.03,54.01c-7.36,16.19-17.62,28.96-30.78,38.33c-13.17,9.37-28.03,14.06-44.61,14.06
				C597.02,228.21,582.19,222.67,571.27,211.6z"/>
			<path class="st23" d="M798.59,179.66c5.42-7.28,9.53-16.18,12.31-26.72c2.79-10.53,4.18-20.52,4.18-29.97
				c0-8.98-1.67-15.6-5-19.86c-3.33-4.26-8.01-6.39-14.06-6.39c-7.43,0-13.86,3.64-19.28,10.92c-5.42,7.28-9.53,16.18-12.31,26.71
				c-2.79,10.53-4.18,20.52-4.18,29.97c0,17.5,6.35,26.25,19.05,26.25C786.74,190.57,793.17,186.94,798.59,179.66z M730.41,211.6
				c-10.92-11.07-16.38-26.44-16.38-46.12c0-19.82,3.68-37.83,11.03-54.01c7.35-16.18,17.62-28.96,30.78-38.33
				c13.16-9.37,28.03-14.06,44.61-14.06c18.74,0,33.57,5.54,44.49,16.61c10.92,11.08,16.38,26.45,16.38,46.12
				c0,19.83-3.68,37.83-11.03,54.01c-7.36,16.19-17.62,28.96-30.78,38.33c-13.17,9.37-28.03,14.06-44.61,14.06
				C756.16,228.21,741.33,222.67,730.41,211.6z"/>
		</g>
		<g>
			<polygon class="st24" points="548.51,59.1 515.75,222.92 469.41,222.92 494.92,94.91 464.5,94.91 471.75,59.1 			"/>
			<path class="st24" d="M639.78,177.29c5.46-7.33,9.6-16.3,12.4-26.91c2.81-10.61,4.21-20.67,4.21-30.19
				c0-9.05-1.68-15.72-5.03-20.01c-3.36-4.29-8.07-6.44-14.16-6.44c-7.49,0-13.96,3.67-19.42,11c-5.46,7.33-9.6,16.3-12.4,26.91
				c-2.81,10.61-4.21,20.67-4.21,30.19c0,17.63,6.4,26.44,19.19,26.44C627.85,188.28,634.32,184.62,639.78,177.29z M571.1,209.46
				c-11-11.15-16.5-26.64-16.5-46.45c0-19.97,3.7-38.1,11.12-54.41c7.41-16.3,17.75-29.17,31.01-38.61
				c13.26-9.44,28.24-14.16,44.93-14.16c18.88,0,33.82,5.58,44.81,16.73c11,11.16,16.5,26.64,16.5,46.45
				c0,19.97-3.71,38.11-11.12,54.41c-7.41,16.31-17.75,29.18-31.01,38.62c-13.26,9.44-28.24,14.16-44.93,14.16
				C597.03,226.2,582.1,220.62,571.1,209.46z"/>
			<path class="st24" d="M800.09,177.29c5.46-7.33,9.6-16.3,12.4-26.91c2.81-10.61,4.21-20.67,4.21-30.19
				c0-9.05-1.68-15.72-5.03-20.01c-3.36-4.29-8.07-6.44-14.16-6.44c-7.49,0-13.96,3.67-19.42,11c-5.46,7.33-9.6,16.3-12.4,26.91
				c-2.81,10.61-4.21,20.67-4.21,30.19c0,17.63,6.4,26.44,19.19,26.44C788.15,188.28,794.63,184.62,800.09,177.29z M731.4,209.46
				c-11-11.15-16.5-26.64-16.5-46.45c0-19.97,3.7-38.1,11.12-54.41c7.41-16.3,17.75-29.17,31.01-38.61
				c13.26-9.44,28.24-14.16,44.93-14.16c18.88,0,33.82,5.58,44.81,16.73c11,11.16,16.5,26.64,16.5,46.45
				c0,19.97-3.71,38.11-11.12,54.41c-7.41,16.31-17.75,29.18-31.01,38.62c-13.26,9.44-28.24,14.16-44.93,14.16
				C757.34,226.2,742.4,220.62,731.4,209.46z"/>
		</g>
		<g>
			<polygon class="st25" points="548.17,55.87 515.17,220.88 468.5,220.88 494.19,91.94 463.55,91.94 470.85,55.87 			"/>
			<path class="st25" d="M640.11,174.92c5.5-7.39,9.67-16.42,12.49-27.11c2.83-10.69,4.24-20.82,4.24-30.41
				c0-9.11-1.69-15.83-5.07-20.16c-3.38-4.32-8.13-6.48-14.26-6.48c-7.54,0-14.07,3.69-19.56,11.08
				c-5.5,7.39-9.67,16.42-12.49,27.11c-2.83,10.69-4.24,20.83-4.24,30.41c0,17.76,6.44,26.64,19.33,26.64
				C628.09,186,634.61,182.31,640.11,174.92z M570.92,207.33c-11.08-11.23-16.62-26.83-16.62-46.79c0-20.11,3.73-38.38,11.2-54.81
				c7.46-16.42,17.88-29.38,31.23-38.89c13.36-9.51,28.44-14.26,45.26-14.26c19.01,0,34.06,5.62,45.14,16.85
				c11.08,11.24,16.62,26.84,16.62,46.79c0,20.12-3.73,38.39-11.2,54.81c-7.47,16.42-17.88,29.39-31.23,38.9
				c-13.36,9.51-28.45,14.26-45.26,14.26C597.05,224.19,582,218.57,570.92,207.33z"/>
			<path class="st25" d="M801.59,174.92c5.5-7.39,9.67-16.42,12.49-27.11c2.83-10.69,4.24-20.82,4.24-30.41
				c0-9.11-1.69-15.83-5.07-20.16c-3.38-4.32-8.13-6.48-14.26-6.48c-7.54,0-14.07,3.69-19.56,11.08
				c-5.5,7.39-9.67,16.42-12.49,27.11c-2.83,10.69-4.24,20.83-4.24,30.41c0,17.76,6.44,26.64,19.33,26.64
				C789.56,186,796.08,182.31,801.59,174.92z M732.4,207.33c-11.08-11.23-16.62-26.83-16.62-46.79c0-20.11,3.73-38.38,11.2-54.81
				c7.46-16.42,17.88-29.38,31.23-38.89c13.36-9.51,28.44-14.26,45.26-14.26c19.01,0,34.06,5.62,45.14,16.85
				c11.08,11.24,16.62,26.84,16.62,46.79c0,20.12-3.73,38.39-11.2,54.81c-7.47,16.42-17.88,29.39-31.23,38.9
				c-13.36,9.51-28.45,14.26-45.26,14.26C758.52,224.19,743.48,218.57,732.4,207.33z"/>
		</g>
		<g>
			<polygon class="st26" points="547.83,52.64 514.59,218.85 467.58,218.85 493.46,88.97 462.59,88.97 469.95,52.64 			"/>
			<path class="st26" d="M640.44,172.55c5.54-7.44,9.74-16.54,12.58-27.31c2.85-10.76,4.27-20.97,4.27-30.63
				c0-9.18-1.7-15.95-5.11-20.3c-3.41-4.35-8.19-6.53-14.37-6.53c-7.6,0-14.17,3.72-19.71,11.16c-5.54,7.44-9.74,16.54-12.58,27.3
				c-2.85,10.77-4.27,20.98-4.27,30.63c0,17.89,6.49,26.83,19.47,26.83C628.33,183.71,634.89,179.99,640.44,172.55z M570.75,205.2
				c-11.16-11.32-16.74-27.03-16.74-47.13c0-20.26,3.76-38.66,11.28-55.2c7.52-16.54,18.01-29.6,31.46-39.18
				c13.45-9.58,28.65-14.37,45.59-14.37c19.15,0,34.31,5.66,45.47,16.98c11.16,11.32,16.74,27.03,16.74,47.13
				c0,20.26-3.76,38.66-11.28,55.2c-7.52,16.54-18.01,29.6-31.46,39.18c-13.46,9.58-28.65,14.37-45.59,14.37
				C597.06,222.17,581.91,216.52,570.75,205.2z"/>
			<path class="st26" d="M803.08,172.55c5.54-7.44,9.74-16.54,12.58-27.31c2.85-10.76,4.27-20.97,4.27-30.63
				c0-9.18-1.7-15.95-5.11-20.3c-3.41-4.35-8.19-6.53-14.37-6.53c-7.6,0-14.17,3.72-19.71,11.16c-5.54,7.44-9.74,16.54-12.58,27.3
				c-2.85,10.77-4.27,20.98-4.27,30.63c0,17.89,6.49,26.83,19.47,26.83C790.97,183.71,797.54,179.99,803.08,172.55z M733.39,205.2
				c-11.16-11.32-16.74-27.03-16.74-47.13c0-20.26,3.76-38.66,11.28-55.2c7.52-16.54,18.01-29.6,31.46-39.18
				c13.45-9.58,28.65-14.37,45.59-14.37c19.15,0,34.31,5.66,45.47,16.98c11.16,11.32,16.74,27.03,16.74,47.13
				c0,20.26-3.76,38.66-11.28,55.2c-7.52,16.54-18.01,29.6-31.46,39.18c-13.46,9.58-28.65,14.37-45.59,14.37
				C759.71,222.17,744.55,216.52,733.39,205.2z"/>
		</g>
		<g>
			<polygon class="st27" points="547.49,49.41 514.01,216.81 466.66,216.81 492.73,86 461.64,86 469.05,49.41 			"/>
			<path class="st27" d="M640.76,170.18c5.58-7.49,9.81-16.66,12.67-27.5c2.87-10.84,4.31-21.12,4.31-30.85
				c0-9.25-1.72-16.06-5.14-20.45c-3.43-4.38-8.25-6.58-14.47-6.58c-7.65,0-14.27,3.75-19.85,11.24c-5.58,7.5-9.81,16.66-12.67,27.5
				c-2.87,10.84-4.31,21.13-4.31,30.85c0,18.02,6.54,27.02,19.61,27.02C628.57,181.42,635.18,177.67,640.76,170.18z M570.57,203.06
				c-11.24-11.4-16.86-27.22-16.86-47.47c0-20.4,3.78-38.94,11.36-55.6c7.57-16.66,18.13-29.81,31.69-39.46
				c13.55-9.64,28.85-14.47,45.92-14.47c19.29,0,34.56,5.7,45.8,17.1c11.24,11.4,16.86,27.23,16.86,47.47
				c0,20.41-3.79,38.94-11.36,55.6c-7.57,16.66-18.14,29.81-31.69,39.46c-13.55,9.65-28.86,14.47-45.92,14.47
				C597.08,220.16,581.81,214.46,570.57,203.06z"/>
			<path class="st27" d="M804.58,170.18c5.58-7.49,9.81-16.66,12.67-27.5c2.87-10.84,4.31-21.12,4.31-30.85
				c0-9.25-1.72-16.06-5.14-20.45c-3.43-4.38-8.25-6.58-14.47-6.58c-7.65,0-14.27,3.75-19.85,11.24c-5.58,7.5-9.81,16.66-12.67,27.5
				c-2.87,10.84-4.31,21.13-4.31,30.85c0,18.02,6.54,27.02,19.61,27.02C792.38,181.42,799,177.67,804.58,170.18z M734.39,203.06
				c-11.24-11.4-16.86-27.22-16.86-47.47c0-20.4,3.78-38.94,11.36-55.6c7.57-16.66,18.13-29.81,31.69-39.46
				c13.55-9.64,28.85-14.47,45.92-14.47c19.29,0,34.56,5.7,45.8,17.1c11.24,11.4,16.86,27.23,16.86,47.47
				c0,20.41-3.79,38.94-11.36,55.6c-7.57,16.66-18.14,29.81-31.69,39.46c-13.55,9.65-28.86,14.47-45.92,14.47
				C760.89,220.16,745.63,214.46,734.39,203.06z"/>
		</g>
		<g>
			<polygon class="st28" points="547.15,46.18 513.43,214.78 465.74,214.78 492,83.03 460.69,83.03 468.15,46.18 			"/>
			<path class="st28" d="M641.09,167.81c5.62-7.55,9.88-16.78,12.77-27.7c2.89-10.92,4.34-21.27,4.34-31.07
				c0-9.31-1.73-16.18-5.18-20.59c-3.45-4.41-8.31-6.62-14.57-6.62c-7.71,0-14.37,3.77-19.99,11.32
				c-5.62,7.55-9.88,16.78-12.77,27.7c-2.89,10.92-4.34,21.28-4.34,31.07c0,18.15,6.58,27.22,19.75,27.22
				C628.8,179.13,635.47,175.36,641.09,167.81z M570.4,200.93c-11.32-11.48-16.98-27.42-16.98-47.81c0-20.55,3.81-39.22,11.44-56
				c7.63-16.78,18.26-30.02,31.91-39.74c13.65-9.71,29.06-14.57,46.25-14.57c19.43,0,34.8,5.74,46.12,17.22
				c11.32,11.48,16.98,27.42,16.98,47.81c0,20.56-3.82,39.22-11.44,56c-7.63,16.78-18.27,30.03-31.91,39.74
				c-13.65,9.72-29.07,14.57-46.25,14.57C597.09,218.15,581.72,212.41,570.4,200.93z"/>
			<path class="st28" d="M806.08,167.81c5.62-7.55,9.88-16.78,12.77-27.7c2.89-10.92,4.34-21.27,4.34-31.07
				c0-9.31-1.73-16.18-5.18-20.59c-3.45-4.41-8.31-6.62-14.57-6.62c-7.71,0-14.37,3.77-19.99,11.32
				c-5.62,7.55-9.88,16.78-12.77,27.7c-2.89,10.92-4.34,21.28-4.34,31.07c0,18.15,6.58,27.22,19.75,27.22
				C793.79,179.13,800.45,175.36,806.08,167.81z M735.38,200.93c-11.32-11.48-16.98-27.42-16.98-47.81c0-20.55,3.81-39.22,11.44-56
				c7.63-16.78,18.26-30.02,31.91-39.74C775.4,47.66,790.82,42.8,808,42.8c19.43,0,34.8,5.74,46.12,17.22
				c11.32,11.48,16.98,27.42,16.98,47.81c0,20.56-3.82,39.22-11.44,56c-7.63,16.78-18.27,30.03-31.91,39.74
				c-13.65,9.72-29.07,14.57-46.25,14.57C762.08,218.15,746.7,212.41,735.38,200.93z"/>
		</g>
		<g>
			<polygon class="st29" points="546.81,42.94 512.85,212.74 464.83,212.74 491.27,80.06 459.73,80.06 467.25,42.94 			"/>
			<path class="st29" d="M641.41,165.44c5.66-7.6,9.95-16.9,12.86-27.9c2.91-10.99,4.37-21.43,4.37-31.29
				c0-9.38-1.74-16.29-5.22-20.74c-3.48-4.44-8.37-6.67-14.68-6.67c-7.76,0-14.47,3.8-20.13,11.4c-5.66,7.6-9.95,16.9-12.86,27.89
				c-2.91,11-4.37,21.43-4.37,31.29c0,18.27,6.63,27.41,19.89,27.41C629.04,176.84,635.75,173.04,641.41,165.44z M570.22,198.79
				c-11.4-11.56-17.1-27.61-17.1-48.15c0-20.7,3.84-39.5,11.52-56.4c7.68-16.9,18.39-30.24,32.14-40.02
				c13.74-9.78,29.27-14.68,46.57-14.68c19.56,0,35.05,5.78,46.45,17.34c11.4,11.56,17.1,27.61,17.1,48.15
				c0,20.7-3.84,39.5-11.52,56.4c-7.68,16.9-18.4,30.24-32.14,40.02c-13.75,9.78-29.27,14.68-46.57,14.68
				C597.1,216.14,581.62,210.36,570.22,198.79z"/>
			<path class="st29" d="M807.57,165.44c5.66-7.6,9.95-16.9,12.86-27.9c2.91-10.99,4.37-21.43,4.37-31.29
				c0-9.38-1.74-16.29-5.22-20.74c-3.48-4.44-8.37-6.67-14.68-6.67c-7.76,0-14.47,3.8-20.13,11.4c-5.66,7.6-9.95,16.9-12.86,27.89
				c-2.91,11-4.37,21.43-4.37,31.29c0,18.27,6.63,27.41,19.89,27.41C795.2,176.84,801.91,173.04,807.57,165.44z M736.38,198.79
				c-11.4-11.56-17.1-27.61-17.1-48.15c0-20.7,3.84-39.5,11.52-56.4c7.68-16.9,18.39-30.24,32.14-40.02
				c13.74-9.78,29.27-14.68,46.57-14.68c19.56,0,35.05,5.78,46.45,17.34c11.4,11.56,17.1,27.61,17.1,48.15
				c0,20.7-3.84,39.5-11.52,56.4c-7.68,16.9-18.4,30.24-32.14,40.02c-13.75,9.78-29.27,14.68-46.57,14.68
				C763.26,216.14,747.78,210.36,736.38,198.79z"/>
		</g>
		<g>
			<polygon class="st30" points="546.47,39.71 512.27,210.7 463.91,210.7 490.53,77.09 458.78,77.09 466.35,39.71 			"/>
			<path class="st30" d="M641.74,163.07c5.7-7.65,10.02-17.02,12.95-28.09c2.93-11.07,4.4-21.58,4.4-31.51
				c0-9.44-1.75-16.4-5.25-20.89c-3.5-4.48-8.43-6.72-14.78-6.72c-7.82,0-14.58,3.83-20.27,11.48c-5.7,7.66-10.02,17.02-12.95,28.09
				c-2.93,11.08-4.4,21.58-4.4,31.51c0,18.4,6.68,27.6,20.03,27.6C629.28,174.55,636.04,170.73,641.74,163.07z M570.05,196.66
				c-11.48-11.64-17.22-27.8-17.22-48.49c0-20.84,3.87-39.77,11.6-56.79c7.73-17.02,18.52-30.45,32.37-40.3
				c13.84-9.85,29.47-14.78,46.9-14.78c19.7,0,35.3,5.82,46.78,17.46c11.48,11.65,17.22,27.81,17.22,48.49
				c0,20.85-3.87,39.78-11.6,56.79c-7.74,17.02-18.53,30.45-32.37,40.31c-13.84,9.85-29.48,14.78-46.9,14.78
				C597.12,214.13,581.53,208.3,570.05,196.66z"/>
			<path class="st30" d="M809.07,163.07c5.7-7.65,10.02-17.02,12.95-28.09c2.93-11.07,4.4-21.58,4.4-31.51
				c0-9.44-1.75-16.4-5.25-20.89c-3.5-4.48-8.43-6.72-14.78-6.72c-7.82,0-14.58,3.83-20.27,11.48c-5.7,7.66-10.02,17.02-12.95,28.09
				c-2.93,11.08-4.4,21.58-4.4,31.51c0,18.4,6.68,27.6,20.03,27.6C796.61,174.55,803.37,170.73,809.07,163.07z M737.37,196.66
				c-11.48-11.64-17.22-27.8-17.22-48.49c0-20.84,3.87-39.77,11.6-56.79c7.73-17.02,18.52-30.45,32.37-40.3
				c13.84-9.85,29.47-14.78,46.9-14.78c19.7,0,35.3,5.82,46.78,17.46c11.48,11.65,17.22,27.81,17.22,48.49
				c0,20.85-3.87,39.78-11.6,56.79c-7.74,17.02-18.53,30.45-32.37,40.31c-13.84,9.85-29.48,14.78-46.9,14.78
				C764.45,214.13,748.85,208.3,737.37,196.66z"/>
		</g>
		<g>
			<polygon class="st31" points="546.13,36.48 511.7,208.67 462.99,208.67 489.8,74.12 457.82,74.12 465.45,36.48 			"/>
			<path class="st31" d="M642.07,160.7c5.74-7.71,10.09-17.13,13.04-28.29c2.95-11.15,4.43-21.73,4.43-31.73
				c0-9.51-1.76-16.52-5.29-21.03c-3.53-4.51-8.49-6.76-14.88-6.76c-7.87,0-14.68,3.85-20.42,11.56
				c-5.74,7.71-10.09,17.14-13.04,28.29c-2.95,11.15-4.43,21.73-4.43,31.73c0,18.53,6.72,27.79,20.17,27.79
				C629.52,172.26,636.32,168.41,642.07,160.7z M569.87,194.52c-11.56-11.72-17.34-28-17.34-48.83c0-20.99,3.89-40.05,11.68-57.19
				c7.79-17.13,18.65-30.66,32.59-40.59c13.94-9.92,29.68-14.88,47.23-14.88c19.84,0,35.54,5.86,47.1,17.59
				c11.56,11.73,17.34,28,17.34,48.83c0,20.99-3.9,40.06-11.68,57.19c-7.79,17.14-18.66,30.67-32.59,40.59
				c-13.94,9.92-29.68,14.88-47.23,14.88C597.13,212.11,581.43,206.25,569.87,194.52z"/>
			<path class="st31" d="M810.56,160.7c5.74-7.71,10.09-17.13,13.04-28.29c2.95-11.15,4.43-21.73,4.43-31.73
				c0-9.51-1.76-16.52-5.29-21.03c-3.53-4.51-8.49-6.76-14.88-6.76c-7.87,0-14.68,3.85-20.42,11.56
				c-5.74,7.71-10.09,17.14-13.04,28.29c-2.95,11.15-4.43,21.73-4.43,31.73c0,18.53,6.72,27.79,20.17,27.79
				C798.02,172.26,804.82,168.41,810.56,160.7z M738.37,194.52c-11.56-11.72-17.34-28-17.34-48.83c0-20.99,3.89-40.05,11.68-57.19
				c7.79-17.13,18.65-30.66,32.59-40.59c13.94-9.92,29.68-14.88,47.23-14.88c19.84,0,35.54,5.86,47.1,17.59
				c11.56,11.73,17.34,28,17.34,48.83c0,20.99-3.9,40.06-11.68,57.19c-7.79,17.14-18.66,30.67-32.59,40.59
				c-13.94,9.92-29.68,14.88-47.23,14.88C765.63,212.11,749.93,206.25,738.37,194.52z"/>
		</g>
		<g>
			<polygon class="st32" points="545.79,33.25 511.12,206.63 462.07,206.63 489.07,71.14 456.87,71.14 464.55,33.25 			"/>
			<path class="st32" d="M642.39,158.33c5.78-7.76,10.16-17.25,13.13-28.49c2.97-11.23,4.46-21.88,4.46-31.95
				c0-9.58-1.78-16.63-5.33-21.18c-3.55-4.54-8.54-6.81-14.99-6.81c-7.93,0-14.78,3.88-20.56,11.64
				c-5.78,7.76-10.16,17.26-13.13,28.48c-2.97,11.23-4.46,21.88-4.46,31.95c0,18.66,6.77,27.99,20.31,27.99
				C629.76,169.97,636.61,166.1,642.39,158.33z M569.69,192.39c-11.64-11.8-17.46-28.19-17.46-49.17c0-21.13,3.92-40.33,11.76-57.59
				c7.84-17.25,18.78-30.87,32.82-40.87c14.03-9.99,29.89-14.99,47.56-14.99c19.98,0,35.79,5.91,47.43,17.71
				c11.64,11.81,17.46,28.2,17.46,49.17c0,21.14-3.92,40.33-11.76,57.59c-7.84,17.26-18.79,30.88-32.82,40.87
				c-14.04,9.99-29.89,14.99-47.56,14.99C597.15,210.1,581.34,204.2,569.69,192.39z"/>
			<path class="st32" d="M812.06,158.33c5.78-7.76,10.16-17.25,13.13-28.49c2.97-11.23,4.46-21.88,4.46-31.95
				c0-9.58-1.78-16.63-5.33-21.18c-3.55-4.54-8.54-6.81-14.99-6.81c-7.93,0-14.78,3.88-20.56,11.64
				c-5.78,7.76-10.16,17.26-13.13,28.48c-2.97,11.23-4.46,21.88-4.46,31.95c0,18.66,6.77,27.99,20.31,27.99
				C799.43,169.97,806.28,166.1,812.06,158.33z M739.36,192.39c-11.64-11.8-17.46-28.19-17.46-49.17c0-21.13,3.92-40.33,11.76-57.59
				c7.84-17.25,18.78-30.87,32.82-40.87c14.03-9.99,29.89-14.99,47.56-14.99c19.98,0,35.79,5.91,47.43,17.71
				c11.64,11.81,17.46,28.2,17.46,49.17c0,21.14-3.92,40.33-11.76,57.59c-7.84,17.26-18.79,30.88-32.82,40.87
				c-14.04,9.99-29.89,14.99-47.56,14.99C766.82,210.1,751.01,204.2,739.36,192.39z"/>
		</g>
		<g>
			<polygon class="st33" points="545.45,30.02 510.54,204.6 461.16,204.6 488.34,68.17 455.92,68.17 463.65,30.02 			"/>
			<path class="st33" d="M642.72,155.96c5.82-7.81,10.23-17.37,13.22-28.68c2.99-11.3,4.49-22.03,4.49-32.17
				c0-9.64-1.79-16.75-5.36-21.32c-3.58-4.57-8.6-6.86-15.09-6.86c-7.98,0-14.88,3.91-20.7,11.72
				c-5.82,7.82-10.23,17.37-13.22,28.68c-2.99,11.31-4.49,22.03-4.49,32.17c0,18.79,6.82,28.18,20.45,28.18
				C630,167.68,636.9,163.78,642.72,155.96z M569.52,190.26c-11.72-11.89-17.58-28.39-17.58-49.51c0-21.28,3.95-40.61,11.85-57.99
				c7.9-17.37,18.91-31.09,33.05-41.15c14.13-10.06,30.09-15.09,47.89-15.09c20.12,0,36.04,5.95,47.76,17.83
				c11.72,11.89,17.58,28.39,17.58,49.51c0,21.29-3.95,40.61-11.85,57.99c-7.9,17.38-18.92,31.09-33.05,41.15
				c-14.13,10.06-30.1,15.09-47.89,15.09C597.16,208.09,581.24,202.15,569.52,190.26z"/>
			<path class="st33" d="M813.56,155.96c5.82-7.81,10.23-17.37,13.22-28.68c2.99-11.3,4.49-22.03,4.49-32.17
				c0-9.64-1.79-16.75-5.36-21.32c-3.58-4.57-8.6-6.86-15.09-6.86c-7.98,0-14.88,3.91-20.7,11.72
				c-5.82,7.82-10.23,17.37-13.22,28.68c-2.99,11.31-4.49,22.03-4.49,32.17c0,18.79,6.82,28.18,20.45,28.18
				C800.84,167.68,807.74,163.78,813.56,155.96z M740.36,190.26c-11.72-11.89-17.58-28.39-17.58-49.51
				c0-21.28,3.95-40.61,11.85-57.99c7.9-17.37,18.91-31.09,33.05-41.15c14.13-10.06,30.09-15.09,47.89-15.09
				c20.12,0,36.04,5.95,47.76,17.83c11.72,11.89,17.58,28.39,17.58,49.51c0,21.29-3.95,40.61-11.85,57.99
				c-7.9,17.38-18.92,31.09-33.05,41.15c-14.13,10.06-30.1,15.09-47.89,15.09C768,208.09,752.08,202.15,740.36,190.26z"/>
		</g>
		<g>
			<path class="st0" d="M545.11,26.78l-35.16,175.78h-49.72L487.61,65.2h-32.64l7.78-38.42H545.11z"/>
			<path class="st0" d="M643.04,153.59c5.86-7.87,10.3-17.49,13.31-28.88c3.01-11.38,4.52-22.18,4.52-32.39
				c0-9.71-1.8-16.86-5.4-21.47c-3.6-4.6-8.66-6.91-15.19-6.91c-8.04,0-14.98,3.94-20.84,11.8c-5.86,7.87-10.3,17.49-13.31,28.88
				c-3.01,11.39-4.52,22.18-4.52,32.39c0,18.92,6.86,28.37,20.59,28.37C630.24,165.4,637.18,161.46,643.04,153.59z M569.34,188.12
				c-11.8-11.97-17.7-28.58-17.7-49.85c0-21.42,3.97-40.89,11.93-58.38c7.95-17.49,19.04-31.3,33.27-41.43
				c14.23-10.13,30.3-15.19,48.21-15.19c20.25,0,36.28,5.99,48.09,17.95c11.8,11.97,17.7,28.59,17.7,49.85
				c0,21.43-3.98,40.89-11.93,58.38c-7.95,17.5-19.05,31.31-33.27,41.43c-14.23,10.13-30.3,15.19-48.21,15.19
				C597.17,206.08,581.15,200.09,569.34,188.12z"/>
			<path class="st0" d="M815.05,153.59c5.86-7.87,10.3-17.49,13.31-28.88c3.01-11.38,4.52-22.18,4.52-32.39
				c0-9.71-1.8-16.86-5.4-21.47c-3.6-4.6-8.66-6.91-15.19-6.91c-8.04,0-14.98,3.94-20.84,11.8c-5.86,7.87-10.3,17.49-13.31,28.88
				c-3.01,11.39-4.52,22.18-4.52,32.39c0,18.92,6.86,28.37,20.59,28.37C802.25,165.4,809.19,161.46,815.05,153.59z M741.35,188.12
				c-11.8-11.97-17.7-28.58-17.7-49.85c0-21.42,3.97-40.89,11.93-58.38c7.95-17.49,19.04-31.3,33.27-41.43
				c14.23-10.13,30.3-15.19,48.21-15.19c20.25,0,36.28,5.99,48.09,17.95c11.8,11.97,17.7,28.59,17.7,49.85
				c0,21.43-3.98,40.89-11.93,58.38c-7.95,17.5-19.05,31.31-33.27,41.43c-14.23,10.13-30.3,15.19-48.21,15.19
				C769.18,206.08,753.16,200.09,741.35,188.12z"/>
		</g>
	</g>
	<path class="st34" d="M881.58,157.69c0.13,1.09,0.29,2.16,0.38,3.25c0.25,3.07,0.73,6.1,1.51,9.08c0.23,0.87,0.35,1.79,0.37,2.69
		c0.01,0.61,0.19,1.06,0.6,1.46c1.24,1.23,2.41,2.55,3.76,3.65c1.62,1.31,3.01,2.83,4.57,4.19c2.07,1.81,4.12,3.64,6.18,5.46
		c0.23,0.2,0.5,0.36,0.89,0.62c-0.03-0.39-0.03-0.61-0.08-0.82c-0.49-2.18-0.95-4.36-1.49-6.53c-0.49-1.98-1.22-3.9-1.59-5.9
		c-0.37-2.02-1.03-3.94-1.54-5.91c-0.11-0.44-0.25-0.87-0.39-1.3c-0.11-0.35-0.33-0.57-0.66-0.78c-0.82-0.51-1.67-1.03-2.36-1.7
		c-2.99-2.91-6.55-5.05-9.91-7.47C881.81,157.65,881.73,157.68,881.58,157.69z"/>
	<path class="st34" d="M845.95,160.87c-1.13,0.23-2.24,0.45-3.35,0.68l-1.36,5.42c1.22-1.79,2.65-3.42,3.98-5.13
		C845.45,161.54,845.68,161.24,845.95,160.87z"/>
	<path class="st34" d="M890.99,131.87c-2.53-0.1-5.01-0.47-7.46-1.07c-0.27-0.07-0.54-0.1-0.9-0.17c0.12,1.55,0.24,3.01,0.37,4.59
		c1.07-0.11,2-0.19,2.93-0.29c0.77-0.08,1.53-0.24,2.31-0.01c0.86,0.26,1.39,0.88,1.43,1.74c0.04,0.84-0.44,1.61-1.24,1.89
		c-0.36,0.13-0.76,0.16-1.14,0.21c-1.2,0.15-2.41,0.28-3.66,0.42c0.08,0.39,0.16,0.7,0.21,1.01c0.2,1.15,0.42,2.29,0.6,3.44
		c0.16,0.99-0.71,1.85-1.46,2.02c-0.91,0.21-1.84-0.22-2.26-1.1c-0.12-0.26-0.2-0.55-0.25-0.83c-0.19-0.98-0.36-1.97-0.56-2.95
		c-0.07-0.36-0.23-0.71-0.35-1.08c-1.5,0.33-2.89,0.63-4.37,0.96c0.21,0.36,0.41,0.68,0.58,1.02c0.93,1.95,1.86,3.91,2.79,5.87
		c0.45,0.96,0.89,1.93,1.33,2.9c0.19,0.42,0.48,0.61,0.99,0.6c1.81-0.05,3.62-0.01,5.43-0.08c2-0.08,4.01-0.18,6-0.37
		c1.86-0.18,3.71-0.49,5.66-0.75c-0.78-6-2.16-11.74-4-17.44C892.95,132.21,891.97,131.91,890.99,131.87z"/>
	<path class="st34" d="M868.96,132c1.36,1.55,2.57,3.24,3.86,4.9c2.06-0.21,4.1-0.63,6.22-1.27c-0.21-2.15-0.41-4.23-0.6-6.16
		c-1.92-0.75-3.66-1.44-5.41-2.11c-0.84-0.32-1.69-0.66-2.56-0.9c-0.65-0.17-1.34-0.19-2.01-0.26c-0.82-0.09-1.63-0.15-2.59-0.24
		C866.82,128.13,867.44,130.27,868.96,132z"/>
	<path class="st34" d="M849.68,154.76c0.13-1.12,0.28-2.24,0.41-3.35c0.09-0.8,0.11-1.62,0.26-2.41c0.27-1.49,0.6-2.98,0.9-4.47
		c0.02-0.11,0.01-0.22,0.02-0.37c-1.49,0.11-2.88,0.22-4.38,0.33l-0.07,0.29c-0.1,0.96,0.06,1.83,0.17,2.7
		c0.11,0.8,0.24,1.6-0.03,2.4c-0.27,0.81-0.95,1.31-1.76,1.29l-1.51,6.01c1.7-0.47,3.39-0.97,5.1-1.43
		C849.35,155.61,849.62,155.3,849.68,154.76z"/>
	<path class="st34" d="M852.75,139.41c0.56-1.54,1.09-3.1,1.74-4.61c0.75-1.74,1.15-3.55,1.34-5.42c0.06-0.62,0.06-1.25,0.09-1.92
		c-0.5,0.18-0.94,0.3-1.34,0.48c-1.17,0.54-2.44,0.95-3.47,1.68c-0.19,0.13-0.38,0.28-0.56,0.42l-2.61,10.38
		c1.43-0.07,2.84-0.22,4.26-0.47C852.52,139.9,852.64,139.72,852.75,139.41z"/>
	<path class="st34" d="M856.3,111.21c0.9,1.14,1.82,2.26,2.87,3.57c0.53-1.32,1.01-2.44,1.42-3.59c0.24-0.66,0.43-1.35,0.54-2.05
		c0.21-1.4,0.33-2.82,0.51-4.23c0.12-0.92,0.27-1.84,0.41-2.77c-1.21-0.99-2.46-1.88-3.81-2.68l-2.62,10.42
		c0.06,0.13,0.12,0.27,0.18,0.4C855.93,110.6,856.09,110.93,856.3,111.21z"/>
	<path class="st34" d="M863.32,96.62c0.52-2.11,1.32-4.12,2.15-6.12c0.38-0.92,0.72-1.86,1.1-2.78c0.22-0.54,0.12-0.97-0.32-1.38
		c-1.24-1.18-2.43-2.43-3.68-3.59c-0.03-0.03-0.07-0.06-0.1-0.09l-1.52,6.02c0.78,0.43,1.12,1.25,0.87,2.19
		c-0.09,0.34-0.23,0.68-0.42,0.97c-0.56,0.87-1.17,1.71-1.73,2.57c-0.13,0.19-0.22,0.41-0.32,0.63l-0.09,0.34
		c1.29,0.82,2.5,1.58,3.77,2.39C863.15,97.31,863.24,96.96,863.32,96.62z"/>
	<path class="st34" d="M866.11,79.91c-0.13-0.8-0.25-1.6-0.44-2.39c-0.36-1.54-0.58-3.1-0.73-4.67l-1.38,5.47
		c0.84,0.74,1.69,1.49,2.56,2.26C866.12,80.31,866.14,80.11,866.11,79.91z"/>
	<path class="st34" d="M872.2,122.65c2.53,0.29,5.05,0.57,7.65,0.86c1.3-1.54,2.44-3.28,3.45-5.18c-1.51-1.51-3.11-2.84-4.81-3.98
		c-1.52,0.67-2.99,1.32-4.47,1.96c-0.86,0.38-1.76,0.68-2.57,1.13c-1.53,0.85-2.8,2.04-4.25,3.27c1.49,0.62,2.82,1.18,4.16,1.72
		C871.62,122.55,871.91,122.62,872.2,122.65z"/>
	<path class="st34" d="M852.45,122.44l-0.3,1.18c0.32-0.27,0.65-0.55,0.99-0.84C852.9,122.66,852.67,122.55,852.45,122.44z"/>
	<path class="st34" d="M854.33,117.08c-0.11-0.27-0.22-0.53-0.33-0.8l-0.3,1.17c0.25,0.02,0.49,0.04,0.75,0.07
		C854.4,117.31,854.38,117.19,854.33,117.08z"/>
	<path class="st34" d="M899.07,99.99c2.87-0.28,5.73-0.6,8.53-1.33c1.09-0.28,2.22-0.52,3.34-0.56c0.91-0.03,1.51-0.41,2.08-1.02
		c1.92-2.06,3.88-4.07,5.78-6.15c2.4-2.63,4.75-5.3,7.12-7.97c0.21-0.24,0.37-0.53,0.64-0.92c-0.47,0.06-0.73,0.07-0.98,0.13
		c-2.77,0.65-5.55,1.29-8.32,1.96c-1.7,0.41-3.39,0.84-5.07,1.3c-2.03,0.55-4.05,1.13-6.08,1.7c-0.39,0.11-0.63,0.37-0.85,0.73
		c-0.49,0.8-0.99,1.61-1.63,2.29c-2.35,2.48-4.31,5.25-6.2,8.08c-0.43,0.64-0.89,1.26-1.33,1.9c0.04,0.07,0.07,0.13,0.11,0.2
		C897.16,100.21,898.12,100.08,899.07,99.99z"/>
	<path class="st34" d="M867.56,140c-0.61-1.39-1.2-2.69-1.76-3.99c-0.85-1.99-1.64-4.01-3.18-5.61c-0.48-0.5-0.91-1.05-1.43-1.66
		c-0.62,1.5-1.18,2.86-1.73,4.23c-0.11,0.27-0.17,0.56-0.2,0.85c-0.29,2.5-0.56,4.99-0.85,7.6c1.61,1.3,3.33,2.46,5.2,3.43
		C865.11,143.25,866.5,141.7,867.56,140z"/>
	<path class="st34" d="M857.83,160.74c2.73,2.53,5.58,4.92,8.59,7.12c0.2,0.15,0.41,0.27,0.65,0.43c1.11-1.54,2.24-3,3.26-4.53
		c1.2-1.8,2.33-3.65,3.44-5.52c0.84-1.42,1.6-2.88,2.39-4.33c0.18-0.34,0.37-0.69,0.09-1.09c-0.5-0.72-0.89-1.52-1.48-2.16
		c-1.74-1.89-3.24-3.95-4.6-6.12c-0.13-0.2-0.28-0.39-0.45-0.63c-0.99,1.16-1.93,2.26-2.95,3.45c0.78,0.65,1.5,1.24,2.22,1.84
		c0.5,0.41,1.03,0.79,1.47,1.27c0.72,0.78,0.69,1.9,0.01,2.65c-0.65,0.72-1.7,0.84-2.57,0.28c-0.24-0.16-0.46-0.36-0.69-0.54
		c-0.92-0.74-1.84-1.47-2.78-2.23c-0.81,1.18-1.56,2.31-2.34,3.42c-0.84,1.19-1.88,1.16-2.8,0.64c-0.89-0.51-1.11-1.73-0.52-2.75
		c0.27-0.48,0.61-0.91,0.91-1.37c0.51-0.77,1.02-1.55,1.57-2.39c-1.33-0.85-2.55-1.63-3.82-2.44c-0.08,0.19-0.15,0.33-0.19,0.47
		c-0.52,2.04-1.2,4.02-2.03,5.95c-0.52,1.21-1.09,2.4-1.42,3.7c-0.14,0.54-0.05,0.9,0.35,1.29
		C855.39,158.32,856.57,159.57,857.83,160.74z"/>
	<path class="st34" d="M903.5,134.21c2.27,1.94,4.69,3.66,7.26,5.18c0.8,0.48,1.56,1.05,2.24,1.7c0.48,0.45,0.97,0.6,1.57,0.59
		c3.1-0.09,6.2-0.18,9.3-0.3c2.33-0.09,4.65-0.19,6.98-0.32c1.39-0.08,2.77-0.23,4.37-0.37c-0.37-0.32-0.52-0.49-0.71-0.61
		c-1.86-1.18-3.7-2.38-5.59-3.51c-1.77-1.06-3.67-1.94-5.37-3.11c-1.67-1.14-3.46-2.03-5.19-3.03c-0.45-0.26-0.9-0.51-1.38-0.71
		c-0.24-0.1-0.55-0.12-0.82-0.08c-1.31,0.17-2.62,0.39-3.93,0.54c-1.7,0.2-3.42,0.29-5.12,0.53c-1.83,0.26-3.63,0.66-5.45,0.99
		c-0.31,0.06-0.62,0.12-1.09,0.21C901.65,132.74,902.61,133.44,903.5,134.21z"/>
	<path class="st34" d="M841.11,195.36c0.02,0.4,0.1,0.8,0.17,1.35c0.26-0.3,0.43-0.45,0.54-0.63c1.18-1.86,2.39-3.7,3.52-5.58
		c1.08-1.8,1.96-3.74,3.16-5.45c1.28-1.84,2.18-3.89,3.39-5.77c0.39-0.61,0.52-1.23,0.32-2c-0.27-1.09-0.42-2.23-0.45-3.36
		c-0.1-3.91-1.07-7.68-1.7-11.51c0-0.03-0.04-0.05-0.13-0.15c-1.11,1.4-2.15,2.8-3.29,4.12c-1.47,1.7-2.62,3.61-3.83,5.49
		c-0.59,0.92-1.22,1.84-1.95,2.66c-0.45,0.51-0.62,1.02-0.6,1.66c0.09,3,0.14,6.01,0.27,9.01
		C840.67,188.58,840.9,191.97,841.11,195.36z"/>
	<path class="st34" d="M869.23,113.86c2.11-1.48,4.08-3.16,6.13-4.76c-0.22-2.05-0.61-4.1-1.28-6.21c-2.1,0.2-4.14,0.39-6.12,0.58
		c-0.66,1.66-1.25,3.12-1.82,4.59c-0.43,1.11-0.98,2.2-1.22,3.36c-0.31,1.46-0.35,2.98-0.52,4.58c0.5-0.17,0.9-0.27,1.27-0.43
		C866.87,115.02,868.17,114.61,869.23,113.86z"/>
	<path class="st34" d="M883.44,111.49c-0.34,0.22-0.69,0.43-1.09,0.67c1.18,1.01,2.28,1.95,3.48,2.98c0.66-0.79,1.27-1.53,1.89-2.27
		c0.39-0.47,0.76-0.97,1.2-1.4c0.6-0.58,1.49-0.69,2.16-0.36c0.79,0.4,1.27,1.11,1.11,1.97c-0.09,0.51-0.41,1.01-0.72,1.44
		c-0.75,1-1.56,1.95-2.37,2.96c1.19,0.81,2.34,1.57,3.47,2.38c0.98,0.7,1.21,1.82,0.62,2.73c-0.58,0.9-1.71,1.16-2.74,0.59
		c-0.48-0.27-0.92-0.61-1.37-0.91c-0.77-0.52-1.55-1.03-2.41-1.61c-0.84,1.31-1.62,2.52-2.47,3.83c0.21,0.08,0.33,0.14,0.45,0.17
		c2.04,0.52,4.02,1.21,5.96,2.03c1.16,0.49,2.27,1.07,3.5,1.38c0.67,0.17,1.14,0.12,1.63-0.41c1.39-1.49,2.85-2.91,4.24-4.41
		c2.33-2.52,4.48-5.2,6.52-7.95c0.09-0.12,0.15-0.27,0.24-0.43c-0.17-0.14-0.31-0.28-0.47-0.39c-1.94-1.34-3.84-2.75-5.84-4
		c-2.55-1.59-5.18-3.05-7.78-4.56c-0.2-0.11-0.4-0.25-0.61-0.29c-0.23-0.04-0.54-0.06-0.72,0.06c-0.77,0.48-1.58,0.92-2.24,1.53
		C887.33,108.82,885.41,110.19,883.44,111.49z"/>
	<path class="st34" d="M870.73,88.66c-0.18,1.05-0.36,2.08-0.43,3.15c-0.15,2.22-0.47,4.43-1.01,6.6c-0.07,0.27-0.1,0.54-0.16,0.88
		c1.53-0.12,2.96-0.23,4.54-0.35c-0.1-1.05-0.22-2-0.28-2.96c-0.05-0.74-0.13-1.49-0.03-2.21c0.13-0.9,0.9-1.47,1.77-1.51
		c0.9-0.04,1.7,0.53,1.95,1.44c0.09,0.34,0.11,0.7,0.15,1.05c0.14,1.18,0.26,2.36,0.4,3.56c0.32-0.07,0.57-0.12,0.83-0.17
		c1.11-0.21,2.22-0.46,3.34-0.62c1.38-0.2,2.39,0.68,2.36,2.01c-0.01,0.86-0.62,1.61-1.58,1.84c-0.78,0.19-1.59,0.28-2.38,0.45
		c-0.68,0.14-1.36,0.33-2.06,0.51c0.34,1.52,0.64,2.9,0.98,4.41c0.25-0.13,0.41-0.23,0.59-0.31c1.59-0.8,3.16-1.62,4.77-2.38
		c1.37-0.65,2.77-1.23,4.16-1.83c0.64-0.28,0.91-0.72,0.88-1.44c-0.08-2.2-0.05-4.4-0.15-6.59c-0.15-3.23-0.5-6.45-0.97-9.65
		c-0.03-0.18-0.09-0.36-0.15-0.57c-0.21,0.02-0.37,0.03-0.53,0.06c-2.45,0.45-4.92,0.81-7.34,1.37c-2.93,0.68-5.82,1.53-8.73,2.29
		C871.11,87.83,870.83,88.11,870.73,88.66z"/>
	<path class="st34" d="M868.61,69.04c0.04,4.11,1.1,8.07,1.74,12.31c0.87-1.1,1.59-2.06,2.35-2.97c1.74-2.09,3.38-4.25,4.77-6.61
		c0.56-0.94,1.17-1.88,1.92-2.67c0.63-0.66,0.76-1.35,0.73-2.18c-0.1-2.74-0.12-5.49-0.25-8.23c-0.17-3.62-0.4-7.23-0.62-10.85
		c-0.02-0.32-0.11-0.64-0.17-0.96c-0.07-0.01-0.14-0.02-0.22-0.02c-1.31,2.08-2.64,4.14-3.91,6.24c-1.08,1.8-1.95,3.74-3.16,5.45
		c-1.31,1.87-2.2,3.96-3.43,5.86c-0.32,0.5-0.37,1.03-0.21,1.66C868.41,67.04,868.6,68.05,868.61,69.04z"/>
	<path class="st0" d="M861.4,91.84c0.19-0.29,0.33-0.63,0.42-0.97c0.25-0.94-0.09-1.76-0.87-2.19l-1.6,6.37
		c0.1-0.22,0.19-0.44,0.32-0.63C860.24,93.55,860.84,92.71,861.4,91.84z"/>
	<path class="st0" d="M837.76,200.6c0.07,0.46,0.26,0.94,0.51,1.33c0.37,0.6,1.06,0.69,1.69,0.84c1.21,0.29,1.9,0.07,2.62-0.92
		c0.87-1.2,1.79-2.38,2.58-3.64c1.99-3.18,3.92-6.4,5.88-9.6c0.76-1.24,1.55-2.46,2.26-3.73c0.91-1.64,1.72-3.33,2.65-4.96
		c0.54-0.95,0.55-1.87,0.3-2.89c-0.25-1.03-0.42-2.09-0.55-3.14c-0.24-2.06-0.39-4.12-0.66-6.17c-0.18-1.38-0.51-2.74-0.76-4.11
		c-0.04-0.21-0.02-0.42-0.03-0.61c3.48,2.89,6.93,5.76,10.37,8.62c-0.53,0.72-1.09,1.44-1.6,2.19c-0.98,1.45-1.92,2.91-2.88,4.38
		c-0.99,1.52-2,3.02-2.95,4.56c-0.53,0.85-0.29,1.95,0.45,2.55c0.8,0.64,1.91,0.58,2.65-0.2c0.38-0.39,0.7-0.85,1-1.31
		c0.88-1.35,1.73-2.73,2.61-4.09c0.58-0.88,1.2-1.74,1.91-2.76c0.13,0.59,0.25,1.02,0.33,1.45c0.5,2.93,1,5.87,1.47,8.81
		c0.05,0.33,0.05,0.75-0.11,1.02c-0.63,1.02-1.29,2.02-2.01,2.97c-1.19,1.57-2.45,3.09-3.67,4.64c-0.51,0.66-0.51,1.38-0.15,2.1
		c0.36,0.71,1.13,1.09,1.94,1.01c0.76-0.08,1.32-0.48,1.76-1.08c1.59-2.16,3.18-4.32,4.78-6.48c0.05-0.07,0.14-0.12,0.28-0.23
		c0.59,0.49,1.15,1.02,1.77,1.47c1.62,1.19,3.25,2.35,4.89,3.5c0.36,0.25,0.8,0.44,1.23,0.54c0.94,0.22,1.88-0.29,2.23-1.14
		c0.37-0.9,0.09-1.83-0.71-2.4c-0.79-0.56-1.59-1.11-2.37-1.68c-1.36-0.99-2.66-2.06-4.07-2.97c-1.2-0.77-1.56-1.79-1.67-3.14
		c-0.23-2.61-0.65-5.2-0.97-7.8c-0.05-0.38-0.21-0.79,0.09-1.21c1.46,1.23,2.87,2.42,4.28,3.59c0.99,0.83,1.97,1.69,3.01,2.44
		c0.94,0.68,2.13,0.44,2.75-0.45c0.61-0.88,0.4-2.04-0.49-2.78c-2.31-1.92-4.61-3.86-6.93-5.78c-1-0.82-2.03-1.6-3.04-2.41
		c-0.07-0.05-0.1-0.15-0.12-0.17c2.49-3.77,4.96-7.5,7.42-11.22c0.01,0.02,0.07,0.06,0.08,0.12c0.05,0.25,0.1,0.51,0.12,0.77
		c0.32,3.55,0.78,7.08,1.69,10.53c0.23,0.86,0.2,1.79,0.25,2.69c0.04,0.76,0.17,1.49,0.67,2.09c0.4,0.47,0.8,0.94,1.25,1.36
		c2.4,2.27,4.81,4.52,7.22,6.77c1.57,1.45,3.11,2.93,4.74,4.31c2.14,1.82,4.34,3.58,6.55,5.32c0.35,0.27,0.91,0.47,1.34,0.41
		c1.4-0.18,3.17-1.27,2.72-3.27c-0.65-2.9-1.13-5.84-1.79-8.74c-0.8-3.5-1.67-6.99-2.57-10.46c-0.51-1.94-1.17-3.84-1.73-5.76
		c-0.26-0.9-0.84-1.48-1.61-1.97c-1.03-0.66-2.06-1.35-2.99-2.13c-1.78-1.5-3.5-3.07-5.5-4.3c-0.85-0.53-1.66-1.13-2.48-1.71
		c-0.19-0.13-0.36-0.31-0.54-0.46c4.53-0.41,8.99-0.82,13.47-1.23c0.1,0.74,0.15,1.48,0.3,2.21c0.74,3.58,1.5,7.15,2.26,10.73
		c0.23,1.09,1.14,1.77,2.18,1.65c1.04-0.12,1.77-0.98,1.72-2.11c-0.02-0.51-0.11-1.03-0.22-1.54c-0.34-1.58-0.71-3.16-1.05-4.74
		c-0.22-1.03-0.38-2.07-0.6-3.28c0.48,0.29,0.84,0.49,1.17,0.72c2.48,1.76,4.96,3.52,7.43,5.3c0.24,0.18,0.5,0.46,0.56,0.74
		c0.27,1.26,0.52,2.53,0.7,3.81c0.26,1.86,0.43,3.73,0.67,5.59c0.11,0.86,0.66,1.4,1.47,1.64c0.77,0.23,1.62-0.15,2.12-0.85
		c0.45-0.63,0.44-1.32,0.33-2.05c-0.39-2.68-0.76-5.37-1.15-8.12c0.22-0.03,0.47-0.06,0.72-0.08c0.58-0.05,1.16-0.07,1.74-0.16
		c1.92-0.3,3.83-0.61,5.74-0.95c0.44-0.08,0.89-0.23,1.26-0.46c0.86-0.56,1.15-1.59,0.77-2.47c-0.38-0.88-1.31-1.31-2.34-1.11
		c-0.86,0.17-1.72,0.32-2.58,0.44c-2.02,0.28-3.99,0.85-6.04,0.9c-0.52,0.01-0.98,0.05-1.45-0.32c-2.38-1.89-4.8-3.74-7.19-5.61
		c-0.32-0.25-0.6-0.54-1-0.91c1.92-0.18,3.65-0.35,5.39-0.52c1.38-0.13,2.77-0.22,4.15-0.39c0.8-0.1,1.37-0.57,1.63-1.35
		c0.46-1.41-0.71-2.7-2.28-2.54c-0.68,0.07-1.35,0.14-2.03,0.2c-1.55,0.13-3.09,0.25-4.64,0.39c-2.12,0.19-4.24,0.4-6.34,0.6
		c-0.89-4.38-1.78-8.78-2.69-13.27c0.5,0.39,0.93,0.72,1.36,1.07c2.05,1.64,4.03,3.36,6.31,4.68c1.48,0.86,2.93,1.78,4.12,3.05
		c0.45,0.48,1.05,0.78,1.73,0.81c0.87,0.04,1.74,0.05,2.61,0.03c2.52-0.07,5.04-0.14,7.55-0.24c2.84-0.11,5.69-0.18,8.53-0.39
		c2.51-0.18,5.02-0.51,7.52-0.79c1.24-0.14,1.73-0.61,2.04-1.85c0.03-0.13,0.06-0.25,0.1-0.38c0.31-1.24,0.1-1.88-0.9-2.61
		c-1.2-0.87-2.38-1.79-3.64-2.58c-3.18-1.99-6.4-3.92-9.6-5.88c-1.24-0.76-2.46-1.55-3.73-2.26c-1.63-0.92-3.33-1.72-4.96-2.65
		c-0.95-0.54-1.87-0.53-2.89-0.28c-1.03,0.25-2.09,0.42-3.15,0.54c-1.99,0.23-4,0.36-5.98,0.62c-1.41,0.19-2.8,0.52-4.2,0.78
		c-0.24,0.04-0.49,0.04-0.71,0.06c2.89-3.48,5.76-6.93,8.6-10.35c1.22,0.81,2.46,1.63,3.69,2.45c0.43,0.29,0.87,0.56,1.3,0.85
		c2.05,1.36,4.08,2.73,6.15,4.06c0.88,0.57,2,0.31,2.61-0.49c0.61-0.82,0.51-1.89-0.28-2.63c-0.33-0.31-0.69-0.59-1.07-0.83
		c-2.16-1.42-4.33-2.82-6.5-4.24c-0.14-0.09-0.24-0.23-0.45-0.43c0.53-0.12,0.94-0.23,1.35-0.3c2.93-0.5,5.87-1,8.81-1.47
		c0.33-0.05,0.76-0.06,1.02,0.11c1.12,0.71,2.2,1.48,3.27,2.26c0.81,0.59,1.57,1.24,2.36,1.86c0.58,0.46,1.18,0.9,1.76,1.37
		c0.85,0.71,1.87,0.77,2.65,0.13c0.8-0.66,0.97-1.8,0.34-2.72c-0.25-0.36-0.61-0.66-0.97-0.94c-1.25-0.97-2.51-1.93-3.78-2.88
		c-0.67-0.5-1.37-0.97-2.05-1.46c-0.22-0.16-0.44-0.33-0.65-0.5c0.64-0.81,1.24-1.53,1.79-2.28c0.79-1.07,1.54-2.15,2.31-3.23
		c0.41-0.58,0.88-1.13,1.23-1.75c0.56-0.99,0.18-2.29-0.74-2.81c-0.96-0.54-2.02-0.24-2.7,0.75c-0.49,0.72-0.99,1.44-1.52,2.13
		c-1.24,1.62-2.22,3.42-3.64,4.91c-0.36,0.38-0.66,0.73-1.26,0.8c-3.02,0.35-6.04,0.75-9.05,1.12c-0.39,0.05-0.79,0.04-1.35,0.06
		c1.25-1.51,2.36-2.85,3.48-4.2c0.89-1.07,1.83-2.1,2.65-3.22c0.7-0.96,0.46-2.14-0.42-2.76c-0.88-0.62-2.03-0.42-2.78,0.47
		c-1.99,2.39-3.98,4.76-5.97,7.15c-0.82,0.99-1.63,1.99-2.41,2.94c-3.75-2.48-7.49-4.95-11.28-7.46c0.37-0.05,0.74-0.12,1.12-0.16
		c3.49-0.32,6.95-0.78,10.34-1.68c0.86-0.23,1.79-0.22,2.69-0.26c0.8-0.04,1.58-0.14,2.17-0.71c1.69-1.65,3.38-3.31,5.01-5.01
		c1.41-1.47,2.73-3.03,4.11-4.52c2.88-3.11,5.69-6.28,8.23-9.69c1.04-1.39,1.07-1.85,0.2-3.32c-0.68-1.16-1.31-1.46-2.66-1.24
		c-1.12,0.18-2.24,0.36-3.34,0.6c-2.59,0.55-5.19,1.1-7.77,1.72c-1.95,0.47-3.85,1.16-5.82,1.54c-2.78,0.55-5.44,1.45-8.14,2.25
		c-0.87,0.26-1.5,0.79-1.89,1.57c-0.59,1.17-1.41,2.16-2.25,3.15c-1.27,1.51-2.51,3.04-3.71,4.61c-0.8,1.05-1.5,2.19-2.26,3.28
		c-0.13,0.19-0.31,0.36-0.42,0.49c-0.41-4.49-0.82-8.96-1.24-13.47c0.71-0.09,1.45-0.14,2.17-0.29c3.13-0.66,6.26-1.35,9.39-2.02
		c0.51-0.11,1.03-0.15,1.53-0.28c0.97-0.25,1.6-1.15,1.51-2.11c-0.08-0.93-0.81-1.64-1.81-1.73c-0.35-0.03-0.72,0-1.06,0.07
		c-1.2,0.24-2.4,0.53-3.61,0.78c-1.67,0.34-3.34,0.66-5.21,1.03c0.25-0.44,0.4-0.76,0.6-1.03c1.8-2.53,3.59-5.07,5.42-7.58
		c0.19-0.26,0.52-0.53,0.82-0.59c1.43-0.28,2.86-0.52,4.3-0.72c1.7-0.24,3.4-0.39,5.1-0.65c0.84-0.13,1.38-0.68,1.56-1.53
		c0.17-0.79-0.16-1.54-0.85-2.02c-0.6-0.42-1.25-0.46-1.95-0.35c-1.53,0.23-3.07,0.43-4.61,0.66c-0.96,0.14-1.91,0.3-2.87,0.45
		c-0.24,0.04-0.48,0.06-0.76,0.09c-0.08-0.85-0.1-1.63-0.22-2.39c-0.3-1.95-0.62-3.9-0.97-5.84c-0.08-0.44-0.22-0.89-0.46-1.26
		c-0.56-0.87-1.58-1.16-2.47-0.77c-0.9,0.39-1.32,1.29-1.12,2.33c0.17,0.86,0.32,1.72,0.44,2.58c0.28,2.02,0.86,3.99,0.9,6.04
		c0.01,0.49,0.09,0.94-0.26,1.38c-1.96,2.49-3.89,5.01-5.84,7.51c-0.18,0.23-0.42,0.41-0.74,0.72c-0.08-0.86-0.14-1.53-0.2-2.2
		c-0.1-1.09-0.2-2.19-0.3-3.28c-0.13-1.35-0.2-2.71-0.42-4.05c-0.19-1.17-1.18-1.82-2.26-1.64c-1.06,0.18-1.72,1.14-1.62,2.3
		c0.28,3.06,0.55,6.12,0.83,9.18c0.12,1.31,0.26,2.62,0.38,3.88c-4.39,0.89-8.77,1.79-13.29,2.71c0.34-0.44,0.64-0.81,0.93-1.18
		c1.56-1.99,3.25-3.87,4.55-6.05c0.98-1.64,1.95-3.28,3.36-4.62c0.39-0.37,0.65-0.99,0.75-1.54c0.14-0.79,0.09-1.61,0.07-2.42
		c-0.07-2.71-0.15-5.43-0.26-8.14c-0.1-2.49-0.18-4.98-0.37-7.46c-0.22-2.87-0.53-5.73-0.85-8.59c-0.1-0.91-0.64-1.54-1.58-1.75
		c-0.28-0.06-0.57-0.13-0.85-0.21c-0.93-0.27-1.68,0.05-2.23,0.78c-0.98,1.32-1.96,2.66-2.86,4.04c-1.37,2.12-2.68,4.28-3.99,6.43
		c-0.49,0.8-0.98,1.61-1.47,2.41l-4.67,18.55c0.16,1.57,0.37,3.13,0.73,4.67c0.19,0.79,0.3,1.59,0.44,2.39
		c0.03,0.2,0.01,0.4,0.01,0.67c-0.87-0.76-1.72-1.52-2.56-2.26l-1.09,4.33c0.03,0.03,0.07,0.06,0.1,0.09
		c1.26,1.17,2.44,2.41,3.68,3.59c0.44,0.42,0.54,0.84,0.32,1.38c-0.37,0.92-0.72,1.86-1.1,2.78c-0.82,2-1.62,4.01-2.15,6.12
		c-0.09,0.34-0.17,0.69-0.29,1.16c-1.27-0.81-2.47-1.57-3.77-2.39l-1.02,4.06c1.35,0.8,2.6,1.69,3.81,2.68
		c-0.14,0.93-0.29,1.85-0.41,2.77c-0.18,1.41-0.3,2.83-0.51,4.23c-0.1,0.7-0.3,1.39-0.54,2.05c-0.41,1.15-0.9,2.28-1.42,3.59
		c-1.06-1.31-1.98-2.43-2.87-3.57c-0.22-0.28-0.37-0.61-0.51-0.93c-0.06-0.13-0.12-0.27-0.18-0.4l-1.61,6.41
		c0.11,0.27,0.22,0.53,0.33,0.8c0.05,0.11,0.07,0.23,0.12,0.44c-0.26-0.03-0.5-0.04-0.75-0.07l-1.26,4.98
		c0.22,0.11,0.45,0.22,0.69,0.34c-0.34,0.29-0.67,0.57-0.99,0.84l-1.62,6.44c0.19-0.14,0.37-0.28,0.56-0.42
		c1.04-0.73,2.3-1.15,3.47-1.68c0.41-0.19,0.84-0.31,1.34-0.48c-0.03,0.67-0.02,1.3-0.09,1.92c-0.19,1.87-0.58,3.68-1.34,5.42
		c-0.65,1.51-1.18,3.07-1.74,4.61c-0.11,0.3-0.23,0.49-0.58,0.55c-1.41,0.25-2.83,0.39-4.26,0.47l-1.02,4.07
		c1.49-0.11,2.89-0.22,4.38-0.33c-0.01,0.15,0,0.26-0.02,0.37c-0.3,1.49-0.64,2.97-0.9,4.47c-0.14,0.79-0.17,1.61-0.26,2.41
		c-0.13,1.12-0.27,2.24-0.41,3.35c-0.06,0.54-0.33,0.84-0.89,0.99c-1.7,0.46-3.39,0.96-5.1,1.43l-1.1,4.37
		c1.12-0.23,2.23-0.45,3.35-0.68c-0.28,0.37-0.51,0.67-0.74,0.97c-1.33,1.71-2.75,3.34-3.98,5.13l-4.66,18.5
		c0.03,0.6,0.07,1.19,0.09,1.79C836.81,191.73,837.1,196.18,837.76,200.6z M891.75,165.15c0.69,0.67,1.54,1.18,2.36,1.7
		c0.33,0.21,0.55,0.43,0.66,0.78c0.14,0.43,0.28,0.86,0.39,1.3c0.5,1.97,1.17,3.89,1.54,5.91c0.36,2,1.09,3.92,1.59,5.9
		c0.54,2.16,1,4.35,1.49,6.53c0.05,0.21,0.04,0.43,0.08,0.82c-0.38-0.27-0.66-0.42-0.89-0.62c-2.06-1.82-4.11-3.66-6.18-5.46
		c-1.56-1.36-2.96-2.89-4.57-4.19c-1.35-1.09-2.52-2.42-3.76-3.65c-0.4-0.4-0.59-0.85-0.6-1.46c-0.01-0.9-0.14-1.82-0.37-2.69
		c-0.78-2.98-1.26-6.01-1.51-9.08c-0.09-1.08-0.25-2.16-0.38-3.25c0.14-0.01,0.22-0.04,0.26-0.01
		C885.2,160.1,888.76,162.25,891.75,165.15z M892.3,150.59c-2,0.19-4,0.29-6,0.37c-1.81,0.07-3.62,0.03-5.43,0.08
		c-0.51,0.01-0.79-0.17-0.99-0.6c-0.44-0.97-0.88-1.94-1.33-2.9c-0.92-1.96-1.85-3.92-2.79-5.87c-0.16-0.34-0.37-0.66-0.58-1.02
		c1.48-0.33,2.87-0.63,4.37-0.96c0.12,0.37,0.27,0.72,0.35,1.08c0.2,0.98,0.36,1.97,0.56,2.95c0.06,0.28,0.13,0.57,0.25,0.83
		c0.42,0.88,1.34,1.31,2.26,1.1c0.74-0.17,1.61-1.03,1.46-2.02c-0.18-1.15-0.39-2.29-0.6-3.44c-0.06-0.31-0.13-0.63-0.21-1.01
		c1.25-0.14,2.46-0.28,3.66-0.42c0.38-0.05,0.78-0.08,1.14-0.21c0.81-0.29,1.29-1.05,1.24-1.89c-0.04-0.86-0.57-1.48-1.43-1.74
		c-0.78-0.23-1.54-0.08-2.31,0.01c-0.93,0.1-1.86,0.19-2.93,0.29c-0.13-1.58-0.24-3.04-0.37-4.59c0.36,0.07,0.64,0.1,0.9,0.17
		c2.45,0.6,4.93,0.97,7.46,1.07c0.99,0.04,1.96,0.34,2.97,0.53c1.84,5.69,3.22,11.43,4,17.44
		C896.01,150.1,894.16,150.41,892.3,150.59z M868.46,126.2c0.67,0.07,1.36,0.09,2.01,0.26c0.87,0.23,1.71,0.57,2.56,0.9
		c1.75,0.67,3.49,1.36,5.41,2.11c0.19,1.93,0.39,4.01,0.6,6.16c-2.13,0.65-4.17,1.06-6.22,1.27c-1.3-1.66-2.5-3.35-3.86-4.9
		c-1.52-1.74-2.13-3.87-3.09-6.04C866.82,126.05,867.64,126.11,868.46,126.2z M867.19,120.72c1.45-1.23,2.72-2.42,4.25-3.27
		c0.81-0.45,1.71-0.76,2.57-1.13c1.48-0.65,2.95-1.3,4.47-1.96c1.7,1.14,3.3,2.47,4.81,3.98c-1.01,1.9-2.15,3.64-3.45,5.18
		c-2.59-0.29-5.12-0.57-7.65-0.86c-0.29-0.03-0.58-0.1-0.85-0.21C870.02,121.9,868.69,121.34,867.19,120.72z M901.68,131.7
		c1.81-0.34,3.62-0.73,5.45-0.99c1.7-0.25,3.41-0.34,5.12-0.53c1.31-0.15,2.62-0.37,3.93-0.54c0.27-0.03,0.57-0.02,0.82,0.08
		c0.48,0.2,0.93,0.45,1.38,0.71c1.73,1,3.52,1.89,5.19,3.03c1.7,1.16,3.6,2.04,5.37,3.11c1.89,1.13,3.73,2.33,5.59,3.51
		c0.18,0.12,0.34,0.29,0.71,0.61c-1.6,0.14-2.98,0.29-4.37,0.37c-2.32,0.13-4.65,0.24-6.98,0.32c-3.1,0.11-6.2,0.2-9.3,0.3
		c-0.59,0.02-1.09-0.13-1.57-0.59c-0.68-0.64-1.44-1.22-2.24-1.7c-2.57-1.52-4.99-3.25-7.26-5.18c-0.9-0.77-1.86-1.47-2.91-2.3
		C901.06,131.82,901.37,131.76,901.68,131.7z M897.44,98.23c1.89-2.83,3.85-5.6,6.2-8.08c0.64-0.67,1.14-1.49,1.63-2.29
		c0.22-0.36,0.46-0.62,0.85-0.73c2.02-0.57,4.05-1.15,6.08-1.7c1.68-0.45,3.38-0.89,5.07-1.3c2.77-0.67,5.54-1.32,8.32-1.96
		c0.25-0.06,0.51-0.07,0.98-0.13c-0.27,0.39-0.43,0.68-0.64,0.92c-2.36,2.66-4.72,5.33-7.12,7.97c-1.9,2.08-3.86,4.09-5.78,6.15
		c-0.57,0.61-1.17,0.98-2.08,1.02c-1.12,0.04-2.25,0.27-3.34,0.56c-2.8,0.73-5.66,1.05-8.53,1.33c-0.96,0.09-1.91,0.22-2.86,0.34
		c-0.04-0.07-0.07-0.13-0.11-0.2C896.55,99.5,897.01,98.88,897.44,98.23z M891.3,105.68c0.18-0.11,0.49-0.1,0.72-0.06
		c0.21,0.04,0.41,0.18,0.61,0.29c2.6,1.51,5.23,2.97,7.78,4.56c2,1.25,3.9,2.66,5.84,4c0.16,0.11,0.29,0.25,0.47,0.39
		c-0.09,0.16-0.15,0.31-0.24,0.43c-2.05,2.75-4.19,5.43-6.52,7.95c-1.38,1.5-2.85,2.92-4.24,4.41c-0.49,0.53-0.96,0.58-1.63,0.41
		c-1.23-0.32-2.35-0.9-3.5-1.38c-1.94-0.82-3.92-1.51-5.96-2.03c-0.12-0.03-0.24-0.09-0.45-0.17c0.84-1.31,1.62-2.52,2.47-3.83
		c0.86,0.58,1.64,1.09,2.41,1.61c0.46,0.3,0.89,0.64,1.37,0.91c1.03,0.57,2.16,0.31,2.74-0.59c0.59-0.91,0.36-2.02-0.62-2.73
		c-1.13-0.81-2.29-1.57-3.47-2.38c0.81-1,1.62-1.96,2.37-2.96c0.32-0.43,0.63-0.93,0.72-1.44c0.16-0.86-0.32-1.57-1.11-1.97
		c-0.67-0.34-1.55-0.22-2.16,0.36c-0.44,0.42-0.8,0.93-1.2,1.4c-0.62,0.74-1.23,1.48-1.89,2.27c-1.2-1.03-2.3-1.97-3.48-2.98
		c0.4-0.25,0.75-0.45,1.09-0.67c1.98-1.29,3.89-2.66,5.63-4.28C889.72,106.6,890.54,106.15,891.3,105.68z M880.37,85.4
		c2.42-0.56,4.89-0.93,7.34-1.37c0.15-0.03,0.31-0.03,0.53-0.06c0.06,0.21,0.12,0.39,0.15,0.57c0.48,3.2,0.83,6.42,0.97,9.65
		c0.1,2.2,0.08,4.4,0.15,6.59c0.02,0.72-0.24,1.16-0.88,1.44c-1.39,0.6-2.79,1.18-4.16,1.83c-1.61,0.76-3.18,1.58-4.77,2.38
		c-0.17,0.09-0.34,0.18-0.59,0.31c-0.33-1.51-0.64-2.89-0.98-4.41c0.7-0.17,1.38-0.36,2.06-0.51c0.79-0.17,1.6-0.26,2.38-0.45
		c0.96-0.24,1.57-0.99,1.58-1.84c0.02-1.33-0.99-2.21-2.36-2.01c-1.12,0.17-2.23,0.41-3.34,0.62c-0.25,0.05-0.51,0.1-0.83,0.17
		c-0.13-1.2-0.26-2.38-0.4-3.56c-0.04-0.35-0.06-0.71-0.15-1.05c-0.25-0.91-1.05-1.48-1.95-1.44c-0.87,0.04-1.64,0.61-1.77,1.51
		c-0.1,0.72-0.02,1.47,0.03,2.21c0.07,0.96,0.18,1.91,0.28,2.96c-1.58,0.12-3.01,0.23-4.54,0.35c0.06-0.34,0.09-0.62,0.16-0.88
		c0.55-2.17,0.87-4.38,1.01-6.6c0.07-1.07,0.25-2.11,0.43-3.15c0.09-0.55,0.37-0.83,0.91-0.97
		C874.55,86.93,877.44,86.07,880.37,85.4z M868.37,64.41c1.23-1.9,2.12-3.99,3.43-5.86c1.2-1.71,2.07-3.65,3.16-5.45
		c1.27-2.1,2.6-4.16,3.91-6.24c0.07,0.01,0.14,0.02,0.22,0.02c0.06,0.32,0.15,0.64,0.17,0.96c0.22,3.62,0.45,7.23,0.62,10.85
		c0.13,2.74,0.15,5.49,0.25,8.23c0.03,0.83-0.1,1.52-0.73,2.18c-0.75,0.79-1.37,1.73-1.92,2.67c-1.39,2.35-3.03,4.51-4.77,6.61
		c-0.76,0.91-1.48,1.87-2.35,2.97c-0.64-4.24-1.7-8.2-1.74-12.31c-0.01-0.99-0.19-2.01-0.45-2.97
		C867.99,65.44,868.05,64.91,868.37,64.41z M864.91,111.42c0.24-1.15,0.79-2.25,1.22-3.36c0.57-1.47,1.16-2.93,1.82-4.59
		c1.98-0.19,4.03-0.38,6.12-0.58c0.67,2.11,1.06,4.16,1.28,6.21c-2.05,1.61-4.02,3.28-6.13,4.76c-1.06,0.75-2.37,1.16-3.57,1.71
		c-0.37,0.17-0.77,0.27-1.27,0.43C864.56,114.4,864.61,112.88,864.91,111.42z M859.26,133.81c0.03-0.29,0.09-0.58,0.2-0.85
		c0.55-1.37,1.12-2.73,1.73-4.23c0.52,0.61,0.95,1.16,1.43,1.66c1.54,1.6,2.33,3.62,3.18,5.61c0.56,1.31,1.14,2.6,1.76,3.99
		c-1.06,1.7-2.45,3.25-3.95,4.83c-1.88-0.97-3.6-2.14-5.2-3.43C858.7,138.8,858.98,136.3,859.26,133.81z M853.8,155.85
		c0.33-1.29,0.9-2.48,1.42-3.7c0.83-1.93,1.52-3.91,2.03-5.95c0.04-0.15,0.11-0.28,0.19-0.47c1.27,0.81,2.49,1.59,3.82,2.44
		c-0.55,0.84-1.06,1.62-1.57,2.39c-0.3,0.46-0.64,0.9-0.91,1.37c-0.59,1.02-0.37,2.24,0.52,2.75c0.92,0.52,1.96,0.56,2.8-0.64
		c0.78-1.11,1.53-2.24,2.34-3.42c0.94,0.75,1.86,1.49,2.78,2.23c0.23,0.18,0.44,0.38,0.69,0.54c0.87,0.56,1.92,0.44,2.57-0.28
		c0.68-0.75,0.71-1.87-0.01-2.65c-0.44-0.47-0.97-0.85-1.47-1.27c-0.72-0.6-1.44-1.19-2.22-1.84c1.02-1.19,1.96-2.29,2.95-3.45
		c0.17,0.23,0.32,0.42,0.45,0.63c1.36,2.17,2.86,4.23,4.6,6.12c0.59,0.63,0.98,1.44,1.48,2.16c0.28,0.4,0.09,0.75-0.09,1.09
		c-0.78,1.45-1.54,2.92-2.39,4.33c-1.11,1.86-2.24,3.71-3.44,5.52c-1.02,1.53-2.15,2.99-3.26,4.53c-0.24-0.16-0.45-0.29-0.65-0.43
		c-3-2.21-5.85-4.6-8.59-7.12c-1.26-1.16-2.44-2.41-3.68-3.6C853.75,156.76,853.67,156.39,853.8,155.85z M840.85,174.52
		c0.73-0.82,1.35-1.73,1.95-2.66c1.21-1.88,2.36-3.79,3.83-5.49c1.14-1.32,2.18-2.73,3.29-4.12c0.09,0.1,0.13,0.12,0.13,0.15
		c0.63,3.83,1.6,7.6,1.7,11.51c0.03,1.13,0.18,2.27,0.45,3.36c0.19,0.77,0.07,1.4-0.32,2c-1.2,1.88-2.1,3.93-3.39,5.77
		c-1.2,1.72-2.08,3.65-3.16,5.45c-1.13,1.88-2.34,3.73-3.52,5.58c-0.12,0.18-0.29,0.33-0.54,0.63c-0.07-0.55-0.14-0.95-0.17-1.35
		c-0.2-3.39-0.43-6.78-0.58-10.17c-0.14-3-0.18-6.01-0.27-9.01C840.23,175.54,840.39,175.03,840.85,174.52z"/>
	<path class="st0" d="M846.97,149.89c0.27-0.8,0.13-1.6,0.03-2.4c-0.11-0.87-0.27-1.74-0.17-2.7l-1.61,6.39
		C846.02,151.19,846.7,150.7,846.97,149.89z"/>
	<g>
		<path class="st0" d="M459.45,49.3c-0.87,0.59-1.64,1.07-2.38,1.61c-0.5,0.36-1.07,0.39-1.47-0.03c-0.41-0.43-0.4-1.07,0.05-1.5
			c0.21-0.2,0.45-0.36,0.69-0.52c0.89-0.59,1.78-1.18,2.68-1.76c0.22-0.14,0.34-0.29,0.33-0.57c-0.04-0.9-0.05-1.79-0.07-2.69
			c0-0.07-0.01-0.13-0.02-0.23c-0.29-0.05-0.53,0.08-0.77,0.16c-0.9,0.29-1.79,0.63-2.71,0.86c-0.77,0.19-1.44-0.13-1.91-0.76
			c-0.21-0.28-0.35-0.61-0.51-0.93c-0.33-0.65-0.64-1.31-0.96-1.96c-0.06-0.12-0.15-0.21-0.27-0.36c-0.25,0.25-0.47,0.48-0.7,0.7
			c-0.45,0.43-0.9,0.87-1.37,1.29c-0.23,0.2-0.31,0.42-0.25,0.72c0.21,0.96,0.4,1.92,0.6,2.88c0.06,0.3,0.11,0.6,0.16,0.9
			c0.1,0.65-0.32,1.21-0.94,1.27c-0.59,0.06-1.04-0.39-1.14-1.05c-0.13-0.88-0.33-1.76-0.51-2.71c-0.15,0.12-0.26,0.19-0.34,0.28
			c-1.11,1.13-2.21,2.25-3.31,3.38c-0.16,0.17-0.3,0.37-0.41,0.57c-0.06,0.11-0.09,0.26-0.07,0.38c0.12,0.96,0.26,1.91,0.4,2.86
			c0.14,0.95,0.29,1.9,0.44,2.86c0.09,0.57-0.32,1.17-0.86,1.25c-0.61,0.1-1.12-0.25-1.22-0.87c-0.12-0.72-0.2-1.44-0.3-2.16
			c-0.12-0.89-0.25-1.78-0.37-2.66c-0.06-0.42-0.1-0.83-0.16-1.27c-0.33-0.05-0.63-0.11-0.93-0.15c-1.39-0.19-2.78-0.38-4.17-0.57
			c-0.33-0.05-0.67-0.07-1-0.14c-0.64-0.13-1-0.63-0.89-1.2c0.11-0.58,0.68-0.95,1.31-0.86c0.5,0.08,1,0.17,1.5,0.24
			c1.36,0.19,2.71,0.37,4.07,0.57c0.25,0.04,0.47-0.01,0.67-0.16c0.13-0.1,0.28-0.2,0.4-0.31c1.12-1.09,2.23-2.18,3.35-3.27
			c0.09-0.09,0.18-0.2,0.32-0.36c-0.36-0.07-0.67-0.14-0.97-0.2c-0.65-0.13-1.29-0.25-1.94-0.37c-0.49-0.09-0.9-0.57-0.87-1.05
			c0.04-0.52,0.47-0.99,0.99-1c0.37,0,0.74,0.06,1.11,0.13c1.03,0.2,2.06,0.42,3.08,0.64c0.18,0.04,0.33,0.03,0.46-0.11
			c0.7-0.74,1.4-1.47,2.13-2.24c-0.16-0.11-0.29-0.22-0.43-0.29c-0.7-0.34-1.4-0.67-2.11-1c-0.69-0.32-1.24-0.77-1.44-1.54
			c-0.15-0.57,0.01-1.11,0.19-1.64c0.26-0.73,0.52-1.47,0.77-2.2c0.04-0.12,0.05-0.26,0.09-0.43c-0.13-0.02-0.24-0.05-0.35-0.05
			c-0.86-0.01-1.73-0.01-2.59-0.04c-0.27-0.01-0.44,0.07-0.59,0.3c-0.57,0.88-1.15,1.76-1.73,2.63c-0.17,0.25-0.34,0.51-0.55,0.73
			c-0.42,0.45-1.08,0.46-1.5,0.07c-0.41-0.39-0.4-0.98-0.04-1.47c0.54-0.73,1.02-1.5,1.6-2.36c-0.68,0-1.24,0-1.81,0
			c-1.03,0.01-2.07,0.02-3.1,0.03c-0.12,0-0.24-0.01-0.36,0c-0.46,0.06-0.84,0.18-1.15,0.61c-1.05,1.48-2.16,2.91-3.25,4.36
			c-0.38,0.51-1.04,0.64-1.53,0.29c-0.5-0.36-0.58-0.97-0.19-1.52c0.3-0.41,0.62-0.81,0.93-1.21c0.8-1.05,1.6-2.1,2.4-3.16
			c0.11-0.15,0.22-0.3,0.33-0.46c-0.07-0.12-0.12-0.22-0.19-0.32c-1.1-1.44-2.2-2.89-3.3-4.33c-0.07-0.09-0.15-0.18-0.22-0.28
			c-0.35-0.54-0.25-1.15,0.24-1.48c0.47-0.32,1.14-0.2,1.5,0.28c0.26,0.35,0.5,0.72,0.77,1.07c0.89,1.18,1.79,2.35,2.67,3.53
			c0.26,0.35,0.64,0.36,1,0.37c0.75,0.02,1.49,0,2.24,0.01c0.83,0.01,1.66,0.04,2.49,0.07c0.13,0,0.26,0,0.46,0
			c-0.08-0.16-0.11-0.26-0.17-0.35c-0.48-0.72-0.97-1.43-1.45-2.14c-0.29-0.42-0.25-1,0.12-1.35c0.39-0.37,0.99-0.41,1.39-0.04
			c0.25,0.22,0.45,0.51,0.64,0.79c0.61,0.9,1.2,1.81,1.79,2.72c0.14,0.21,0.29,0.29,0.54,0.28c0.9-0.03,1.79-0.05,2.69-0.07
			c0.08,0,0.16-0.02,0.26-0.04c-0.03-0.17-0.04-0.32-0.09-0.46c-0.25-0.74-0.51-1.47-0.78-2.2c-0.26-0.71-0.34-1.4,0.03-2.11
			c0.28-0.54,0.78-0.79,1.28-1.04c0.7-0.35,1.41-0.67,2.11-1.01c0.13-0.06,0.24-0.17,0.41-0.29c-0.27-0.27-0.5-0.5-0.74-0.74
			c-0.42-0.44-0.85-0.88-1.25-1.33c-0.2-0.23-0.42-0.3-0.72-0.24c-1.03,0.22-2.05,0.43-3.08,0.64c-0.28,0.06-0.57,0.11-0.85,0.13
			c-0.56,0.04-1.1-0.45-1.14-1.02c-0.04-0.51,0.4-0.97,0.96-1.07c0.87-0.15,1.73-0.33,2.59-0.5c0.05-0.01,0.1-0.03,0.19-0.07
			c-0.09-0.11-0.16-0.22-0.25-0.3c-1.12-1.11-2.25-2.21-3.38-3.31c-0.17-0.16-0.37-0.3-0.58-0.41c-0.11-0.06-0.26-0.09-0.38-0.08
			c-1.91,0.27-3.81,0.55-5.72,0.84c-0.59,0.09-1.18-0.33-1.27-0.9c-0.09-0.57,0.3-1.1,0.92-1.18c1.02-0.15,2.05-0.26,3.07-0.4
			c0.99-0.14,1.97-0.29,3-0.44c0.06-0.49,0.12-0.97,0.19-1.45c0.16-1.12,0.32-2.24,0.47-3.37c0.05-0.39,0.1-0.77,0.15-1.16
			c0.09-0.68,0.62-1.11,1.23-0.99c0.6,0.11,0.96,0.71,0.86,1.35c-0.16,0.95-0.29,1.9-0.43,2.86c-0.13,0.9-0.24,1.81-0.38,2.71
			c-0.03,0.2-0.02,0.36,0.1,0.52c0.12,0.16,0.22,0.34,0.36,0.49c1.12,1.16,2.25,2.3,3.38,3.45c0.06,0.06,0.12,0.11,0.25,0.22
			c0.08-0.35,0.16-0.65,0.22-0.95c0.13-0.65,0.24-1.3,0.36-1.94c0.11-0.56,0.63-0.95,1.14-0.86c0.59,0.11,1.02,0.63,0.92,1.2
			c-0.12,0.72-0.28,1.43-0.42,2.14c-0.12,0.58-0.23,1.16-0.34,1.75c-0.03,0.18-0.08,0.37,0.09,0.52c0.74,0.7,1.47,1.39,2.25,2.13
			c0.11-0.17,0.23-0.31,0.3-0.47c0.34-0.7,0.65-1.41,1.01-2.11c0.26-0.51,0.54-0.99,1.13-1.25c0.7-0.32,1.35-0.19,2.02,0.04
			c0.73,0.26,1.47,0.52,2.2,0.77c0.13,0.04,0.26,0.05,0.43,0.09c0.02-0.13,0.04-0.24,0.04-0.35c0.03-0.86,0.04-1.73,0.07-2.59
			c0.01-0.24-0.05-0.41-0.27-0.55c-0.9-0.58-1.79-1.17-2.67-1.77c-0.27-0.18-0.54-0.36-0.77-0.58c-0.43-0.42-0.44-1.04-0.05-1.47
			c0.38-0.42,0.98-0.41,1.47-0.06c0.75,0.54,1.53,1.04,2.39,1.62c0-0.68,0.01-1.23,0-1.78c-0.02-1.1-0.04-2.2-0.07-3.3
			c-0.01-0.25-0.04-0.51-0.11-0.75c-0.04-0.15-0.14-0.31-0.26-0.4c-1.51-1.15-3.03-2.28-4.56-3.42c-0.37-0.28-0.55-0.64-0.49-1.1
			c0.05-0.41,0.29-0.68,0.66-0.83c0.39-0.15,0.74-0.05,1.05,0.19c0.73,0.55,1.45,1.12,2.18,1.67c0.8,0.61,1.59,1.21,2.39,1.81
			c0.08,0.06,0.17,0.11,0.26,0.17c0.11-0.07,0.21-0.13,0.31-0.2c1.43-1.09,2.86-2.18,4.29-3.26c0.09-0.07,0.18-0.15,0.28-0.22
			c0.54-0.36,1.14-0.28,1.49,0.2c0.36,0.48,0.24,1.15-0.27,1.53c-0.34,0.25-0.7,0.48-1.03,0.74c-1.19,0.9-2.37,1.81-3.57,2.7
			c-0.33,0.25-0.32,0.62-0.38,0.96c-0.04,0.2-0.01,0.41-0.01,0.61c-0.01,1.37-0.02,2.75-0.03,4.12c0,0.15,0.01,0.29,0.03,0.5
			c0.15-0.09,0.25-0.14,0.34-0.2c0.7-0.47,1.4-0.95,2.1-1.43c0.42-0.29,1-0.26,1.35,0.11c0.38,0.39,0.41,1.03,0.03,1.43
			c-0.22,0.23-0.49,0.42-0.75,0.6c-0.89,0.59-1.78,1.18-2.68,1.76c-0.17,0.11-0.32,0.22-0.32,0.47c0.01,1,0.01,2,0.01,3.09
			c0.34-0.09,0.59-0.15,0.84-0.23c0.85-0.28,1.69-0.6,2.55-0.84c0.9-0.25,1.72,0.09,2.18,0.89c0.44,0.76,0.8,1.57,1.2,2.35
			c0.12,0.24,0.25,0.47,0.4,0.74c0.15-0.13,0.25-0.21,0.34-0.3c0.59-0.56,1.17-1.13,1.77-1.69c0.21-0.2,0.32-0.38,0.24-0.7
			c-0.23-1.01-0.43-2.02-0.62-3.03c-0.06-0.31-0.12-0.63-0.13-0.95c-0.02-0.59,0.47-1.09,1.04-1.1c0.52-0.01,0.94,0.44,1.03,1
			c0.11,0.73,0.28,1.46,0.42,2.19c0.03,0.17,0.07,0.33,0.12,0.54c0.11-0.07,0.21-0.12,0.28-0.19c0.47-0.49,0.93-0.98,1.41-1.47
			c0.61-0.62,1.22-1.22,1.83-1.84c0.16-0.17,0.3-0.36,0.45-0.55c0.16-0.2,0.18-0.42,0.14-0.67c-0.2-1.42-0.39-2.85-0.59-4.27
			c-0.06-0.44-0.15-0.87-0.21-1.3c-0.07-0.44,0.07-0.81,0.42-1.08c0.32-0.25,0.68-0.29,1.05-0.12c0.33,0.15,0.53,0.41,0.58,0.78
			c0.09,0.65,0.18,1.31,0.27,1.96c0.18,1.32,0.36,2.65,0.54,3.97c0.01,0.05,0.03,0.09,0.07,0.19c0.45,0.06,0.91,0.13,1.37,0.19
			c1.12,0.16,2.24,0.31,3.37,0.47c0.39,0.05,0.77,0.1,1.16,0.15c0.76,0.09,1.17,0.59,1.04,1.27c-0.11,0.58-0.71,0.92-1.37,0.81
			c-0.95-0.16-1.91-0.28-2.86-0.42c-0.9-0.13-1.81-0.26-2.71-0.38c-0.14-0.02-0.3,0.01-0.43,0.08c-0.19,0.1-0.38,0.23-0.54,0.38
			c-1.16,1.12-2.31,2.25-3.46,3.38c-0.07,0.07-0.13,0.15-0.23,0.27c0.25,0.05,0.44,0.1,0.63,0.13c0.75,0.14,1.49,0.29,2.24,0.43
			c0.58,0.11,0.97,0.63,0.88,1.17c-0.1,0.58-0.64,0.99-1.23,0.89c-0.87-0.15-1.73-0.34-2.59-0.51c-0.43-0.09-0.87-0.16-1.3-0.25
			c-0.21-0.04-0.39-0.03-0.55,0.15c-0.67,0.72-1.35,1.43-2.04,2.16c0.16,0.23,0.42,0.31,0.66,0.43c0.82,0.41,1.65,0.79,2.44,1.24
			c0.72,0.41,1.08,1.25,0.86,2.05c-0.24,0.9-0.56,1.77-0.85,2.66c-0.08,0.24-0.14,0.48-0.24,0.78c0.24,0,0.41,0,0.57,0
			c0.78,0.02,1.56,0.03,2.33,0.07c0.31,0.02,0.5-0.08,0.67-0.34c0.58-0.9,1.17-1.79,1.76-2.68c0.15-0.23,0.31-0.45,0.49-0.65
			c0.43-0.46,1.05-0.5,1.5-0.1c0.44,0.39,0.43,0.98,0.05,1.5c-0.54,0.73-1.02,1.5-1.6,2.36c0.7,0,1.28,0.01,1.86,0
			c0.63-0.01,1.25-0.05,1.88-0.06c0.49-0.01,0.98,0,1.48,0c0.49,0,0.88-0.14,1.2-0.59c1.06-1.47,2.16-2.91,3.25-4.36
			c0.29-0.39,0.69-0.55,1.16-0.45c0.44,0.09,0.69,0.39,0.8,0.83c0.07,0.31-0.04,0.57-0.21,0.81c-0.17,0.23-0.37,0.45-0.54,0.68
			c-0.96,1.27-1.92,2.54-2.88,3.82c-0.09,0.12-0.17,0.25-0.28,0.4c0.06,0.1,0.12,0.2,0.19,0.29c1.1,1.44,2.2,2.89,3.29,4.33
			c0.08,0.11,0.17,0.21,0.25,0.32c0.31,0.5,0.22,1.07-0.21,1.41c-0.44,0.34-1.08,0.28-1.47-0.14c-0.1-0.11-0.17-0.25-0.26-0.37
			c-1.08-1.43-2.17-2.86-3.24-4.3c-0.27-0.37-0.67-0.35-1.05-0.41c-0.23-0.03-0.47-0.01-0.71-0.01c-1.34-0.01-2.68-0.02-4.02-0.03
			c-0.12,0-0.24,0.01-0.41,0.02c0.07,0.14,0.12,0.26,0.19,0.36c0.47,0.7,0.95,1.4,1.43,2.1c0.3,0.43,0.25,0.99-0.13,1.34
			c-0.38,0.36-1,0.4-1.39,0.04c-0.25-0.23-0.45-0.51-0.63-0.79c-0.6-0.89-1.18-1.78-1.77-2.67c-0.12-0.18-0.22-0.31-0.48-0.31
			c-0.97,0.03-1.93,0.03-2.9,0.05c-0.03,0-0.06,0.02-0.16,0.06c0.07,0.25,0.14,0.5,0.22,0.75c0.28,0.89,0.6,1.76,0.85,2.66
			c0.2,0.75-0.15,1.57-0.8,1.99c-0.28,0.18-0.59,0.33-0.89,0.48c-0.65,0.32-1.31,0.64-1.96,0.96c-0.12,0.06-0.21,0.15-0.34,0.25
			c0.13,0.14,0.25,0.26,0.37,0.39c0.53,0.55,1.06,1.1,1.58,1.66c0.22,0.24,0.43,0.36,0.79,0.27c0.97-0.23,1.95-0.42,2.93-0.61
			c0.33-0.07,0.67-0.12,1-0.14c0.58-0.02,1.05,0.43,1.08,1c0.03,0.56-0.4,0.98-1,1.07c-0.9,0.14-1.78,0.34-2.74,0.53
			c0.11,0.14,0.16,0.24,0.24,0.32c1.14,1.12,2.27,2.23,3.41,3.35c0.38,0.38,0.8,0.52,1.37,0.42c1.31-0.23,2.64-0.37,3.97-0.56
			c0.42-0.06,0.83-0.14,1.25-0.21c0.77-0.13,1.38,0.38,1.34,1.12c-0.03,0.44-0.3,0.81-0.76,0.9c-0.46,0.1-0.94,0.14-1.4,0.21
			c-1.47,0.2-2.95,0.4-4.42,0.6c-0.4,0.05-0.4,0.06-0.46,0.45c-0.24,1.79-0.48,3.59-0.73,5.38c-0.01,0.1-0.03,0.2-0.05,0.3
			c-0.15,0.68-0.61,1.01-1.24,0.9c-0.54-0.1-0.92-0.67-0.83-1.27c0.08-0.52,0.18-1.03,0.25-1.55c0.19-1.37,0.38-2.75,0.56-4.12
			c0.02-0.15-0.04-0.33-0.1-0.48c-0.08-0.17-0.19-0.32-0.32-0.46c-1.15-1.18-2.3-2.35-3.45-3.53c-0.06-0.06-0.13-0.1-0.25-0.19
			c-0.19,0.96-0.39,1.86-0.53,2.77c-0.09,0.57-0.49,0.99-1.03,0.99c-0.56-0.01-1.04-0.47-1.03-1.05c0.01-0.35,0.07-0.71,0.14-1.05
			c0.2-1.03,0.42-2.06,0.61-3.09c0.02-0.13,0-0.33-0.08-0.41c-0.73-0.72-1.49-1.43-2.25-2.15c-0.09,0.13-0.18,0.23-0.24,0.35
			c-0.34,0.68-0.67,1.37-1,2.06c-0.05,0.11-0.09,0.22-0.14,0.33c-0.63,1.24-1.73,1.57-2.99,1.09c-0.73-0.27-1.46-0.53-2.2-0.78
			c-0.16-0.05-0.32-0.08-0.52-0.12c-0.02,0.17-0.04,0.3-0.04,0.43c-0.01,0.83-0.02,1.66-0.04,2.49c-0.01,0.28,0.07,0.47,0.32,0.63
			c0.9,0.57,1.79,1.17,2.68,1.76c0.23,0.15,0.45,0.31,0.65,0.49c0.46,0.42,0.49,1.07,0.11,1.51c-0.39,0.45-0.98,0.43-1.5,0.05
			c-0.73-0.54-1.5-1.02-2.35-1.59c0,0.66,0,1.22,0,1.77c0.01,1.09,0.02,2.17,0.04,3.26c0,0.2,0.04,0.4,0.06,0.6
			c0.04,0.33,0.21,0.54,0.48,0.73c1.49,1.09,2.96,2.2,4.44,3.32c0.37,0.28,0.54,0.66,0.45,1.11c-0.09,0.46-0.39,0.74-0.86,0.83
			c-0.35,0.07-0.63-0.07-0.89-0.28c-0.73-0.56-1.45-1.12-2.18-1.67c-0.86-0.65-1.74-1.3-2.62-1.95c-0.1,0.07-0.21,0.12-0.3,0.19
			c-1.44,1.1-2.89,2.2-4.33,3.3c-0.31,0.24-0.62,0.49-1.05,0.41c-0.44-0.08-0.75-0.33-0.86-0.77c-0.11-0.45,0.01-0.86,0.38-1.14
			c0.89-0.68,1.79-1.34,2.69-2.01c0.67-0.5,1.33-0.99,1.99-1.5c0.11-0.08,0.19-0.23,0.23-0.37c0.06-0.24,0.1-0.5,0.11-0.75
			c0.02-0.46,0-0.92,0.01-1.37c0.02-1.03,0.04-2.07,0.07-3.1C459.46,49.77,459.45,49.6,459.45,49.3z M461.68,41.34
			c1.33,0.43,2.58,0.83,3.84,1.23c0.61-1.19,1.21-2.36,1.82-3.54c-0.95-1.24-4.86-5.11-5.64-5.58
			C461.5,36.1,461.64,38.73,461.68,41.34z M463.41,31.68c0.65,0.72,1.2,1.39,1.81,2c0.93,0.94,1.9,1.84,2.85,2.75
			c0.33,0.31,0.67,0.61,0.97,0.89c1.21-0.62,2.38-1.22,3.56-1.83c-0.41-1.28-0.82-2.55-1.24-3.84
			C468.76,31.6,466.14,31.46,463.41,31.68z M449.65,31.65c-0.42,1.31-0.82,2.57-1.23,3.84c1.2,0.62,2.37,1.22,3.59,1.85
			c1.83-1.85,3.84-3.57,5.61-5.67C454.9,31.48,452.27,31.59,449.65,31.65z M461.67,19.62c-0.02,2.63-0.18,5.25,0.04,7.96
			c2.09-1.78,3.82-3.78,5.66-5.61c-0.63-1.23-1.24-2.4-1.85-3.59C464.25,18.79,463,19.19,461.67,19.62z M449.66,29.33
			c2.62-0.04,5.25,0.19,7.96-0.05c-0.63-0.7-1.18-1.37-1.78-1.98c-0.98-0.98-1.99-1.93-3-2.89c-0.29-0.28-0.6-0.54-0.87-0.77
			c-1.21,0.63-2.38,1.23-3.55,1.83C448.83,26.75,449.23,28,449.66,29.33z M453.68,21.93c1.27,1.59,4.99,5.25,5.66,5.56
			c0.04-1.02,0.08-2.03,0.1-3.04c0.01-0.49-0.05-0.98-0.06-1.47c-0.01-0.68,0-1.36-0.01-2.03c-0.01-0.45-0.03-0.91-0.05-1.33
			c-1.3-0.42-2.57-0.82-3.83-1.23C454.89,19.57,454.3,20.73,453.68,21.93z M469.07,23.64c-2.04,1.7-5.36,5.1-5.54,5.67
			c1,0.03,2,0.09,2.99,0.1c0.78,0.01,1.55-0.04,2.33-0.06c0.46-0.01,0.92,0.01,1.37,0c0.4-0.01,0.8-0.04,1.16-0.05
			c0.24-0.74,0.46-1.43,0.69-2.12c0.15-0.47,0.31-0.93,0.48-1.39c0.09-0.24,0.03-0.39-0.2-0.49c-0.2-0.09-0.41-0.16-0.6-0.26
			C470.86,24.58,469.98,24.11,469.07,23.64z M459.32,33.37c-0.72,0.65-1.39,1.21-2.01,1.82c-0.95,0.94-1.86,1.92-2.79,2.89
			c-0.3,0.32-0.59,0.65-0.88,0.97c0.25,0.42,0.5,0.8,0.71,1.21c0.34,0.66,0.64,1.34,0.96,2.01c0.15,0.32,0.21,0.33,0.55,0.22
			c1.04-0.34,2.09-0.67,3.13-1c0.11-0.03,0.22-0.07,0.37-0.13C459.33,38.73,459.55,36.11,459.32,33.37z"/>
	</g>
	<g>
		<path class="st0" d="M87.55,87.94L67.48,104c4.34,1.26,7.54,3.4,9.61,6.41c2.07,3.02,2.8,6.69,2.2,11c-0.68,4.85-2.74,9.18-6.2,13
			s-7.89,6.83-13.31,9.03c-5.42,2.2-11.35,3.3-17.79,3.3c-5.11,0-9.84-0.64-14.17-1.93c-4.34-1.29-7.98-3.2-10.95-5.72L28,125.05
			c2.2,1.86,4.84,3.28,7.92,4.27s6.28,1.49,9.6,1.48c4.05,0,7.25-0.72,9.61-2.15c2.36-1.43,3.72-3.44,4.08-6.03
			c0.55-3.92-2.27-5.87-8.44-5.87l-8.46,0.01l4.23-12.45l16.82-13.46l-27.29,0.03l5.21-15.24l50.39-0.05L87.55,87.94z"/>
		<path class="st0" d="M89.85,139.58c-4.02-4.74-5.44-11.33-4.26-19.76c1.19-8.5,3.84-16.22,7.96-23.16
			c4.12-6.94,9.29-12.42,15.49-16.45c6.2-4.02,12.86-6.04,19.96-6.04c8.03-0.01,14.06,2.36,18.08,7.1
			c4.02,4.75,5.44,11.33,4.26,19.76c-1.19,8.5-3.84,16.22-7.96,23.16c-4.12,6.94-9.29,12.42-15.49,16.45
			c-6.21,4.02-12.86,6.04-19.96,6.04C99.89,146.69,93.87,144.32,89.85,139.58z M120.99,125.85c2.76-3.12,5.05-6.94,6.88-11.46
			c1.82-4.52,3.02-8.8,3.59-12.85c0.54-3.85,0.22-6.69-0.95-8.51c-1.17-1.82-3.05-2.74-5.64-2.73c-3.19,0-6.16,1.57-8.92,4.69
			c-2.76,3.12-5.05,6.94-6.88,11.46c-1.83,4.52-3.02,8.8-3.58,12.85c-1.05,7.5,1.15,11.25,6.59,11.25
			C115.26,130.54,118.23,128.98,120.99,125.85z"/>
		<path class="st0" d="M156.08,139.51c-4.02-4.74-5.44-11.33-4.26-19.76c1.19-8.5,3.84-16.22,7.96-23.16
			c4.12-6.94,9.29-12.42,15.49-16.45c6.2-4.02,12.86-6.04,19.96-6.04c8.03-0.01,14.06,2.36,18.08,7.1
			c4.02,4.75,5.44,11.33,4.26,19.76c-1.19,8.5-3.84,16.22-7.96,23.16c-4.12,6.94-9.29,12.42-15.49,16.45
			c-6.21,4.02-12.86,6.04-19.96,6.04C166.12,146.62,160.1,144.26,156.08,139.51z M187.22,125.79c2.76-3.12,5.05-6.94,6.88-11.46
			c1.82-4.52,3.02-8.8,3.59-12.85c0.54-3.85,0.22-6.69-0.95-8.51c-1.17-1.82-3.05-2.74-5.64-2.73c-3.19,0-6.16,1.57-8.92,4.69
			c-2.76,3.12-5.05,6.94-6.88,11.46c-1.83,4.52-3.02,8.8-3.58,12.85c-1.05,7.5,1.15,11.25,6.59,11.25
			C181.49,130.48,184.46,128.91,187.22,125.79z"/>
	</g>
	<g>
		<linearGradient id="SVGID_1_" gradientUnits="userSpaceOnUse" x1="20.2256" y1="19.748" x2="229.1729" y2="19.748">
			<stop  offset="0" style="stop-color:#E4F600"/>
			<stop  offset="0.0926" style="stop-color:#DCF200"/>
			<stop  offset="0.2386" style="stop-color:#C5E800"/>
			<stop  offset="0.419" style="stop-color:#A0D700"/>
			<stop  offset="0.4381" style="stop-color:#9CD500"/>
			<stop  offset="0.6467" style="stop-color:#95CF08"/>
			<stop  offset="0.9749" style="stop-color:#80BF1F"/>
			<stop  offset="0.9768" style="stop-color:#80BF1F"/>
			<stop  offset="1" style="stop-color:#82C01C"/>
		</linearGradient>
		<path class="st1" d="M51.05,11.44l-5.54,16.31l-4.54,0l4.28-12.66l-4.66,0l-1.31,3.57c-0.9,2.41-1.74,4.28-2.53,5.62
			c-0.79,1.34-1.65,2.3-2.56,2.88c-0.91,0.58-2,0.88-3.28,0.88c-0.71,0-1.38-0.09-2.01-0.28L30.43,24c0.18,0.05,0.38,0.07,0.6,0.07
			c0.54,0,1.04-0.19,1.5-0.58s0.92-1.02,1.38-1.9c0.46-0.88,0.98-2.09,1.55-3.62l2.44-6.5L51.05,11.44z"/>
		
			<linearGradient id="SVGID_00000065761300396848946270000015633937262735057339_" gradientUnits="userSpaceOnUse" x1="20.2256" y1="19.5957" x2="229.1729" y2="19.5957">
			<stop  offset="0" style="stop-color:#E4F600"/>
			<stop  offset="0.0926" style="stop-color:#DCF200"/>
			<stop  offset="0.2386" style="stop-color:#C5E800"/>
			<stop  offset="0.419" style="stop-color:#A0D700"/>
			<stop  offset="0.4381" style="stop-color:#9CD500"/>
			<stop  offset="0.6467" style="stop-color:#95CF08"/>
			<stop  offset="0.9749" style="stop-color:#80BF1F"/>
			<stop  offset="0.9768" style="stop-color:#80BF1F"/>
			<stop  offset="1" style="stop-color:#82C01C"/>
		</linearGradient>
		<path style="fill:url(#SVGID_00000065761300396848946270000015633937262735057339_);" d="M53.99,11.44l4.61,0l-5.54,16.31l-4.61,0
			L53.99,11.44z"/>
		
			<linearGradient id="SVGID_00000142897097926140671200000014192749754529661340_" gradientUnits="userSpaceOnUse" x1="20.2256" y1="19.5815" x2="229.1729" y2="19.5815">
			<stop  offset="0" style="stop-color:#E4F600"/>
			<stop  offset="0.0926" style="stop-color:#DCF200"/>
			<stop  offset="0.2386" style="stop-color:#C5E800"/>
			<stop  offset="0.419" style="stop-color:#A0D700"/>
			<stop  offset="0.4381" style="stop-color:#9CD500"/>
			<stop  offset="0.6467" style="stop-color:#95CF08"/>
			<stop  offset="0.9749" style="stop-color:#80BF1F"/>
			<stop  offset="0.9768" style="stop-color:#80BF1F"/>
			<stop  offset="1" style="stop-color:#82C01C"/>
		</linearGradient>
		<path style="fill:url(#SVGID_00000142897097926140671200000014192749754529661340_);" d="M80.45,11.42l-5.51,16.31l-4.24,0
			l2.88-8.62l-6.41,7.02l-2.05,0l-1.98-7.01l-2.91,8.62l-4.24,0l5.54-16.31l3.75,0l2.5,9.43l8.72-9.44L80.45,11.42z"/>
		
			<linearGradient id="SVGID_00000033328463518121461990000004400617141946637484_" gradientUnits="userSpaceOnUse" x1="20.2256" y1="19.5679" x2="229.1729" y2="19.5679">
			<stop  offset="0" style="stop-color:#E4F600"/>
			<stop  offset="0.0926" style="stop-color:#DCF200"/>
			<stop  offset="0.2386" style="stop-color:#C5E800"/>
			<stop  offset="0.419" style="stop-color:#A0D700"/>
			<stop  offset="0.4381" style="stop-color:#9CD500"/>
			<stop  offset="0.6467" style="stop-color:#95CF08"/>
			<stop  offset="0.9749" style="stop-color:#80BF1F"/>
			<stop  offset="0.9768" style="stop-color:#80BF1F"/>
			<stop  offset="1" style="stop-color:#82C01C"/>
		</linearGradient>
		<path style="fill:url(#SVGID_00000033328463518121461990000004400617141946637484_);" d="M83.39,11.41l4.61,0l-5.54,16.31l-4.61,0
			L83.39,11.41z"/>
		
			<linearGradient id="SVGID_00000047758553684215809980000010197651480195260812_" gradientUnits="userSpaceOnUse" x1="20.2256" y1="19.5547" x2="229.1729" y2="19.5547">
			<stop  offset="0" style="stop-color:#E4F600"/>
			<stop  offset="0.0926" style="stop-color:#DCF200"/>
			<stop  offset="0.2386" style="stop-color:#C5E800"/>
			<stop  offset="0.419" style="stop-color:#A0D700"/>
			<stop  offset="0.4381" style="stop-color:#9CD500"/>
			<stop  offset="0.6467" style="stop-color:#95CF08"/>
			<stop  offset="0.9749" style="stop-color:#80BF1F"/>
			<stop  offset="0.9768" style="stop-color:#80BF1F"/>
			<stop  offset="1" style="stop-color:#82C01C"/>
		</linearGradient>
		<path style="fill:url(#SVGID_00000047758553684215809980000010197651480195260812_);" d="M102.84,15.05l-5.08,0l-4.24,12.65
			l-4.54,0l4.24-12.66l-4.92,0l1.23-3.66l14.54-0.01L102.84,15.05z"/>
		
			<linearGradient id="SVGID_00000136399037191638801600000003392110461004149655_" gradientUnits="userSpaceOnUse" x1="20.2256" y1="19.541" x2="229.1729" y2="19.541">
			<stop  offset="0" style="stop-color:#E4F600"/>
			<stop  offset="0.0926" style="stop-color:#DCF200"/>
			<stop  offset="0.2386" style="stop-color:#C5E800"/>
			<stop  offset="0.419" style="stop-color:#A0D700"/>
			<stop  offset="0.4381" style="stop-color:#9CD500"/>
			<stop  offset="0.6467" style="stop-color:#95CF08"/>
			<stop  offset="0.9749" style="stop-color:#80BF1F"/>
			<stop  offset="0.9768" style="stop-color:#80BF1F"/>
			<stop  offset="1" style="stop-color:#82C01C"/>
		</linearGradient>
		<path style="fill:url(#SVGID_00000136399037191638801600000003392110461004149655_);" d="M104.43,27.12
			c-1.14-0.6-1.96-1.45-2.47-2.54c-0.51-1.09-0.66-2.33-0.47-3.73c0.26-1.86,0.93-3.54,2-5.03c1.07-1.49,2.44-2.66,4.1-3.5
			c1.66-0.84,3.48-1.26,5.45-1.26c1.65,0,3.04,0.3,4.17,0.9c1.13,0.61,1.96,1.45,2.46,2.54c0.51,1.09,0.67,2.33,0.47,3.73
			c-0.26,1.86-0.92,3.54-2,5.04c-1.07,1.49-2.44,2.66-4.1,3.5c-1.66,0.84-3.48,1.26-5.45,1.26
			C106.96,28.02,105.57,27.72,104.43,27.12z M112.34,23.43c0.85-0.51,1.54-1.2,2.08-2.06c0.54-0.86,0.88-1.81,1.03-2.85
			c0.15-1.1-0.06-1.98-0.64-2.64c-0.58-0.66-1.48-0.99-2.69-0.99c-1.03,0-1.96,0.26-2.81,0.77c-0.85,0.51-1.54,1.2-2.08,2.06
			c-0.54,0.86-0.88,1.81-1.03,2.85c-0.15,1.1,0.06,1.98,0.65,2.64c0.58,0.66,1.48,0.99,2.69,0.99
			C110.56,24.2,111.5,23.94,112.34,23.43z"/>
		
			<linearGradient id="SVGID_00000011030647945791032190000003375903704329049526_" gradientUnits="userSpaceOnUse" x1="20.2256" y1="19.5264" x2="229.1729" y2="19.5264">
			<stop  offset="0" style="stop-color:#E4F600"/>
			<stop  offset="0.0926" style="stop-color:#DCF200"/>
			<stop  offset="0.2386" style="stop-color:#C5E800"/>
			<stop  offset="0.419" style="stop-color:#A0D700"/>
			<stop  offset="0.4381" style="stop-color:#9CD500"/>
			<stop  offset="0.6467" style="stop-color:#95CF08"/>
			<stop  offset="0.9749" style="stop-color:#80BF1F"/>
			<stop  offset="0.9768" style="stop-color:#80BF1F"/>
			<stop  offset="1" style="stop-color:#82C01C"/>
		</linearGradient>
		<path style="fill:url(#SVGID_00000011030647945791032190000003375903704329049526_);" d="M135.94,20.55c0.3,0.55,0.4,1.2,0.3,1.95
			c-0.24,1.69-1.11,2.98-2.61,3.86c-1.51,0.88-3.37,1.32-5.59,1.32l-8.97,0.01l5.54-16.31l8.25-0.01c1.83,0,3.19,0.33,4.07,0.99
			c0.88,0.66,1.23,1.6,1.06,2.83c-0.13,0.95-0.5,1.77-1.11,2.46c-0.61,0.69-1.4,1.23-2.37,1.62C135.15,19.57,135.63,20,135.94,20.55
			z M130.76,23.85c0.51-0.33,0.81-0.81,0.9-1.45c0.07-0.47-0.06-0.81-0.37-1.04c-0.31-0.22-0.76-0.34-1.35-0.34l-4.08,0l-1.11,3.31
			l4.01,0C129.58,24.35,130.25,24.18,130.76,23.85z M128.03,14.7l-1.07,3.15l3.31,0c0.82,0,1.47-0.16,1.94-0.48
			c0.47-0.32,0.75-0.78,0.83-1.39c0.12-0.85-0.47-1.28-1.75-1.28L128.03,14.7z"/>
		
			<linearGradient id="SVGID_00000040565851012123605610000008320733397845671819_" gradientUnits="userSpaceOnUse" x1="20.2256" y1="19.5093" x2="229.1729" y2="19.5093">
			<stop  offset="0" style="stop-color:#E4F600"/>
			<stop  offset="0.0926" style="stop-color:#DCF200"/>
			<stop  offset="0.2386" style="stop-color:#C5E800"/>
			<stop  offset="0.419" style="stop-color:#A0D700"/>
			<stop  offset="0.4381" style="stop-color:#9CD500"/>
			<stop  offset="0.6467" style="stop-color:#95CF08"/>
			<stop  offset="0.9749" style="stop-color:#80BF1F"/>
			<stop  offset="0.9768" style="stop-color:#80BF1F"/>
			<stop  offset="1" style="stop-color:#82C01C"/>
		</linearGradient>
		<path style="fill:url(#SVGID_00000040565851012123605610000008320733397845671819_);" d="M149.14,24.49l-6.94,0.01l-2.33,3.17
			l-4.87,0l12.74-16.32l4.54,0l1.66,16.31l-4.59,0L149.14,24.49z M148.92,21.09l-0.36-5.29l-3.86,5.29L148.92,21.09z"/>
		
			<linearGradient id="SVGID_00000032621922006827932250000003617890524920231839_" gradientUnits="userSpaceOnUse" x1="20.2256" y1="19.4878" x2="229.1729" y2="19.4878">
			<stop  offset="0" style="stop-color:#E4F600"/>
			<stop  offset="0.0926" style="stop-color:#DCF200"/>
			<stop  offset="0.2386" style="stop-color:#C5E800"/>
			<stop  offset="0.419" style="stop-color:#A0D700"/>
			<stop  offset="0.4381" style="stop-color:#9CD500"/>
			<stop  offset="0.6467" style="stop-color:#95CF08"/>
			<stop  offset="0.9749" style="stop-color:#80BF1F"/>
			<stop  offset="0.9768" style="stop-color:#80BF1F"/>
			<stop  offset="1" style="stop-color:#82C01C"/>
		</linearGradient>
		<path style="fill:url(#SVGID_00000032621922006827932250000003617890524920231839_);" d="M176.39,11.32l-5.54,16.31l-4.61,0
			l2.14-6.34l-6.27,0.01l-2.14,6.34l-4.61,0l5.54-16.31l4.61,0l-2.06,6.11l6.27-0.01l2.06-6.11L176.39,11.32z"/>
		
			<linearGradient id="SVGID_00000107583317463784948440000014222125494849422246_" gradientUnits="userSpaceOnUse" x1="20.2256" y1="19.4702" x2="229.1729" y2="19.4702">
			<stop  offset="0" style="stop-color:#E4F600"/>
			<stop  offset="0.0926" style="stop-color:#DCF200"/>
			<stop  offset="0.2386" style="stop-color:#C5E800"/>
			<stop  offset="0.419" style="stop-color:#A0D700"/>
			<stop  offset="0.4381" style="stop-color:#9CD500"/>
			<stop  offset="0.6467" style="stop-color:#95CF08"/>
			<stop  offset="0.9749" style="stop-color:#80BF1F"/>
			<stop  offset="0.9768" style="stop-color:#80BF1F"/>
			<stop  offset="1" style="stop-color:#82C01C"/>
		</linearGradient>
		<path style="fill:url(#SVGID_00000107583317463784948440000014222125494849422246_);" d="M179.45,11.32l4.54,0l-3.32,9.58
			l9.98-9.58l4.4,0l-5.54,16.31l-4.54,0l3.31-9.55l-9.98,9.56l-4.4,0L179.45,11.32z"/>
		
			<linearGradient id="SVGID_00000160875313756188842450000010772180378226454150_" gradientUnits="userSpaceOnUse" x1="20.2256" y1="17.0776" x2="229.1729" y2="17.0776">
			<stop  offset="0" style="stop-color:#E4F600"/>
			<stop  offset="0.0926" style="stop-color:#DCF200"/>
			<stop  offset="0.2386" style="stop-color:#C5E800"/>
			<stop  offset="0.419" style="stop-color:#A0D700"/>
			<stop  offset="0.4381" style="stop-color:#9CD500"/>
			<stop  offset="0.6467" style="stop-color:#95CF08"/>
			<stop  offset="0.9749" style="stop-color:#80BF1F"/>
			<stop  offset="0.9768" style="stop-color:#80BF1F"/>
			<stop  offset="1" style="stop-color:#82C01C"/>
		</linearGradient>
		<path style="fill:url(#SVGID_00000160875313756188842450000010772180378226454150_);" d="M198.08,11.3l4.54,0l-3.32,9.58
			l9.98-9.58l4.4,0l-5.54,16.31l-4.54,0l3.31-9.55l-9.98,9.56l-4.4,0L198.08,11.3z M202.34,7.32c0.05-0.34,0.1-0.6,0.15-0.77l2.89,0
			c-0.03,0.08-0.05,0.19-0.07,0.35c-0.06,0.44,0.03,0.76,0.28,0.98s0.63,0.33,1.14,0.32c1.15,0,1.9-0.55,2.26-1.66l2.96,0
			c-0.4,1.32-1.07,2.29-1.99,2.91c-0.92,0.62-2.17,0.93-3.74,0.94C203.35,10.39,202.06,9.37,202.34,7.32z"/>
		
			<linearGradient id="SVGID_00000000940286941312481240000010295220841254003097_" gradientUnits="userSpaceOnUse" x1="20.2256" y1="47.5244" x2="229.1729" y2="47.5244">
			<stop  offset="0" style="stop-color:#E4F600"/>
			<stop  offset="0.0926" style="stop-color:#DCF200"/>
			<stop  offset="0.2386" style="stop-color:#C5E800"/>
			<stop  offset="0.419" style="stop-color:#A0D700"/>
			<stop  offset="0.4381" style="stop-color:#9CD500"/>
			<stop  offset="0.6467" style="stop-color:#95CF08"/>
			<stop  offset="0.9749" style="stop-color:#80BF1F"/>
			<stop  offset="0.9768" style="stop-color:#80BF1F"/>
			<stop  offset="1" style="stop-color:#82C01C"/>
		</linearGradient>
		<path style="fill:url(#SVGID_00000000940286941312481240000010295220841254003097_);" d="M89.29,43.02l-5.08,0l-4.24,12.66
			l-4.54,0l4.24-12.65l-4.92,0l1.23-3.66l14.54-0.01L89.29,43.02z"/>
		
			<linearGradient id="SVGID_00000091720439589155696770000003667453541799028127_" gradientUnits="userSpaceOnUse" x1="20.2256" y1="47.5151" x2="229.1729" y2="47.5151">
			<stop  offset="0" style="stop-color:#E4F600"/>
			<stop  offset="0.0926" style="stop-color:#DCF200"/>
			<stop  offset="0.2386" style="stop-color:#C5E800"/>
			<stop  offset="0.419" style="stop-color:#A0D700"/>
			<stop  offset="0.4381" style="stop-color:#9CD500"/>
			<stop  offset="0.6467" style="stop-color:#95CF08"/>
			<stop  offset="0.9749" style="stop-color:#80BF1F"/>
			<stop  offset="0.9768" style="stop-color:#80BF1F"/>
			<stop  offset="1" style="stop-color:#82C01C"/>
		</linearGradient>
		<path style="fill:url(#SVGID_00000091720439589155696770000003667453541799028127_);" d="M98.33,52.5l-6.94,0.01l-2.33,3.17
			l-4.87,0l12.74-16.32l4.54,0l1.66,16.31l-4.59,0L98.33,52.5z M98.11,49.09l-0.36-5.29l-3.86,5.29L98.11,49.09z"/>
		
			<linearGradient id="SVGID_00000174602346948150580020000015163978128333275839_" gradientUnits="userSpaceOnUse" x1="20.2256" y1="47.4985" x2="229.1729" y2="47.4985">
			<stop  offset="0" style="stop-color:#E4F600"/>
			<stop  offset="0.0926" style="stop-color:#DCF200"/>
			<stop  offset="0.2386" style="stop-color:#C5E800"/>
			<stop  offset="0.419" style="stop-color:#A0D700"/>
			<stop  offset="0.4381" style="stop-color:#9CD500"/>
			<stop  offset="0.6467" style="stop-color:#95CF08"/>
			<stop  offset="0.9749" style="stop-color:#80BF1F"/>
			<stop  offset="0.9768" style="stop-color:#80BF1F"/>
			<stop  offset="1" style="stop-color:#82C01C"/>
		</linearGradient>
		<path style="fill:url(#SVGID_00000174602346948150580020000015163978128333275839_);" d="M121.57,40.71
			c1.02,0.92,1.42,2.2,1.18,3.87c-0.19,1.37-0.69,2.56-1.49,3.59c-0.8,1.03-1.85,1.82-3.15,2.38c-1.3,0.56-2.75,0.84-4.37,0.84
			l-3.26,0l-1.43,4.27l-4.61,0l5.54-16.31l6.9-0.01C118.98,39.34,120.55,39.79,121.57,40.71z M116.93,47.03
			c0.62-0.48,0.99-1.17,1.11-2.05c0.09-0.67-0.06-1.17-0.45-1.5c-0.4-0.33-1.01-0.5-1.83-0.5l-2.42,0l-1.62,4.78l2.75,0
			C115.48,47.75,116.31,47.51,116.93,47.03z"/>
		
			<linearGradient id="SVGID_00000062186746798619462440000001605293755311909254_" gradientUnits="userSpaceOnUse" x1="20.2256" y1="47.478" x2="229.1729" y2="47.478">
			<stop  offset="0" style="stop-color:#E4F600"/>
			<stop  offset="0.0926" style="stop-color:#DCF200"/>
			<stop  offset="0.2386" style="stop-color:#C5E800"/>
			<stop  offset="0.419" style="stop-color:#A0D700"/>
			<stop  offset="0.4381" style="stop-color:#9CD500"/>
			<stop  offset="0.6467" style="stop-color:#95CF08"/>
			<stop  offset="0.9749" style="stop-color:#80BF1F"/>
			<stop  offset="0.9768" style="stop-color:#80BF1F"/>
			<stop  offset="1" style="stop-color:#82C01C"/>
		</linearGradient>
		<path style="fill:url(#SVGID_00000062186746798619462440000001605293755311909254_);" d="M126.56,39.33l4.54,0l-3.32,9.58
			l9.98-9.59l4.4,0l-5.54,16.31l-4.54,0l3.31-9.55l-9.98,9.56l-4.4,0L126.56,39.33z"/>
		
			<linearGradient id="SVGID_00000163785500437198612720000002623950223213550249_" gradientUnits="userSpaceOnUse" x1="20.2256" y1="47.458" x2="229.1729" y2="47.458">
			<stop  offset="0" style="stop-color:#E4F600"/>
			<stop  offset="0.0926" style="stop-color:#DCF200"/>
			<stop  offset="0.2386" style="stop-color:#C5E800"/>
			<stop  offset="0.419" style="stop-color:#A0D700"/>
			<stop  offset="0.4381" style="stop-color:#9CD500"/>
			<stop  offset="0.6467" style="stop-color:#95CF08"/>
			<stop  offset="0.9749" style="stop-color:#80BF1F"/>
			<stop  offset="0.9768" style="stop-color:#80BF1F"/>
			<stop  offset="1" style="stop-color:#82C01C"/>
		</linearGradient>
		<path style="fill:url(#SVGID_00000163785500437198612720000002623950223213550249_);" d="M161.1,50.56
			c-0.98,1.2-2.27,2.15-3.87,2.85s-3.45,1.09-5.55,1.21l-0.6,1.77l-4.24,0l0.63-1.82c-2.31-0.21-4.01-0.83-5.1-1.85
			c-1.09-1.02-1.5-2.41-1.26-4.18c0.22-1.57,0.8-2.95,1.76-4.16c0.95-1.2,2.24-2.17,3.85-2.89c1.62-0.72,3.49-1.15,5.62-1.27
			l0.56-1.68l4.24,0l-0.59,1.7c2.32,0.18,4.02,0.8,5.1,1.83c1.08,1.04,1.5,2.46,1.25,4.26C162.68,47.94,162.08,49.36,161.1,50.56z
			 M146.24,50.02c0.46,0.49,1.27,0.81,2.43,0.96l2.44-7.16c-1.67,0.19-2.94,0.62-3.81,1.29c-0.87,0.67-1.39,1.6-1.55,2.8
			C145.62,48.82,145.78,49.53,146.24,50.02z M156.69,49.75c0.89-0.68,1.41-1.61,1.58-2.81c0.13-0.95-0.03-1.67-0.5-2.17
			c-0.47-0.5-1.27-0.82-2.42-0.95L152.91,51C154.55,50.84,155.81,50.43,156.69,49.75z"/>
	</g>
	<g>
		
			<linearGradient id="SVGID_00000013900220442266615220000002687392316153576333_" gradientUnits="userSpaceOnUse" x1="769.6028" y1="2819.4551" x2="1012.8665" y2="2819.4551" gradientTransform="matrix(0.7071 0.7071 -0.7071 0.7071 1485.0326 -2495.3899)">
			<stop  offset="0" style="stop-color:#E4F600"/>
			<stop  offset="0.0926" style="stop-color:#DCF200"/>
			<stop  offset="0.2386" style="stop-color:#C5E800"/>
			<stop  offset="0.419" style="stop-color:#A0D700"/>
			<stop  offset="0.4381" style="stop-color:#9CD500"/>
			<stop  offset="0.6467" style="stop-color:#95CF08"/>
			<stop  offset="0.9749" style="stop-color:#80BF1F"/>
			<stop  offset="0.9768" style="stop-color:#80BF1F"/>
			<stop  offset="1" style="stop-color:#82C01C"/>
		</linearGradient>
		<path style="fill:url(#SVGID_00000013900220442266615220000002687392316153576333_);" d="M121.57,250.04
			c-31.15,0-62.29-11.86-86.01-35.57c-47.42-47.42-47.42-124.59,0-172.01c1.76-1.76,4.61-1.76,6.36,0c1.76,1.76,1.76,4.61,0,6.36
			c-43.92,43.91-43.92,115.37,0,159.29c43.92,43.92,115.37,43.92,159.29,0c43.92-43.92,43.92-115.37,0-159.29
			c-1.76-1.76-1.76-4.61,0-6.36c1.76-1.76,4.61-1.76,6.36,0c47.42,47.42,47.42,124.59,0,172.01
			C183.87,238.18,152.72,250.04,121.57,250.04z"/>
	</g>
	<g>
		<path class="st0" d="M87.9,175.59l-4.67,23.65h-7.46l2.36-12.22l-7.9,10.12h-3.54l-3.88-10.65l-2.53,12.74h-7.46l4.76-23.65h8.6
			l4.1,12.35L80,175.59H87.9z"/>
		<path class="st0" d="M100.64,176.48c-1.43,0.95-2.5,2.29-3.23,4.04c2.24-1.51,4.77-2.27,7.59-2.27c3.05,0,5.45,0.8,7.18,2.4
			c1.73,1.6,2.6,3.83,2.6,6.68c0,2.44-0.61,4.61-1.83,6.5c-1.22,1.89-2.95,3.37-5.17,4.43c-2.23,1.06-4.79,1.59-7.7,1.59
			c-3.87,0-6.84-1-8.92-3.01c-2.08-2.01-3.12-5.02-3.12-9.03c0-3.29,0.67-6.33,2.01-9.12c1.34-2.79,3.24-5.13,5.7-7
			c2.46-1.88,5.33-3.11,8.62-3.69l12.09-2.09l-0.13,6.94l-10.04,1.66C103.95,174.87,102.07,175.54,100.64,176.48z M97.81,185.84
			c-1.05,1.02-1.57,2.24-1.57,3.67c0,1.34,0.37,2.37,1.11,3.1c0.74,0.73,1.75,1.09,3.03,1.09c1.6,0,2.89-0.52,3.88-1.55
			c0.99-1.03,1.48-2.32,1.48-3.86c0-1.28-0.36-2.26-1.07-2.95c-0.71-0.68-1.68-1.03-2.9-1.03
			C100.18,184.32,98.85,184.83,97.81,185.84z"/>
		<path class="st0" d="M118.93,175.59h8.25l-4.71,23.65h-8.25L118.93,175.59z M120.76,171.79c-0.87-0.79-1.31-1.76-1.31-2.92
			c0-1.37,0.49-2.49,1.46-3.38c0.97-0.89,2.26-1.33,3.86-1.33c1.45,0,2.62,0.37,3.49,1.11c0.87,0.74,1.31,1.7,1.31,2.86
			c0,1.43-0.5,2.59-1.48,3.49c-0.99,0.9-2.28,1.35-3.88,1.35C122.78,172.97,121.63,172.58,120.76,171.79z"/>
		<path class="st0" d="M150.44,182.18h-7.68l-3.32,17.06h-8.29l3.32-17.06h-7.51l1.35-6.59h23.48L150.44,182.18z"/>
		<path class="st0" d="M165.14,162.5h7.64l-22.39,41.11h-7.64L165.14,162.5z"/>
		<path class="st0" d="M167.83,198.3c-1.88-0.89-3.33-2.14-4.36-3.77c-1.03-1.63-1.55-3.52-1.55-5.67c0-2.59,0.63-4.92,1.88-6.98
			s3-3.69,5.24-4.89c2.24-1.19,4.76-1.79,7.55-1.79c2.68,0,4.99,0.56,6.94,1.68c1.95,1.12,3.37,2.7,4.28,4.73l-7.07,3.36
			c-0.87-2.09-2.4-3.14-4.58-3.14c-1.69,0-3.08,0.61-4.17,1.83s-1.64,2.79-1.64,4.71c0,1.4,0.4,2.51,1.2,3.34
			c0.8,0.83,1.94,1.24,3.43,1.24c1.11,0,2.08-0.25,2.92-0.74c0.84-0.49,1.57-1.28,2.18-2.36l6.07,3.67
			c-1.13,1.92-2.73,3.42-4.78,4.5c-2.05,1.08-4.37,1.61-6.96,1.61C171.89,199.63,169.7,199.19,167.83,198.3z"/>
	</g>
</g>
</svg>
