<?xml version="1.0" encoding="utf-8"?>
<!-- Generator: Adobe Illustrator 27.9.0, SVG Export Plug-In . SVG Version: 6.00 Build 0)  -->
<svg version="1.1" id="Layer_1" xmlns="http://www.w3.org/2000/svg" xmlns:xlink="http://www.w3.org/1999/xlink" x="0px" y="0px"
	 viewBox="0 0 1100.55 250.1" style="enable-background:new 0 0 1100.55 250.1;" xml:space="preserve">
<style type="text/css">
	.st0{fill:#FFFFFF;}
	.st1{fill:url(#SVGID_1_);}
	.st2{fill:url(#SVGID_00000019647897612451767350000006472866133221416368_);}
	.st3{fill:url(#SVGID_00000156554029399674504730000014210645025808420017_);}
	.st4{fill:url(#SVGID_00000074422289244210855780000013500316679227815103_);}
	.st5{fill:url(#SVGID_00000000919899433708976100000011261509781367123129_);}
	.st6{fill:url(#SVGID_00000169521026755136865250000009843797330144546453_);}
	.st7{fill:url(#SVGID_00000010275939100466461090000008090444034540061604_);}
	.st8{fill:url(#SVGID_00000020397530896275146780000002066080723711023019_);}
	.st9{fill:url(#SVGID_00000053534487683691178600000008368660173973545383_);}
	.st10{fill:url(#SVGID_00000046303008616783761880000013911487935869207180_);}
	.st11{fill:url(#SVGID_00000083077919857120574560000009092870774951601544_);}
	.st12{fill:url(#SVGID_00000013879747675047285620000013840968732937386422_);}
	.st13{fill:url(#SVGID_00000144331713462721226760000014495495006109659523_);}
	.st14{fill:url(#SVGID_00000123411589248107460170000009109340730826332801_);}
	.st15{fill:url(#SVGID_00000007397184390155639730000000729984152284104359_);}
	.st16{fill:url(#SVGID_00000142174392205105045670000011745673489424239757_);}
	
		.st17{fill:none;stroke:url(#SVGID_00000129901524661087425680000009592122254050450056_);stroke-width:9;stroke-linecap:round;stroke-miterlimit:10;}
	.st18{fill:#282828;}
	.st19{fill:#353535;}
	.st20{fill:#434343;}
	.st21{fill:#505050;}
	.st22{fill:#5E5E5E;}
	.st23{fill:#6B6B6B;}
	.st24{fill:#787878;}
	.st25{fill:#868686;}
	.st26{fill:#939393;}
	.st27{fill:#A1A1A1;}
	.st28{fill:#AEAEAE;}
	.st29{fill:#BCBCBC;}
	.st30{fill:#C9C9C9;}
	.st31{fill:#D7D7D7;}
	.st32{fill:#E4E4E4;}
	.st33{fill:#F2F2F2;}
	.st34{fill:none;}
	.st35{fill:url(#SVGID_00000039812885997644686220000009204168117199968689_);}
	.st36{fill:url(#SVGID_00000056399024287107316690000007585090642848445839_);}
	.st37{fill:url(#SVGID_00000090252348100290657530000005552439058095869885_);}
	.st38{fill:url(#SVGID_00000052096020330315402590000006711919220862264766_);}
	.st39{fill:url(#SVGID_00000075873740316803302890000016904056201911857282_);}
	.st40{fill:url(#SVGID_00000070838422524838088850000011067368547771405744_);}
	.st41{fill:url(#SVGID_00000150077726991590621270000004562047613067279254_);}
	.st42{fill:url(#SVGID_00000080181732598600978010000008201719217926044077_);}
	.st43{fill:url(#SVGID_00000136392612689629377140000015453586083699410052_);}
	.st44{fill:url(#SVGID_00000115480349263166222440000000847886076526242945_);}
	.st45{fill:url(#SVGID_00000158002180150393702950000006687328204907501242_);}
	.st46{fill:url(#SVGID_00000116956884337477513700000000658998206108124339_);}
	.st47{fill:url(#SVGID_00000019662420432841565570000008597588874319465089_);}
	.st48{fill:url(#SVGID_00000108271632083562869190000005677825136684689599_);}
	.st49{fill:url(#SVGID_00000152226786165943805680000001789988102302354070_);}
	.st50{fill:url(#SVGID_00000095339004789285499600000014264841953076586653_);}
	.st51{fill:url(#SVGID_00000067220019935677618160000011316131929916337841_);}
</style>
<g>
	<g>
		<g>
			<path class="st0" d="M74.51,103.29c3.16,1.59,5.56,3.9,7.2,6.91c1.64,3.02,2.16,6.62,1.58,10.8c-0.72,5.18-2.62,9.71-5.68,13.6
				c-3.07,3.89-6.95,6.88-11.66,8.97c-4.71,2.1-9.88,3.15-15.53,3.15c-5.71,0.01-10.59-1.07-14.64-3.22c-4.05-2.15-7-5.35-8.87-9.6
				c-1.86-4.25-2.37-9.42-1.52-15.53c1-7.17,3.53-14.13,7.59-20.87c4.06-6.74,9.67-12.31,16.82-16.7c7.15-4.39,15.51-6.59,25.07-6.6
				c4.18,0,8.04,0.44,11.56,1.33c3.53,0.89,6.34,2.13,8.44,3.73L83.98,93.22c-3-2.25-7.13-3.38-12.38-3.38
				c-5.44,0.01-10.06,1.42-13.84,4.25c-3.78,2.83-6.67,6.63-8.66,11.41c4.08-3.06,9.04-4.59,14.88-4.59
				C67.84,100.91,71.34,101.7,74.51,103.29z M59.72,130.04c2.17-1.76,3.46-4.13,3.88-7.12c0.34-2.46-0.18-4.38-1.58-5.77
				c-1.4-1.39-3.46-2.09-6.18-2.09c-2.99,0-5.57,0.87-7.73,2.6c-2.17,1.73-3.44,3.99-3.83,6.77c-0.33,2.39,0.19,4.37,1.56,5.92
				c1.38,1.56,3.49,2.34,6.35,2.33C55.04,132.69,57.55,131.81,59.72,130.04z"/>
			<path class="st0" d="M92.2,139.58c-4.02-4.74-5.44-11.33-4.26-19.76c1.19-8.5,3.84-16.22,7.96-23.16
				c4.12-6.94,9.28-12.42,15.49-16.45c6.2-4.02,12.86-6.04,19.96-6.04c8.03-0.01,14.06,2.36,18.08,7.1
				c4.02,4.74,5.44,11.33,4.26,19.76c-1.19,8.5-3.84,16.22-7.96,23.16c-4.12,6.94-9.29,12.42-15.49,16.45
				c-6.21,4.02-12.86,6.04-19.96,6.04C102.24,146.69,96.21,144.32,92.2,139.58z M123.34,125.85c2.76-3.12,5.05-6.94,6.88-11.46
				c1.82-4.52,3.02-8.8,3.58-12.85c0.54-3.85,0.22-6.69-0.95-8.51c-1.17-1.82-3.05-2.74-5.64-2.73c-3.19,0-6.16,1.57-8.92,4.69
				c-2.76,3.12-5.05,6.94-6.88,11.46c-1.83,4.52-3.02,8.8-3.58,12.85c-1.05,7.5,1.15,11.25,6.59,11.25
				C117.6,130.54,120.58,128.98,123.34,125.85z"/>
			<path class="st0" d="M158.42,139.51c-4.02-4.74-5.44-11.33-4.26-19.76c1.19-8.5,3.84-16.22,7.96-23.16
				c4.12-6.94,9.28-12.42,15.49-16.45c6.2-4.02,12.86-6.04,19.96-6.04c8.03-0.01,14.06,2.36,18.08,7.1
				c4.02,4.74,5.44,11.33,4.26,19.76c-1.19,8.5-3.84,16.22-7.96,23.16c-4.12,6.94-9.29,12.42-15.49,16.45
				c-6.21,4.02-12.86,6.04-19.96,6.04C168.47,146.62,162.44,144.26,158.42,139.51z M189.57,125.79c2.76-3.12,5.05-6.94,6.88-11.46
				c1.82-4.52,3.02-8.8,3.58-12.85c0.54-3.85,0.22-6.69-0.95-8.51c-1.17-1.82-3.05-2.74-5.64-2.73c-3.19,0-6.16,1.57-8.92,4.69
				c-2.76,3.12-5.05,6.94-6.88,11.46c-1.83,4.52-3.02,8.8-3.58,12.85c-1.05,7.5,1.15,11.25,6.59,11.25
				C183.83,130.47,186.81,128.91,189.57,125.79z"/>
		</g>
		<g>
			<path class="st0" d="M74.51,103.29c3.16,1.59,5.56,3.9,7.2,6.91c1.64,3.02,2.16,6.62,1.58,10.8c-0.72,5.18-2.62,9.71-5.68,13.6
				c-3.07,3.89-6.95,6.88-11.66,8.97c-4.71,2.1-9.88,3.15-15.53,3.15c-5.71,0.01-10.59-1.07-14.64-3.22c-4.05-2.15-7-5.35-8.87-9.6
				c-1.86-4.25-2.37-9.42-1.52-15.53c1-7.17,3.53-14.13,7.59-20.87c4.06-6.74,9.67-12.31,16.82-16.7c7.15-4.39,15.51-6.59,25.07-6.6
				c4.18,0,8.04,0.44,11.56,1.33c3.53,0.89,6.34,2.13,8.44,3.73L83.98,93.22c-3-2.25-7.13-3.38-12.38-3.38
				c-5.44,0.01-10.06,1.42-13.84,4.25c-3.78,2.83-6.67,6.63-8.66,11.41c4.08-3.06,9.04-4.59,14.88-4.59
				C67.84,100.91,71.34,101.7,74.51,103.29z M59.72,130.04c2.17-1.76,3.46-4.13,3.88-7.12c0.34-2.46-0.18-4.38-1.58-5.77
				c-1.4-1.39-3.46-2.09-6.18-2.09c-2.99,0-5.57,0.87-7.73,2.6c-2.17,1.73-3.44,3.99-3.83,6.77c-0.33,2.39,0.19,4.37,1.56,5.92
				c1.38,1.56,3.49,2.34,6.35,2.33C55.04,132.69,57.55,131.81,59.72,130.04z"/>
			<path class="st0" d="M92.2,139.58c-4.02-4.74-5.44-11.33-4.26-19.76c1.19-8.5,3.84-16.22,7.96-23.16
				c4.12-6.94,9.28-12.42,15.49-16.45c6.2-4.02,12.86-6.04,19.96-6.04c8.03-0.01,14.06,2.36,18.08,7.1
				c4.02,4.74,5.44,11.33,4.26,19.76c-1.19,8.5-3.84,16.22-7.96,23.16c-4.12,6.94-9.29,12.42-15.49,16.45
				c-6.21,4.02-12.86,6.04-19.96,6.04C102.24,146.69,96.21,144.32,92.2,139.58z M123.34,125.85c2.76-3.12,5.05-6.94,6.88-11.46
				c1.82-4.52,3.02-8.8,3.58-12.85c0.54-3.85,0.22-6.69-0.95-8.51c-1.17-1.82-3.05-2.74-5.64-2.73c-3.19,0-6.16,1.57-8.92,4.69
				c-2.76,3.12-5.05,6.94-6.88,11.46c-1.83,4.52-3.02,8.8-3.58,12.85c-1.05,7.5,1.15,11.25,6.59,11.25
				C117.6,130.54,120.58,128.98,123.34,125.85z"/>
			<path class="st0" d="M158.42,139.51c-4.02-4.74-5.44-11.33-4.26-19.76c1.19-8.5,3.84-16.22,7.96-23.16
				c4.12-6.94,9.28-12.42,15.49-16.45c6.2-4.02,12.86-6.04,19.96-6.04c8.03-0.01,14.06,2.36,18.08,7.1
				c4.02,4.74,5.44,11.33,4.26,19.76c-1.19,8.5-3.84,16.22-7.96,23.16c-4.12,6.94-9.29,12.42-15.49,16.45
				c-6.21,4.02-12.86,6.04-19.96,6.04C168.47,146.62,162.44,144.26,158.42,139.51z M189.57,125.79c2.76-3.12,5.05-6.94,6.88-11.46
				c1.82-4.52,3.02-8.8,3.58-12.85c0.54-3.85,0.22-6.69-0.95-8.51c-1.17-1.82-3.05-2.74-5.64-2.73c-3.19,0-6.16,1.57-8.92,4.69
				c-2.76,3.12-5.05,6.94-6.88,11.46c-1.83,4.52-3.02,8.8-3.58,12.85c-1.05,7.5,1.15,11.25,6.59,11.25
				C183.83,130.47,186.81,128.91,189.57,125.79z"/>
		</g>
	</g>
	<g>
		<linearGradient id="SVGID_1_" gradientUnits="userSpaceOnUse" x1="20.2826" y1="19.7475" x2="229.2299" y2="19.7475">
			<stop  offset="0" style="stop-color:#E4F600"/>
			<stop  offset="0.0926" style="stop-color:#DCF200"/>
			<stop  offset="0.2386" style="stop-color:#C5E800"/>
			<stop  offset="0.419" style="stop-color:#A0D700"/>
			<stop  offset="0.4381" style="stop-color:#9CD500"/>
			<stop  offset="0.6467" style="stop-color:#95CF08"/>
			<stop  offset="0.9749" style="stop-color:#80BF1F"/>
			<stop  offset="0.9768" style="stop-color:#80BF1F"/>
			<stop  offset="1" style="stop-color:#82C01C"/>
		</linearGradient>
		<path class="st1" d="M51.11,11.44l-5.54,16.31l-4.54,0l4.28-12.66l-4.66,0l-1.31,3.57c-0.9,2.41-1.74,4.28-2.53,5.62
			c-0.79,1.34-1.65,2.3-2.56,2.88c-0.91,0.58-2,0.88-3.28,0.88c-0.71,0-1.38-0.09-2.01-0.28L30.49,24c0.18,0.05,0.38,0.07,0.6,0.07
			c0.54,0,1.04-0.19,1.5-0.58s0.92-1.02,1.38-1.9c0.46-0.88,0.98-2.09,1.55-3.62l2.44-6.5L51.11,11.44z"/>
		
			<linearGradient id="SVGID_00000066488011871003973270000015018991610431155073_" gradientUnits="userSpaceOnUse" x1="20.2826" y1="19.5952" x2="229.2299" y2="19.5952">
			<stop  offset="0" style="stop-color:#E4F600"/>
			<stop  offset="0.0926" style="stop-color:#DCF200"/>
			<stop  offset="0.2386" style="stop-color:#C5E800"/>
			<stop  offset="0.419" style="stop-color:#A0D700"/>
			<stop  offset="0.4381" style="stop-color:#9CD500"/>
			<stop  offset="0.6467" style="stop-color:#95CF08"/>
			<stop  offset="0.9749" style="stop-color:#80BF1F"/>
			<stop  offset="0.9768" style="stop-color:#80BF1F"/>
			<stop  offset="1" style="stop-color:#82C01C"/>
		</linearGradient>
		<path style="fill:url(#SVGID_00000066488011871003973270000015018991610431155073_);" d="M54.04,11.44l4.61,0l-5.54,16.31l-4.61,0
			L54.04,11.44z"/>
		
			<linearGradient id="SVGID_00000123404329340460116770000011624920567568588210_" gradientUnits="userSpaceOnUse" x1="20.2826" y1="19.581" x2="229.2299" y2="19.581">
			<stop  offset="0" style="stop-color:#E4F600"/>
			<stop  offset="0.0926" style="stop-color:#DCF200"/>
			<stop  offset="0.2386" style="stop-color:#C5E800"/>
			<stop  offset="0.419" style="stop-color:#A0D700"/>
			<stop  offset="0.4381" style="stop-color:#9CD500"/>
			<stop  offset="0.6467" style="stop-color:#95CF08"/>
			<stop  offset="0.9749" style="stop-color:#80BF1F"/>
			<stop  offset="0.9768" style="stop-color:#80BF1F"/>
			<stop  offset="1" style="stop-color:#82C01C"/>
		</linearGradient>
		<path style="fill:url(#SVGID_00000123404329340460116770000011624920567568588210_);" d="M80.51,11.42l-5.51,16.31l-4.24,0
			l2.88-8.62l-6.41,7.02l-2.05,0l-1.98-7.01l-2.91,8.62l-4.24,0l5.54-16.31l3.75,0l2.5,9.43l8.72-9.44L80.51,11.42z"/>
		
			<linearGradient id="SVGID_00000139255564574925917740000001184334167840947373_" gradientUnits="userSpaceOnUse" x1="20.2826" y1="19.5674" x2="229.2299" y2="19.5674">
			<stop  offset="0" style="stop-color:#E4F600"/>
			<stop  offset="0.0926" style="stop-color:#DCF200"/>
			<stop  offset="0.2386" style="stop-color:#C5E800"/>
			<stop  offset="0.419" style="stop-color:#A0D700"/>
			<stop  offset="0.4381" style="stop-color:#9CD500"/>
			<stop  offset="0.6467" style="stop-color:#95CF08"/>
			<stop  offset="0.9749" style="stop-color:#80BF1F"/>
			<stop  offset="0.9768" style="stop-color:#80BF1F"/>
			<stop  offset="1" style="stop-color:#82C01C"/>
		</linearGradient>
		<path style="fill:url(#SVGID_00000139255564574925917740000001184334167840947373_);" d="M83.45,11.41l4.61,0l-5.54,16.31l-4.61,0
			L83.45,11.41z"/>
		
			<linearGradient id="SVGID_00000026875624723266236270000015876619509890640008_" gradientUnits="userSpaceOnUse" x1="20.2826" y1="19.5542" x2="229.2299" y2="19.5542">
			<stop  offset="0" style="stop-color:#E4F600"/>
			<stop  offset="0.0926" style="stop-color:#DCF200"/>
			<stop  offset="0.2386" style="stop-color:#C5E800"/>
			<stop  offset="0.419" style="stop-color:#A0D700"/>
			<stop  offset="0.4381" style="stop-color:#9CD500"/>
			<stop  offset="0.6467" style="stop-color:#95CF08"/>
			<stop  offset="0.9749" style="stop-color:#80BF1F"/>
			<stop  offset="0.9768" style="stop-color:#80BF1F"/>
			<stop  offset="1" style="stop-color:#82C01C"/>
		</linearGradient>
		<path style="fill:url(#SVGID_00000026875624723266236270000015876619509890640008_);" d="M102.9,15.05l-5.08,0l-4.24,12.65
			l-4.54,0l4.24-12.66l-4.92,0l1.23-3.66l14.54-0.01L102.9,15.05z"/>
		
			<linearGradient id="SVGID_00000058550541248722188510000015683138282209145529_" gradientUnits="userSpaceOnUse" x1="20.2826" y1="19.5405" x2="229.2299" y2="19.5405">
			<stop  offset="0" style="stop-color:#E4F600"/>
			<stop  offset="0.0926" style="stop-color:#DCF200"/>
			<stop  offset="0.2386" style="stop-color:#C5E800"/>
			<stop  offset="0.419" style="stop-color:#A0D700"/>
			<stop  offset="0.4381" style="stop-color:#9CD500"/>
			<stop  offset="0.6467" style="stop-color:#95CF08"/>
			<stop  offset="0.9749" style="stop-color:#80BF1F"/>
			<stop  offset="0.9768" style="stop-color:#80BF1F"/>
			<stop  offset="1" style="stop-color:#82C01C"/>
		</linearGradient>
		<path style="fill:url(#SVGID_00000058550541248722188510000015683138282209145529_);" d="M104.49,27.12
			c-1.14-0.6-1.96-1.45-2.47-2.54c-0.51-1.09-0.66-2.33-0.47-3.73c0.26-1.86,0.93-3.54,2-5.03c1.07-1.49,2.44-2.66,4.1-3.5
			c1.66-0.84,3.48-1.26,5.45-1.26c1.65,0,3.04,0.3,4.17,0.9c1.13,0.61,1.96,1.45,2.46,2.54c0.51,1.09,0.67,2.33,0.47,3.73
			c-0.26,1.86-0.92,3.54-2,5.04c-1.07,1.49-2.44,2.66-4.1,3.5c-1.66,0.84-3.48,1.26-5.45,1.26
			C107.02,28.02,105.63,27.72,104.49,27.12z M112.4,23.43c0.85-0.51,1.54-1.2,2.08-2.06c0.54-0.86,0.88-1.81,1.03-2.85
			c0.15-1.1-0.06-1.98-0.64-2.64c-0.58-0.66-1.48-0.99-2.69-0.99c-1.03,0-1.96,0.26-2.81,0.77c-0.85,0.51-1.54,1.2-2.08,2.06
			c-0.54,0.86-0.88,1.81-1.03,2.85c-0.15,1.1,0.06,1.98,0.65,2.64c0.58,0.66,1.48,0.99,2.69,0.99
			C110.62,24.2,111.55,23.94,112.4,23.43z"/>
		
			<linearGradient id="SVGID_00000137832050119208662050000013665625752039509439_" gradientUnits="userSpaceOnUse" x1="20.2826" y1="19.5259" x2="229.2299" y2="19.5259">
			<stop  offset="0" style="stop-color:#E4F600"/>
			<stop  offset="0.0926" style="stop-color:#DCF200"/>
			<stop  offset="0.2386" style="stop-color:#C5E800"/>
			<stop  offset="0.419" style="stop-color:#A0D700"/>
			<stop  offset="0.4381" style="stop-color:#9CD500"/>
			<stop  offset="0.6467" style="stop-color:#95CF08"/>
			<stop  offset="0.9749" style="stop-color:#80BF1F"/>
			<stop  offset="0.9768" style="stop-color:#80BF1F"/>
			<stop  offset="1" style="stop-color:#82C01C"/>
		</linearGradient>
		<path style="fill:url(#SVGID_00000137832050119208662050000013665625752039509439_);" d="M135.99,20.55c0.3,0.55,0.4,1.2,0.3,1.95
			c-0.24,1.69-1.11,2.98-2.61,3.86c-1.51,0.88-3.37,1.32-5.59,1.32l-8.97,0.01l5.54-16.31l8.25-0.01c1.83,0,3.19,0.33,4.07,0.99
			c0.88,0.66,1.23,1.6,1.06,2.83c-0.13,0.95-0.5,1.77-1.11,2.46c-0.61,0.69-1.4,1.23-2.37,1.62C135.21,19.57,135.69,20,135.99,20.55
			z M130.81,23.85c0.51-0.33,0.81-0.81,0.9-1.45c0.07-0.47-0.06-0.81-0.37-1.04c-0.31-0.22-0.76-0.34-1.35-0.34l-4.08,0l-1.11,3.31
			l4.01,0C129.64,24.35,130.3,24.18,130.81,23.85z M128.09,14.7l-1.07,3.15l3.31,0c0.82,0,1.47-0.16,1.94-0.48
			c0.47-0.32,0.75-0.78,0.83-1.39c0.12-0.85-0.47-1.28-1.75-1.28L128.09,14.7z"/>
		
			<linearGradient id="SVGID_00000070107239905120423420000003733570249009304458_" gradientUnits="userSpaceOnUse" x1="20.2826" y1="19.5088" x2="229.2299" y2="19.5088">
			<stop  offset="0" style="stop-color:#E4F600"/>
			<stop  offset="0.0926" style="stop-color:#DCF200"/>
			<stop  offset="0.2386" style="stop-color:#C5E800"/>
			<stop  offset="0.419" style="stop-color:#A0D700"/>
			<stop  offset="0.4381" style="stop-color:#9CD500"/>
			<stop  offset="0.6467" style="stop-color:#95CF08"/>
			<stop  offset="0.9749" style="stop-color:#80BF1F"/>
			<stop  offset="0.9768" style="stop-color:#80BF1F"/>
			<stop  offset="1" style="stop-color:#82C01C"/>
		</linearGradient>
		<path style="fill:url(#SVGID_00000070107239905120423420000003733570249009304458_);" d="M149.2,24.49l-6.94,0.01l-2.33,3.17
			l-4.87,0l12.74-16.32l4.54,0L154,27.65l-4.59,0L149.2,24.49z M148.97,21.09l-0.36-5.29l-3.86,5.29L148.97,21.09z"/>
		
			<linearGradient id="SVGID_00000115481768597705369540000008020516488142054322_" gradientUnits="userSpaceOnUse" x1="20.2826" y1="19.4873" x2="229.2299" y2="19.4873">
			<stop  offset="0" style="stop-color:#E4F600"/>
			<stop  offset="0.0926" style="stop-color:#DCF200"/>
			<stop  offset="0.2386" style="stop-color:#C5E800"/>
			<stop  offset="0.419" style="stop-color:#A0D700"/>
			<stop  offset="0.4381" style="stop-color:#9CD500"/>
			<stop  offset="0.6467" style="stop-color:#95CF08"/>
			<stop  offset="0.9749" style="stop-color:#80BF1F"/>
			<stop  offset="0.9768" style="stop-color:#80BF1F"/>
			<stop  offset="1" style="stop-color:#82C01C"/>
		</linearGradient>
		<path style="fill:url(#SVGID_00000115481768597705369540000008020516488142054322_);" d="M176.45,11.32l-5.54,16.31l-4.61,0
			l2.14-6.34l-6.27,0.01l-2.14,6.34l-4.61,0l5.54-16.31l4.61,0l-2.06,6.11l6.27-0.01l2.06-6.11L176.45,11.32z"/>
		
			<linearGradient id="SVGID_00000036223230487611598410000006115016495509723542_" gradientUnits="userSpaceOnUse" x1="20.2826" y1="19.4697" x2="229.2299" y2="19.4697">
			<stop  offset="0" style="stop-color:#E4F600"/>
			<stop  offset="0.0926" style="stop-color:#DCF200"/>
			<stop  offset="0.2386" style="stop-color:#C5E800"/>
			<stop  offset="0.419" style="stop-color:#A0D700"/>
			<stop  offset="0.4381" style="stop-color:#9CD500"/>
			<stop  offset="0.6467" style="stop-color:#95CF08"/>
			<stop  offset="0.9749" style="stop-color:#80BF1F"/>
			<stop  offset="0.9768" style="stop-color:#80BF1F"/>
			<stop  offset="1" style="stop-color:#82C01C"/>
		</linearGradient>
		<path style="fill:url(#SVGID_00000036223230487611598410000006115016495509723542_);" d="M179.5,11.32l4.54,0l-3.32,9.58
			l9.98-9.58l4.4,0l-5.54,16.31l-4.54,0l3.31-9.55l-9.98,9.56l-4.4,0L179.5,11.32z"/>
		
			<linearGradient id="SVGID_00000021113204664604417300000001049397993052536478_" gradientUnits="userSpaceOnUse" x1="20.2826" y1="17.0771" x2="229.2299" y2="17.0771">
			<stop  offset="0" style="stop-color:#E4F600"/>
			<stop  offset="0.0926" style="stop-color:#DCF200"/>
			<stop  offset="0.2386" style="stop-color:#C5E800"/>
			<stop  offset="0.419" style="stop-color:#A0D700"/>
			<stop  offset="0.4381" style="stop-color:#9CD500"/>
			<stop  offset="0.6467" style="stop-color:#95CF08"/>
			<stop  offset="0.9749" style="stop-color:#80BF1F"/>
			<stop  offset="0.9768" style="stop-color:#80BF1F"/>
			<stop  offset="1" style="stop-color:#82C01C"/>
		</linearGradient>
		<path style="fill:url(#SVGID_00000021113204664604417300000001049397993052536478_);" d="M198.14,11.3l4.54,0l-3.32,9.58
			l9.98-9.58l4.4,0l-5.54,16.31l-4.54,0l3.31-9.55l-9.98,9.56l-4.4,0L198.14,11.3z M202.4,7.32c0.05-0.34,0.1-0.6,0.15-0.77l2.89,0
			c-0.03,0.08-0.05,0.19-0.07,0.35c-0.06,0.44,0.03,0.76,0.28,0.98s0.63,0.33,1.14,0.32c1.15,0,1.9-0.55,2.26-1.66l2.96,0
			c-0.4,1.32-1.07,2.29-1.99,2.91c-0.92,0.62-2.17,0.93-3.74,0.94C203.41,10.39,202.12,9.37,202.4,7.32z"/>
		
			<linearGradient id="SVGID_00000089563975426421298830000006354797507731603599_" gradientUnits="userSpaceOnUse" x1="20.2826" y1="47.5239" x2="229.2299" y2="47.5239">
			<stop  offset="0" style="stop-color:#E4F600"/>
			<stop  offset="0.0926" style="stop-color:#DCF200"/>
			<stop  offset="0.2386" style="stop-color:#C5E800"/>
			<stop  offset="0.419" style="stop-color:#A0D700"/>
			<stop  offset="0.4381" style="stop-color:#9CD500"/>
			<stop  offset="0.6467" style="stop-color:#95CF08"/>
			<stop  offset="0.9749" style="stop-color:#80BF1F"/>
			<stop  offset="0.9768" style="stop-color:#80BF1F"/>
			<stop  offset="1" style="stop-color:#82C01C"/>
		</linearGradient>
		<path style="fill:url(#SVGID_00000089563975426421298830000006354797507731603599_);" d="M89.34,43.02l-5.08,0l-4.24,12.66
			l-4.54,0l4.24-12.65l-4.92,0l1.23-3.66l14.54-0.01L89.34,43.02z"/>
		
			<linearGradient id="SVGID_00000034051289993746078020000016455505235514270392_" gradientUnits="userSpaceOnUse" x1="20.2826" y1="47.5146" x2="229.2299" y2="47.5146">
			<stop  offset="0" style="stop-color:#E4F600"/>
			<stop  offset="0.0926" style="stop-color:#DCF200"/>
			<stop  offset="0.2386" style="stop-color:#C5E800"/>
			<stop  offset="0.419" style="stop-color:#A0D700"/>
			<stop  offset="0.4381" style="stop-color:#9CD500"/>
			<stop  offset="0.6467" style="stop-color:#95CF08"/>
			<stop  offset="0.9749" style="stop-color:#80BF1F"/>
			<stop  offset="0.9768" style="stop-color:#80BF1F"/>
			<stop  offset="1" style="stop-color:#82C01C"/>
		</linearGradient>
		<path style="fill:url(#SVGID_00000034051289993746078020000016455505235514270392_);" d="M98.39,52.5l-6.94,0.01l-2.33,3.17
			l-4.87,0l12.74-16.32l4.54,0l1.66,16.31l-4.59,0L98.39,52.5z M98.16,49.09l-0.36-5.29l-3.86,5.29L98.16,49.09z"/>
		
			<linearGradient id="SVGID_00000111876860451739242470000005551265415376018111_" gradientUnits="userSpaceOnUse" x1="20.2826" y1="47.498" x2="229.2299" y2="47.498">
			<stop  offset="0" style="stop-color:#E4F600"/>
			<stop  offset="0.0926" style="stop-color:#DCF200"/>
			<stop  offset="0.2386" style="stop-color:#C5E800"/>
			<stop  offset="0.419" style="stop-color:#A0D700"/>
			<stop  offset="0.4381" style="stop-color:#9CD500"/>
			<stop  offset="0.6467" style="stop-color:#95CF08"/>
			<stop  offset="0.9749" style="stop-color:#80BF1F"/>
			<stop  offset="0.9768" style="stop-color:#80BF1F"/>
			<stop  offset="1" style="stop-color:#82C01C"/>
		</linearGradient>
		<path style="fill:url(#SVGID_00000111876860451739242470000005551265415376018111_);" d="M121.63,40.71
			c1.02,0.92,1.42,2.2,1.18,3.87c-0.19,1.37-0.69,2.56-1.49,3.59c-0.8,1.03-1.85,1.82-3.15,2.38c-1.3,0.56-2.75,0.84-4.37,0.84
			l-3.26,0l-1.43,4.27l-4.61,0l5.54-16.31l6.9-0.01C119.04,39.33,120.6,39.79,121.63,40.71z M116.98,47.03
			c0.62-0.48,0.99-1.17,1.11-2.05c0.09-0.67-0.06-1.17-0.45-1.5c-0.4-0.33-1.01-0.5-1.83-0.5l-2.42,0l-1.62,4.78l2.75,0
			C115.54,47.75,116.36,47.51,116.98,47.03z"/>
		
			<linearGradient id="SVGID_00000042735998236000874980000017229907226367845773_" gradientUnits="userSpaceOnUse" x1="20.2826" y1="47.4775" x2="229.2299" y2="47.4775">
			<stop  offset="0" style="stop-color:#E4F600"/>
			<stop  offset="0.0926" style="stop-color:#DCF200"/>
			<stop  offset="0.2386" style="stop-color:#C5E800"/>
			<stop  offset="0.419" style="stop-color:#A0D700"/>
			<stop  offset="0.4381" style="stop-color:#9CD500"/>
			<stop  offset="0.6467" style="stop-color:#95CF08"/>
			<stop  offset="0.9749" style="stop-color:#80BF1F"/>
			<stop  offset="0.9768" style="stop-color:#80BF1F"/>
			<stop  offset="1" style="stop-color:#82C01C"/>
		</linearGradient>
		<path style="fill:url(#SVGID_00000042735998236000874980000017229907226367845773_);" d="M126.62,39.33l4.54,0l-3.32,9.58
			l9.98-9.59l4.4,0l-5.54,16.31l-4.54,0l3.31-9.55l-9.98,9.56l-4.4,0L126.62,39.33z"/>
		
			<linearGradient id="SVGID_00000109711907227512233760000016858431614939259569_" gradientUnits="userSpaceOnUse" x1="20.2826" y1="47.4575" x2="229.2299" y2="47.4575">
			<stop  offset="0" style="stop-color:#E4F600"/>
			<stop  offset="0.0926" style="stop-color:#DCF200"/>
			<stop  offset="0.2386" style="stop-color:#C5E800"/>
			<stop  offset="0.419" style="stop-color:#A0D700"/>
			<stop  offset="0.4381" style="stop-color:#9CD500"/>
			<stop  offset="0.6467" style="stop-color:#95CF08"/>
			<stop  offset="0.9749" style="stop-color:#80BF1F"/>
			<stop  offset="0.9768" style="stop-color:#80BF1F"/>
			<stop  offset="1" style="stop-color:#82C01C"/>
		</linearGradient>
		<path style="fill:url(#SVGID_00000109711907227512233760000016858431614939259569_);" d="M161.16,50.56
			c-0.98,1.2-2.27,2.15-3.87,2.85s-3.45,1.09-5.55,1.21l-0.6,1.77l-4.24,0l0.63-1.82c-2.31-0.21-4.01-0.83-5.1-1.85
			c-1.09-1.02-1.5-2.41-1.26-4.18c0.22-1.57,0.8-2.95,1.76-4.16c0.95-1.2,2.24-2.17,3.85-2.89c1.62-0.72,3.49-1.15,5.62-1.27
			l0.56-1.68l4.24,0l-0.59,1.7c2.32,0.18,4.02,0.8,5.1,1.83c1.08,1.04,1.5,2.46,1.25,4.26C162.73,47.94,162.13,49.36,161.16,50.56z
			 M146.3,50.01c0.46,0.49,1.27,0.81,2.43,0.96l2.44-7.16c-1.67,0.19-2.94,0.62-3.81,1.29c-0.87,0.67-1.39,1.6-1.55,2.8
			C145.68,48.82,145.84,49.53,146.3,50.01z M156.75,49.75c0.89-0.68,1.41-1.61,1.58-2.81c0.13-0.95-0.03-1.67-0.5-2.17
			c-0.47-0.5-1.27-0.82-2.42-0.95L152.97,51C154.6,50.84,155.86,50.42,156.75,49.75z"/>
	</g>
	
		<linearGradient id="SVGID_00000103252372520720809460000009314111738258288573_" gradientUnits="userSpaceOnUse" x1="1051.7954" y1="2702.5903" x2="1295.0586" y2="2702.5903" gradientTransform="matrix(0.7071 0.7071 -0.7071 0.7071 1202.9133 -2612.2939)">
		<stop  offset="0" style="stop-color:#E4F600"/>
		<stop  offset="0.0926" style="stop-color:#DCF200"/>
		<stop  offset="0.2386" style="stop-color:#C5E800"/>
		<stop  offset="0.419" style="stop-color:#A0D700"/>
		<stop  offset="0.4381" style="stop-color:#9CD500"/>
		<stop  offset="0.6467" style="stop-color:#95CF08"/>
		<stop  offset="0.9749" style="stop-color:#80BF1F"/>
		<stop  offset="0.9768" style="stop-color:#80BF1F"/>
		<stop  offset="1" style="stop-color:#82C01C"/>
	</linearGradient>
	
		<path style="fill:none;stroke:url(#SVGID_00000103252372520720809460000009314111738258288573_);stroke-width:9;stroke-linecap:round;stroke-miterlimit:10;" d="
		M204.46,45.64c45.74,45.74,45.74,119.91,0,165.65s-119.91,45.74-165.65,0s-45.74-119.91,0-165.65"/>
	<g>
		<path class="st0" d="M87.96,175.59l-4.67,23.65h-7.46l2.36-12.22l-7.9,10.12h-3.54l-3.88-10.65l-2.53,12.74h-7.46l4.76-23.65h8.6
			l4.1,12.35l9.73-12.35H87.96z"/>
		<path class="st0" d="M100.7,176.48c-1.43,0.95-2.5,2.29-3.23,4.04c2.24-1.51,4.77-2.27,7.59-2.27c3.05,0,5.45,0.8,7.18,2.4
			c1.73,1.6,2.6,3.83,2.6,6.68c0,2.44-0.61,4.61-1.83,6.5c-1.22,1.89-2.95,3.37-5.17,4.43c-2.23,1.06-4.79,1.59-7.7,1.59
			c-3.87,0-6.84-1-8.92-3.01c-2.08-2.01-3.12-5.02-3.12-9.03c0-3.29,0.67-6.33,2.01-9.12c1.34-2.79,3.24-5.13,5.7-7
			c2.46-1.88,5.33-3.11,8.62-3.69l12.09-2.09l-0.13,6.94l-10.04,1.66C104,174.87,102.13,175.54,100.7,176.48z M97.86,185.84
			c-1.05,1.02-1.57,2.24-1.57,3.67c0,1.34,0.37,2.37,1.11,3.1c0.74,0.73,1.75,1.09,3.03,1.09c1.6,0,2.89-0.52,3.88-1.55
			c0.99-1.03,1.48-2.32,1.48-3.86c0-1.28-0.36-2.26-1.07-2.95c-0.71-0.68-1.68-1.03-2.9-1.03
			C100.23,184.32,98.91,184.83,97.86,185.84z"/>
		<path class="st0" d="M118.98,175.59h8.25l-4.71,23.65h-8.25L118.98,175.59z M120.82,171.79c-0.87-0.79-1.31-1.76-1.31-2.92
			c0-1.37,0.49-2.49,1.46-3.38c0.97-0.89,2.26-1.33,3.86-1.33c1.45,0,2.62,0.37,3.49,1.11c0.87,0.74,1.31,1.7,1.31,2.86
			c0,1.43-0.5,2.59-1.48,3.49c-0.99,0.9-2.28,1.35-3.88,1.35C122.84,172.97,121.69,172.58,120.82,171.79z"/>
		<path class="st0" d="M150.49,182.18h-7.68l-3.32,17.06h-8.29l3.32-17.06h-7.51l1.35-6.59h23.48L150.49,182.18z"/>
		<path class="st0" d="M165.2,162.5h7.64l-22.39,41.11h-7.64L165.2,162.5z"/>
		<path class="st0" d="M167.88,198.3c-1.88-0.89-3.33-2.14-4.36-3.77c-1.03-1.63-1.55-3.52-1.55-5.67c0-2.59,0.63-4.92,1.88-6.98
			s3-3.69,5.24-4.89c2.24-1.19,4.76-1.79,7.55-1.79c2.68,0,4.99,0.56,6.94,1.68c1.95,1.12,3.37,2.7,4.28,4.73l-7.07,3.36
			c-0.87-2.09-2.4-3.14-4.58-3.14c-1.69,0-3.08,0.61-4.17,1.83s-1.64,2.79-1.64,4.71c0,1.4,0.4,2.51,1.2,3.34
			c0.8,0.83,1.94,1.24,3.43,1.24c1.11,0,2.08-0.25,2.92-0.74c0.84-0.49,1.57-1.28,2.18-2.36l6.07,3.67
			c-1.13,1.92-2.73,3.42-4.78,4.5c-2.05,1.08-4.37,1.61-6.96,1.61C171.95,199.63,169.76,199.19,167.88,198.3z"/>
	</g>
	<g>
		<path class="st0" d="M994.9,119.16h-19.32l-5.5,28.29H956.4l7.89-39.22h32.78L994.9,119.16z"/>
		<path class="st0" d="M1030.54,109.72c2.53,1.42,4.57,3.49,6.12,6.19c1.54,2.7,2.32,5.86,2.32,9.48c0,4.29-0.95,8.17-2.86,11.61
			c-1.91,3.45-4.49,6.16-7.74,8.14c-3.26,1.98-6.81,2.97-10.67,2.97c-5.69,0-9.7-1.78-12.01-5.36l-3.76,18.74h-13.75l10.64-53.26
			h13.03l-0.8,3.69c3.14-2.89,6.92-4.34,11.36-4.34C1025.29,107.58,1028.01,108.29,1030.54,109.72z M1022.47,133.99
			c1.74-2.03,2.61-4.66,2.61-7.89c0-2.32-0.66-4.15-1.99-5.5c-1.33-1.35-3.15-2.03-5.46-2.03c-2.75,0-4.99,1.01-6.73,3.04
			c-1.74,2.03-2.61,4.68-2.61,7.96c0,2.32,0.66,4.14,1.99,5.46c1.33,1.33,3.15,1.99,5.46,1.99
			C1018.49,137.03,1020.73,136.02,1022.47,133.99z"/>
		<path class="st0" d="M1045.92,108.23h13.68l-2.97,14.54h14.11l2.97-14.54h13.68l-7.89,39.22h-13.68l2.75-13.75h-14.11l-2.75,13.75
			h-13.68L1045.92,108.23z"/>
		<path class="st0" d="M1086.19,145.97c-1.47-1.42-2.21-3.22-2.21-5.39c0-2.6,0.86-4.71,2.57-6.33c1.71-1.62,3.8-2.42,6.26-2.42
			c2.32,0,4.18,0.69,5.61,2.06s2.13,3.2,2.13,5.46c0,2.56-0.86,4.66-2.57,6.29c-1.71,1.64-3.78,2.46-6.19,2.46
			C1089.53,148.11,1087.66,147.39,1086.19,145.97z"/>
	</g>
	<g>
		<path class="st0" d="M310.02,94.5l-6.18,30.92h-8.61l4.77-23.98h-8.83l-1.55,6.76c-1.06,4.56-2.16,8.11-3.31,10.65
			s-2.51,4.35-4.09,5.46c-1.58,1.1-3.57,1.66-5.99,1.66c-1.35,0-2.65-0.18-3.89-0.53l1.9-7.16c0.35,0.09,0.74,0.13,1.15,0.13
			c1.03,0,1.93-0.37,2.69-1.1c0.77-0.74,1.47-1.94,2.12-3.6c0.65-1.66,1.31-3.95,1.99-6.87l2.92-12.32H310.02z"/>
		<path class="st0" d="M314.49,94.5h8.61l-3.75,18.15l16.39-18.15h8.35l-6.18,30.92h-8.61l3.75-18.11l-16.39,18.11h-8.35
			L314.49,94.5z"/>
		<path class="st0" d="M390.41,94.5l-6.18,30.92h-41.92l6.18-30.92h8.61l-4.73,23.99h8.08l4.68-23.99h8.61l-4.68,23.99h8.04
			l4.68-23.99H390.41z"/>
		<path class="st0" d="M402.08,101.26l-1.02,5.21h13.74l-1.28,6.54h-13.78l-1.1,5.65h16.21l-1.41,6.76h-24.78l6.18-30.92h24.21
			l-1.37,6.76H402.08z"/>
		<path class="st0" d="M345.58,159.02c0.75,1.13,1.13,2.42,1.13,3.87c0,2.06-0.74,3.87-2.21,5.43s-3.44,2.77-5.9,3.62
			c-2.46,0.85-5.12,1.28-7.97,1.28c-2.18,0-4.33-0.26-6.45-0.77c-2.12-0.52-4.11-1.3-5.96-2.36l3.84-6.1
			c1.27,0.71,2.66,1.25,4.17,1.63c1.52,0.38,3.01,0.57,4.48,0.57c2.09,0,3.84-0.35,5.23-1.06s2.1-1.69,2.1-2.96
			c0-1.56-1.24-2.34-3.71-2.34h-8l1.28-6.4h7.33c1.24,0,2.24-0.27,3-0.82s1.15-1.24,1.15-2.1c0-0.91-0.44-1.61-1.33-2.1
			c-0.88-0.49-2.08-0.73-3.58-0.73c-1.27,0-2.64,0.18-4.13,0.55c-1.49,0.37-2.95,0.89-4.4,1.57l-1.28-6.63
			c3.71-1.62,7.42-2.43,11.13-2.43c2.36,0,4.5,0.33,6.45,0.99c1.94,0.66,3.47,1.61,4.59,2.83c1.12,1.22,1.68,2.66,1.68,4.31
			c0,1.62-0.52,3.11-1.57,4.46c-1.04,1.36-2.45,2.39-4.22,3.09C343.79,157.02,344.83,157.88,345.58,159.02z"/>
		<path class="st0" d="M370.34,166.42h-13.16l-3.58,6.01h-9.23l19.83-30.92h8.61l7.46,30.92h-8.7L370.34,166.42z M369.01,159.97
			l-2.08-10.03l-5.92,10.03H369.01z"/>
	</g>
	<g>
		<g>
			<g>
				<g>
					<path class="st18" d="M544.31,79.56l-31.27,156.37h-44.23l24.35-122.2h-29.04l6.92-34.18H544.31z"/>
					<path class="st18" d="M689.74,206h-23.23l-6.03,29.93h-42.89l6.03-29.93h-82.66l5.58-28.82l88.02-97.62h47.58l-80.64,91.37
						h31.05l5.36-26.59h40.88l-5.36,26.59h23.46L689.74,206z"/>
					<path class="st18" d="M787.81,192.37c5.21-7,9.16-15.56,11.84-25.69c2.68-10.13,4.02-19.73,4.02-28.82c0-8.64-1.6-15-4.8-19.1
						c-3.2-4.09-7.71-6.14-13.52-6.14c-7.15,0-13.33,3.5-18.54,10.5c-5.21,7-9.16,15.56-11.84,25.69
						c-2.68,10.13-4.02,19.74-4.02,28.82c0,16.83,6.1,25.24,18.32,25.24C776.42,202.87,782.59,199.38,787.81,192.37z M722.24,223.09
						c-10.5-10.65-15.75-25.43-15.75-44.34c0-19.06,3.54-36.37,10.61-51.94c7.07-15.56,16.94-27.85,29.6-36.86
						c12.66-9.01,26.95-13.52,42.89-13.52c18.02,0,32.28,5.33,42.78,15.97c10.5,10.65,15.75,25.43,15.75,44.34
						c0,19.07-3.54,36.38-10.61,51.94c-7.07,15.57-16.94,27.85-29.6,36.86c-12.66,9.01-26.96,13.52-42.89,13.52
						C747,239.06,732.74,233.74,722.24,223.09z"/>
				</g>
				<g>
					<polygon class="st19" points="544.47,76.33 512.96,233.9 468.39,233.9 492.93,110.77 463.66,110.77 470.64,76.33 					"/>
					<polygon class="st19" points="691.01,203.74 667.6,203.74 661.52,233.9 618.31,233.9 624.38,203.74 541.1,203.74 546.72,174.7 
						635.41,76.33 683.36,76.33 602.1,168.4 633.39,168.4 638.79,141.61 679.98,141.61 674.58,168.4 698.22,168.4 					"/>
					<path class="st19" d="M789.83,190.01c5.25-7.05,9.23-15.68,11.93-25.89c2.7-10.2,4.05-19.88,4.05-29.04
						c0-8.7-1.61-15.12-4.84-19.25c-3.23-4.12-7.76-6.19-13.62-6.19c-7.2,0-13.43,3.53-18.68,10.58
						c-5.25,7.05-9.23,15.68-11.93,25.88c-2.7,10.21-4.05,19.89-4.05,29.04c0,16.96,6.15,25.43,18.46,25.43
						C778.35,200.59,784.57,197.06,789.83,190.01z M723.76,220.96c-10.58-10.73-15.87-25.62-15.87-44.68
						c0-19.21,3.56-36.65,10.69-52.33c7.13-15.68,17.07-28.06,29.83-37.14c12.75-9.08,27.16-13.62,43.22-13.62
						c18.16,0,32.53,5.37,43.11,16.09c10.58,10.73,15.87,25.63,15.87,44.68c0,19.21-3.57,36.65-10.69,52.33
						c-7.13,15.68-17.07,28.06-29.82,37.14c-12.76,9.08-27.16,13.62-43.22,13.62C748.71,237.05,734.34,231.69,723.76,220.96z"/>
				</g>
				<g>
					<polygon class="st20" points="544.63,73.11 512.88,231.87 467.98,231.87 492.7,107.81 463.21,107.81 470.24,73.11 					"/>
					<polygon class="st20" points="692.28,201.48 668.7,201.48 662.57,231.87 619.03,231.87 625.15,201.48 541.23,201.48 
						546.9,172.22 636.26,73.11 684.57,73.11 602.7,165.87 634.22,165.87 639.66,138.88 681.17,138.88 675.73,165.87 699.54,165.87 
											"/>
					<path class="st20" d="M791.85,187.64c5.29-7.11,9.3-15.8,12.02-26.08c2.72-10.28,4.08-20.03,4.08-29.26
						c0-8.77-1.63-15.23-4.88-19.39c-3.25-4.16-7.82-6.24-13.72-6.24c-7.26,0-13.53,3.55-18.82,10.66
						c-5.29,7.11-9.3,15.8-12.02,26.08c-2.72,10.28-4.08,20.04-4.08,29.26c0,17.09,6.2,25.63,18.6,25.63
						C780.28,198.3,786.55,194.75,791.85,187.64z M725.28,218.83c-10.66-10.81-15.99-25.82-15.99-45.02
						c0-19.35,3.59-36.93,10.77-52.73c7.18-15.8,17.2-28.27,30.05-37.42c12.85-9.15,27.37-13.72,43.55-13.72
						c18.29,0,32.77,5.41,43.43,16.22c10.66,10.81,15.99,25.82,15.99,45.02c0,19.36-3.59,36.93-10.77,52.73
						c-7.18,15.8-17.2,28.28-30.05,37.42c-12.85,9.15-27.37,13.72-43.55,13.72C750.42,235.05,735.94,229.64,725.28,218.83z"/>
				</g>
				<g>
					<polygon class="st21" points="544.8,69.88 512.81,229.84 467.56,229.84 492.47,104.84 462.76,104.84 469.84,69.88 					"/>
					<polygon class="st21" points="693.55,199.22 669.79,199.22 663.62,229.84 619.75,229.84 625.92,199.22 541.37,199.22 
						547.08,169.74 637.11,69.88 685.79,69.88 603.29,163.34 635.06,163.34 640.54,136.15 682.36,136.15 676.87,163.34 
						700.87,163.34 					"/>
					<path class="st21" d="M793.87,185.28c5.33-7.16,9.37-15.92,12.11-26.28c2.74-10.36,4.11-20.18,4.11-29.48
						c0-8.83-1.64-15.35-4.91-19.54c-3.28-4.19-7.88-6.28-13.82-6.28c-7.31,0-13.63,3.58-18.96,10.74
						c-5.33,7.16-9.37,15.92-12.11,26.28c-2.74,10.36-4.11,20.19-4.11,29.48c0,17.22,6.24,25.82,18.74,25.82
						C782.21,196.02,788.53,192.44,793.87,185.28z M726.8,216.7c-10.74-10.89-16.11-26.01-16.11-45.36
						c0-19.5,3.62-37.21,10.85-53.13c7.23-15.92,17.33-28.48,30.28-37.7c12.95-9.22,27.57-13.82,43.87-13.82
						c18.43,0,33.02,5.45,43.76,16.34c10.74,10.89,16.11,26.01,16.11,45.36c0,19.5-3.62,37.21-10.85,53.13
						c-7.24,15.92-17.33,28.49-30.28,37.71c-12.95,9.22-27.58,13.82-43.88,13.82C752.13,233.04,737.54,227.59,726.8,216.7z"/>
				</g>
				<g>
					<polygon class="st22" points="544.96,66.65 512.73,227.8 467.14,227.8 492.24,101.88 462.31,101.88 469.45,66.65 					"/>
					<polygon class="st22" points="694.82,196.96 670.88,196.96 664.67,227.8 620.47,227.8 626.68,196.96 541.5,196.96 
						547.26,167.26 637.96,66.65 687,66.65 603.89,160.81 635.89,160.81 641.41,133.42 683.54,133.42 678.02,160.81 702.19,160.81 
											"/>
					<path class="st22" d="M795.89,182.91c5.37-7.21,9.44-16.04,12.2-26.48c2.76-10.44,4.14-20.33,4.14-29.7
						c0-8.9-1.65-15.46-4.95-19.68c-3.3-4.22-7.94-6.33-13.93-6.33c-7.37,0-13.74,3.61-19.11,10.82
						c-5.37,7.22-9.44,16.04-12.2,26.47c-2.76,10.44-4.15,20.34-4.15,29.7c0,17.34,6.29,26.01,18.88,26.01
						C784.15,193.73,790.51,190.13,795.89,182.91z M728.32,214.57c-10.82-10.97-16.23-26.2-16.23-45.7
						c0-19.64,3.64-37.48,10.93-53.52c7.29-16.04,17.46-28.7,30.5-37.98c13.04-9.28,27.78-13.93,44.2-13.93
						c18.57,0,33.27,5.49,44.09,16.46c10.82,10.98,16.23,26.21,16.23,45.7c0,19.65-3.65,37.49-10.94,53.52
						c-7.29,16.04-17.46,28.7-30.5,37.99c-13.05,9.29-27.78,13.93-44.2,13.93C753.84,231.03,739.14,225.54,728.32,214.57z"/>
				</g>
				<g>
					<polygon class="st23" points="545.12,63.43 512.65,225.77 466.73,225.77 492.01,98.91 461.86,98.91 469.05,63.43 					"/>
					<polygon class="st23" points="696.1,194.69 671.98,194.69 665.71,225.77 621.19,225.77 627.45,194.69 541.64,194.69 
						547.44,164.78 638.81,63.43 688.21,63.43 604.49,158.28 636.73,158.28 642.29,130.68 684.73,130.68 679.17,158.28 
						703.52,158.28 					"/>
					<path class="st23" d="M797.91,180.55c5.41-7.27,9.51-16.16,12.29-26.67c2.78-10.51,4.17-20.48,4.17-29.92
						c0-8.97-1.66-15.58-4.99-19.83c-3.33-4.25-8-6.38-14.03-6.38c-7.42,0-13.84,3.63-19.25,10.9c-5.41,7.27-9.51,16.16-12.29,26.67
						c-2.78,10.52-4.18,20.49-4.18,29.92c0,17.47,6.34,26.21,19.02,26.21C786.08,191.45,792.49,187.82,797.91,180.55z
						 M729.84,212.44c-10.9-11.05-16.35-26.4-16.35-46.04c0-19.79,3.67-37.76,11.01-53.92c7.34-16.16,17.59-28.91,30.73-38.27
						c13.14-9.35,27.98-14.03,44.53-14.03c18.71,0,33.51,5.53,44.41,16.58c10.9,11.06,16.35,26.4,16.35,46.04
						c0,19.79-3.67,37.77-11.02,53.92c-7.34,16.16-17.59,28.91-30.73,38.27c-13.14,9.35-27.99,14.03-44.53,14.03
						C755.54,229.02,740.74,223.49,729.84,212.44z"/>
				</g>
				<g>
					<polygon class="st24" points="545.28,60.2 512.57,223.74 466.31,223.74 491.78,95.95 461.41,95.95 468.65,60.2 					"/>
					<polygon class="st24" points="697.37,192.43 673.07,192.43 666.76,223.74 621.91,223.74 628.21,192.43 541.77,192.43 
						547.61,162.3 639.66,60.2 689.42,60.2 605.09,155.75 637.56,155.75 643.17,127.95 685.92,127.95 680.31,155.75 704.84,155.75 
											"/>
					<path class="st24" d="M799.93,178.18c5.45-7.32,9.58-16.27,12.38-26.87c2.8-10.59,4.2-20.64,4.2-30.14
						c0-9.03-1.68-15.69-5.02-19.98c-3.35-4.28-8.06-6.42-14.13-6.42c-7.47,0-13.94,3.66-19.39,10.98
						c-5.45,7.32-9.58,16.28-12.38,26.87c-2.8,10.59-4.21,20.64-4.21,30.14c0,17.6,6.38,26.4,19.16,26.4
						C788.01,189.16,794.47,185.5,799.93,178.18z M731.36,210.31c-10.98-11.13-16.47-26.59-16.47-46.38
						c0-19.93,3.7-38.04,11.1-54.32c7.4-16.27,17.72-29.12,30.96-38.55c13.24-9.42,28.19-14.13,44.86-14.13
						c18.84,0,33.76,5.57,44.74,16.7c10.98,11.14,16.47,26.6,16.47,46.38c0,19.94-3.7,38.04-11.1,54.32
						c-7.4,16.28-17.72,29.13-30.95,38.55c-13.24,9.42-28.19,14.13-44.86,14.13C757.25,227.01,742.34,221.44,731.36,210.31z"/>
				</g>
				<g>
					<polygon class="st25" points="545.44,56.97 512.49,221.71 465.9,221.71 491.55,92.98 460.95,92.98 468.25,56.97 					"/>
					<polygon class="st25" points="698.64,190.17 674.16,190.17 667.81,221.71 622.63,221.71 628.98,190.17 541.91,190.17 
						547.79,159.82 640.51,56.97 690.64,56.97 605.68,153.23 638.39,153.23 644.04,125.22 687.11,125.22 681.46,153.23 
						706.17,153.23 					"/>
					<path class="st25" d="M801.95,175.82c5.49-7.37,9.65-16.39,12.47-27.06c2.82-10.67,4.24-20.79,4.24-30.36
						c0-9.1-1.69-15.8-5.06-20.12c-3.37-4.31-8.12-6.47-14.24-6.47c-7.53,0-14.04,3.69-19.53,11.06
						c-5.49,7.38-9.65,16.39-12.47,27.06c-2.82,10.67-4.24,20.79-4.24,30.36c0,17.73,6.43,26.59,19.3,26.59
						C789.95,186.88,796.45,183.19,801.95,175.82z M732.88,208.17c-11.06-11.21-16.59-26.79-16.59-46.71
						c0-20.08,3.72-38.32,11.18-54.71c7.45-16.39,17.85-29.33,31.18-38.83c13.33-9.49,28.39-14.24,45.18-14.24
						c18.98,0,34,5.61,45.07,16.83c11.06,11.22,16.59,26.79,16.59,46.71c0,20.08-3.73,38.32-11.18,54.71
						c-7.45,16.4-17.85,29.34-31.18,38.83c-13.34,9.49-28.4,14.24-45.19,14.24C758.96,225,743.94,219.39,732.88,208.17z"/>
				</g>
				<g>
					<polygon class="st26" points="545.6,53.75 512.41,219.67 465.48,219.67 491.32,90.01 460.5,90.01 467.85,53.75 					"/>
					<polygon class="st26" points="699.91,187.91 675.26,187.91 668.86,219.67 623.35,219.67 629.75,187.91 542.04,187.91 
						547.97,157.33 641.36,53.75 691.85,53.75 606.28,150.7 639.23,150.7 644.92,122.49 688.29,122.49 682.6,150.7 707.49,150.7 
											"/>
					<path class="st26" d="M803.97,173.45c5.53-7.43,9.72-16.51,12.56-27.26c2.84-10.74,4.27-20.94,4.27-30.58
						c0-9.16-1.7-15.92-5.1-20.27c-3.4-4.34-8.18-6.52-14.34-6.52c-7.58,0-14.14,3.71-19.67,11.14
						c-5.53,7.43-9.72,16.51-12.56,27.26c-2.84,10.75-4.27,20.94-4.27,30.58c0,17.86,6.48,26.78,19.44,26.78
						C791.88,184.59,798.43,180.88,803.97,173.45z M734.4,206.04c-11.14-11.3-16.71-26.98-16.71-47.05
						c0-20.22,3.75-38.59,11.26-55.11c7.5-16.51,17.98-29.55,31.41-39.11c13.43-9.56,28.6-14.34,45.51-14.34
						c19.12,0,34.25,5.65,45.39,16.95c11.14,11.3,16.71,26.99,16.71,47.05c0,20.23-3.76,38.6-11.26,55.11
						c-7.51,16.52-17.98,29.55-31.41,39.11c-13.43,9.56-28.6,14.34-45.51,14.34C760.67,222.99,745.54,217.34,734.4,206.04z"/>
				</g>
				<g>
					<polygon class="st27" points="545.76,50.52 512.34,217.64 465.06,217.64 491.09,87.05 460.05,87.05 467.45,50.52 					"/>
					<polygon class="st27" points="701.18,185.65 676.35,185.65 669.9,217.64 624.07,217.64 630.51,185.65 542.18,185.65 
						548.15,154.85 642.21,50.52 693.06,50.52 606.88,148.17 640.06,148.17 645.79,119.76 689.48,119.76 683.75,148.17 
						708.82,148.17 					"/>
					<path class="st27" d="M805.99,171.09c5.57-7.48,9.79-16.63,12.65-27.46c2.87-10.82,4.3-21.09,4.3-30.8
						c0-9.23-1.71-16.03-5.13-20.41c-3.42-4.37-8.24-6.57-14.44-6.57c-7.64,0-14.24,3.74-19.81,11.22
						c-5.57,7.48-9.79,16.63-12.65,27.45c-2.87,10.83-4.3,21.09-4.3,30.8c0,17.99,6.52,26.98,19.58,26.98
						C793.81,182.31,800.41,178.57,805.99,171.09z M735.91,203.91c-11.22-11.38-16.83-27.18-16.83-47.39
						c0-20.37,3.78-38.87,11.34-55.51c7.56-16.63,18.11-29.76,31.63-39.39c13.53-9.63,28.81-14.44,45.84-14.44
						c19.26,0,34.5,5.69,45.72,17.07c11.22,11.38,16.83,27.18,16.83,47.39c0,20.38-3.78,38.88-11.34,55.51
						c-7.56,16.63-18.11,29.76-31.63,39.39c-13.53,9.63-28.81,14.44-45.84,14.44C762.38,220.98,747.14,215.29,735.91,203.91z"/>
				</g>
				<g>
					<polygon class="st28" points="545.92,47.29 512.26,215.61 464.65,215.61 490.86,84.08 459.6,84.08 467.05,47.29 					"/>
					<polygon class="st28" points="702.45,183.39 677.44,183.39 670.95,215.61 624.79,215.61 631.28,183.39 542.31,183.39 
						548.32,152.37 643.06,47.29 694.28,47.29 607.47,145.64 640.9,145.64 646.67,117.02 690.67,117.02 684.9,145.64 710.15,145.64 
											"/>
					<path class="st28" d="M808.01,168.72c5.61-7.53,9.86-16.75,12.74-27.65c2.89-10.9,4.33-21.24,4.33-31.02
						c0-9.3-1.72-16.15-5.17-20.56c-3.45-4.41-8.29-6.61-14.55-6.61c-7.69,0-14.35,3.77-19.96,11.3
						c-5.61,7.54-9.86,16.75-12.74,27.65c-2.89,10.9-4.33,21.24-4.33,31.02c0,18.11,6.57,27.17,19.72,27.17
						C795.74,180.02,802.39,176.26,808.01,168.72z M737.43,201.78c-11.3-11.46-16.95-27.37-16.95-47.73
						c0-20.51,3.8-39.15,11.42-55.9c7.61-16.75,18.23-29.97,31.86-39.67c13.62-9.7,29.01-14.55,46.17-14.55
						c19.39,0,34.74,5.73,46.05,17.19c11.3,11.46,16.95,27.37,16.95,47.73c0,20.52-3.81,39.15-11.42,55.9
						c-7.61,16.75-18.24,29.98-31.86,39.68c-13.63,9.7-29.02,14.55-46.17,14.55C764.08,218.98,748.74,213.25,737.43,201.78z"/>
				</g>
				<g>
					<polygon class="st29" points="546.08,44.07 512.18,213.58 464.23,213.58 490.63,81.12 459.15,81.12 466.65,44.07 					"/>
					<polygon class="st29" points="703.72,181.13 678.54,181.13 672,213.58 625.51,213.58 632.04,181.13 542.45,181.13 
						548.5,149.89 643.91,44.07 695.49,44.07 608.07,143.11 641.73,143.11 647.54,114.29 691.86,114.29 686.04,143.11 
						711.47,143.11 					"/>
					<path class="st29" d="M810.03,166.36c5.65-7.59,9.93-16.87,12.83-27.85c2.91-10.98,4.36-21.39,4.36-31.24
						c0-9.36-1.74-16.26-5.21-20.7c-3.47-4.44-8.35-6.66-14.65-6.66c-7.75,0-14.45,3.79-20.1,11.38
						c-5.65,7.59-9.93,16.87-12.83,27.85c-2.91,10.98-4.36,21.39-4.36,31.24c0,18.24,6.62,27.36,19.86,27.36
						C797.68,177.74,804.37,173.95,810.03,166.36z M738.95,199.65c-11.38-11.54-17.07-27.56-17.07-48.07
						c0-20.66,3.83-39.43,11.5-56.3c7.67-16.87,18.36-30.18,32.09-39.95c13.72-9.77,29.22-14.65,46.49-14.65
						c19.53,0,34.99,5.77,46.37,17.31c11.38,11.54,17.07,27.57,17.07,48.07c0,20.67-3.84,39.43-11.5,56.3
						c-7.67,16.87-18.37,30.19-32.08,39.96c-13.72,9.77-29.22,14.65-46.5,14.65C765.79,216.97,750.33,211.2,738.95,199.65z"/>
				</g>
				<g>
					<polygon class="st30" points="546.24,40.84 512.1,211.54 463.82,211.54 490.4,78.15 458.7,78.15 466.26,40.84 					"/>
					<polygon class="st30" points="704.99,178.87 679.63,178.87 673.05,211.54 626.23,211.54 632.81,178.87 542.58,178.87 
						548.68,147.41 644.76,40.84 696.7,40.84 608.67,140.58 642.57,140.58 648.42,111.56 693.04,111.56 687.19,140.58 712.8,140.58 
											"/>
					<path class="st30" d="M812.05,163.99c5.69-7.64,10-16.99,12.92-28.04c2.93-11.05,4.39-21.54,4.39-31.46
						c0-9.43-1.75-16.38-5.24-20.85c-3.5-4.47-8.41-6.71-14.75-6.71c-7.8,0-14.55,3.82-20.24,11.46c-5.69,7.64-10,16.99-12.92,28.04
						c-2.93,11.06-4.39,21.54-4.39,31.46c0,18.37,6.66,27.55,20,27.55C799.61,175.45,806.35,171.63,812.05,163.99z M740.47,197.52
						c-11.46-11.62-17.19-27.76-17.19-48.41c0-20.81,3.86-39.71,11.58-56.7c7.72-16.99,18.49-30.4,32.31-40.24
						c13.82-9.83,29.42-14.75,46.82-14.75c19.67,0,35.24,5.81,46.7,17.44c11.46,11.63,17.19,27.76,17.19,48.41
						c0,20.81-3.86,39.71-11.58,56.7c-7.72,16.99-18.5,30.4-32.31,40.24c-13.82,9.84-29.43,14.75-46.82,14.75
						C767.5,214.96,751.93,209.15,740.47,197.52z"/>
				</g>
				<g>
					<polygon class="st31" points="546.4,37.61 512.02,209.51 463.4,209.51 490.17,75.19 458.24,75.19 465.86,37.61 					"/>
					<polygon class="st31" points="706.26,176.61 680.72,176.61 674.09,209.51 626.95,209.51 633.58,176.61 542.72,176.61 
						548.86,144.93 645.61,37.61 697.92,37.61 609.27,138.05 643.4,138.05 649.29,108.83 694.23,108.83 688.34,138.05 
						714.12,138.05 					"/>
					<path class="st31" d="M814.07,161.63c5.73-7.69,10.07-17.11,13.01-28.24c2.95-11.13,4.42-21.69,4.42-31.68
						c0-9.49-1.76-16.49-5.28-21c-3.52-4.5-8.47-6.75-14.86-6.75c-7.86,0-14.65,3.85-20.38,11.54c-5.73,7.7-10.07,17.11-13.01,28.24
						c-2.95,11.14-4.42,21.69-4.42,31.68c0,18.5,6.71,27.75,20.14,27.75C801.54,173.17,808.33,169.32,814.07,161.63z M741.99,195.39
						c-11.54-11.7-17.31-27.95-17.31-48.75c0-20.95,3.89-39.98,11.66-57.09c7.77-17.11,18.62-30.61,32.54-40.52
						c13.91-9.9,29.63-14.86,47.15-14.86c19.81,0,35.48,5.85,47.03,17.56c11.54,11.71,17.31,27.96,17.31,48.75
						c0,20.96-3.89,39.99-11.66,57.09c-7.78,17.11-18.62,30.61-32.54,40.52c-13.92,9.91-29.63,14.86-47.15,14.86
						C769.21,212.95,753.53,207.1,741.99,195.39z"/>
				</g>
				<g>
					<polygon class="st32" points="546.56,34.39 511.95,207.48 462.98,207.48 489.94,72.22 457.79,72.22 465.46,34.39 					"/>
					<polygon class="st32" points="707.53,174.34 681.82,174.34 675.14,207.48 627.67,207.48 634.34,174.34 542.85,174.34 
						549.03,142.45 646.46,34.39 699.13,34.39 609.86,135.52 644.23,135.52 650.17,106.1 695.42,106.1 689.48,135.52 715.45,135.52 
											"/>
					<path class="st32" d="M816.09,159.26c5.77-7.75,10.14-17.22,13.11-28.44c2.97-11.21,4.45-21.84,4.45-31.9
						c0-9.56-1.77-16.61-5.32-21.14c-3.55-4.53-8.53-6.8-14.96-6.8c-7.91,0-14.75,3.87-20.52,11.62
						c-5.77,7.75-10.14,17.23-13.11,28.43c-2.97,11.21-4.45,21.85-4.45,31.9c0,18.63,6.76,27.94,20.28,27.94
						C803.48,170.88,810.31,167.01,816.09,159.26z M743.51,193.26c-11.62-11.78-17.43-28.15-17.43-49.08
						c0-21.1,3.91-40.26,11.74-57.49c7.83-17.22,18.75-30.82,32.76-40.8c14.01-9.97,29.83-14.96,47.48-14.96
						c19.94,0,35.73,5.9,47.35,17.68c11.62,11.79,17.43,28.15,17.43,49.08c0,21.1-3.92,40.27-11.75,57.49
						c-7.83,17.23-18.75,30.83-32.76,40.8c-14.01,9.97-29.84,14.96-47.48,14.96C770.92,210.94,755.13,205.05,743.51,193.26z"/>
				</g>
				<g>
					<polygon class="st33" points="546.72,31.16 511.87,205.45 462.57,205.45 489.71,69.26 457.34,69.26 465.06,31.16 					"/>
					<polygon class="st33" points="708.81,172.08 682.91,172.08 676.19,205.45 628.39,205.45 635.11,172.08 542.99,172.08 
						549.21,139.97 647.31,31.16 700.34,31.16 610.46,132.99 645.07,132.99 651.04,103.36 696.61,103.36 690.63,132.99 
						716.77,132.99 					"/>
					<path class="st33" d="M818.11,156.9c5.81-7.8,10.21-17.34,13.2-28.63c2.99-11.29,4.48-21.99,4.48-32.12
						c0-9.63-1.79-16.72-5.35-21.29c-3.57-4.56-8.59-6.85-15.06-6.85c-7.97,0-14.86,3.9-20.66,11.7
						c-5.81,7.8-10.21,17.35-13.2,28.63c-2.99,11.29-4.48,22-4.48,32.12c0,18.76,6.8,28.13,20.42,28.13
						C805.41,168.6,812.29,164.7,818.11,156.9z M745.03,191.13c-11.7-11.87-17.55-28.34-17.55-49.42c0-21.24,3.94-40.54,11.82-57.89
						c7.88-17.34,18.88-31.03,32.99-41.08c14.11-10.04,30.04-15.06,47.8-15.06c20.08,0,35.98,5.94,47.68,17.8
						c11.7,11.87,17.55,28.34,17.55,49.42c0,21.25-3.94,40.54-11.83,57.89c-7.88,17.35-18.88,31.04-32.99,41.08
						c-14.11,10.04-30.04,15.06-47.81,15.06C772.62,208.93,756.73,203,745.03,191.13z"/>
				</g>
				<g>
					<path class="st0" d="M546.88,27.94l-35.09,175.48h-49.64l27.32-137.12h-32.59l7.77-38.35H546.88z"/>
					<path class="st0" d="M710.08,169.82h-26.07l-6.77,33.59h-48.13l6.77-33.59h-92.75l6.27-32.34l98.77-109.55h53.4l-90.5,102.53
						h34.84l6.02-29.83h45.88l-6.02,29.83h26.32L710.08,169.82z"/>
					<path class="st0" d="M820.12,154.53c5.85-7.85,10.28-17.46,13.29-28.83c3.01-11.36,4.51-22.14,4.51-32.34
						c0-9.69-1.8-16.84-5.39-21.43c-3.59-4.59-8.65-6.89-15.17-6.89c-8.02,0-14.96,3.93-20.8,11.78
						c-5.85,7.86-10.28,17.46-13.29,28.83c-3.01,11.37-4.51,22.15-4.51,32.34c0,18.89,6.85,28.33,20.56,28.33
						C807.34,166.31,814.27,162.39,820.12,154.53z M746.55,189c-11.78-11.95-17.67-28.53-17.67-49.76
						c0-21.39,3.97-40.82,11.91-58.28c7.94-17.46,19.01-31.25,33.22-41.36c14.2-10.11,30.25-15.17,48.13-15.17
						c20.22,0,36.22,5.98,48.01,17.92c11.78,11.95,17.67,28.54,17.67,49.76c0,21.39-3.97,40.82-11.91,58.28
						c-7.94,17.47-19.01,31.25-33.21,41.36c-14.21,10.11-30.25,15.17-48.13,15.17C774.33,206.92,758.33,200.95,746.55,189z"/>
				</g>
			</g>
		</g>
	</g>
	<path class="st34" d="M848.14,156.91c0.13-1.12,0.28-2.23,0.4-3.35c0.09-0.8,0.11-1.61,0.26-2.4c0.27-1.49,0.6-2.97,0.9-4.46
		c0.02-0.11,0.01-0.22,0.02-0.37c-1.48,0.11-2.88,0.22-4.37,0.33l-0.07,0.29c-0.1,0.96,0.06,1.83,0.17,2.69
		c0.11,0.8,0.24,1.59-0.03,2.4c-0.27,0.81-0.95,1.3-1.75,1.29l-1.51,6c1.7-0.47,3.39-0.97,5.09-1.42
		C847.81,157.75,848.08,157.45,848.14,156.91z"/>
	<path class="st34" d="M870.62,124.85c2.52,0.29,5.05,0.57,7.63,0.85c1.29-1.54,2.43-3.27,3.44-5.17c-1.51-1.5-3.1-2.83-4.8-3.97
		c-1.52,0.67-2.99,1.31-4.46,1.96c-0.86,0.38-1.75,0.68-2.57,1.13c-1.52,0.85-2.8,2.04-4.24,3.27c1.49,0.62,2.82,1.18,4.15,1.72
		C870.04,124.75,870.33,124.82,870.62,124.85z"/>
	<path class="st34" d="M844.42,163c-1.13,0.23-2.23,0.45-3.35,0.68l-1.36,5.41c1.22-1.78,2.64-3.41,3.97-5.12
		C843.91,163.68,844.14,163.37,844.42,163z"/>
	<path class="st34" d="M889.37,134.05c-2.53-0.1-5-0.47-7.45-1.07c-0.27-0.07-0.54-0.1-0.9-0.17c0.12,1.55,0.24,3,0.37,4.59
		c1.07-0.11,2-0.19,2.92-0.29c0.77-0.08,1.53-0.24,2.3-0.01c0.86,0.26,1.39,0.87,1.43,1.73c0.04,0.84-0.44,1.61-1.24,1.89
		c-0.36,0.13-0.75,0.16-1.14,0.21c-1.2,0.15-2.4,0.28-3.65,0.42c0.08,0.39,0.16,0.7,0.21,1.01c0.2,1.14,0.42,2.29,0.59,3.43
		c0.15,0.99-0.71,1.85-1.45,2.02c-0.91,0.21-1.84-0.21-2.25-1.09c-0.12-0.26-0.2-0.55-0.25-0.83c-0.19-0.98-0.36-1.97-0.56-2.95
		c-0.07-0.36-0.23-0.71-0.35-1.08c-1.5,0.33-2.88,0.63-4.36,0.96c0.2,0.36,0.41,0.68,0.58,1.02c0.93,1.95,1.86,3.9,2.78,5.86
		c0.45,0.96,0.89,1.93,1.33,2.89c0.19,0.42,0.48,0.61,0.99,0.59c1.81-0.05,3.62-0.01,5.42-0.08c2-0.07,4-0.18,5.99-0.37
		c1.86-0.18,3.7-0.49,5.65-0.75c-0.78-5.99-2.15-11.72-3.99-17.41C891.33,134.39,890.36,134.09,889.37,134.05z"/>
	<path class="st34" d="M867.38,134.18c1.36,1.55,2.56,3.24,3.85,4.89c2.05-0.21,4.09-0.63,6.21-1.27c-0.21-2.14-0.41-4.22-0.6-6.15
		c-1.92-0.75-3.65-1.44-5.4-2.11c-0.84-0.32-1.68-0.66-2.55-0.9c-0.65-0.17-1.34-0.19-2.01-0.26c-0.81-0.09-1.63-0.15-2.59-0.24
		C865.25,130.32,865.87,132.45,867.38,134.18z"/>
	<path class="st34" d="M879.99,159.83c0.13,1.08,0.29,2.16,0.38,3.24c0.25,3.07,0.73,6.09,1.51,9.07c0.23,0.87,0.35,1.79,0.37,2.68
		c0.01,0.61,0.19,1.06,0.6,1.46c1.24,1.23,2.41,2.55,3.76,3.64c1.61,1.3,3.01,2.83,4.57,4.18c2.07,1.8,4.11,3.64,6.17,5.45
		c0.23,0.2,0.5,0.35,0.89,0.62c-0.03-0.39-0.03-0.61-0.08-0.81c-0.49-2.17-0.95-4.36-1.49-6.52c-0.49-1.97-1.22-3.9-1.58-5.89
		c-0.37-2.02-1.03-3.93-1.54-5.9c-0.11-0.44-0.25-0.87-0.39-1.3c-0.11-0.35-0.33-0.57-0.66-0.78c-0.82-0.51-1.67-1.03-2.35-1.7
		c-2.99-2.9-6.54-5.05-9.89-7.46C880.21,159.79,880.13,159.82,879.99,159.83z"/>
	<path class="st34" d="M861.76,98.86c0.52-2.1,1.32-4.11,2.15-6.11c0.38-0.92,0.72-1.85,1.1-2.78c0.22-0.54,0.12-0.96-0.32-1.38
		c-1.24-1.18-2.42-2.42-3.68-3.59c-0.03-0.03-0.07-0.06-0.1-0.09l-1.51,6.01c0.77,0.43,1.12,1.25,0.87,2.19
		c-0.09,0.34-0.23,0.68-0.42,0.97c-0.56,0.87-1.17,1.71-1.73,2.57c-0.13,0.19-0.22,0.41-0.32,0.63l-0.09,0.34
		c1.29,0.82,2.49,1.58,3.76,2.38C861.58,99.55,861.67,99.21,861.76,98.86z"/>
	<path class="st34" d="M854.75,113.42c0.89,1.14,1.81,2.26,2.87,3.56c0.52-1.32,1.01-2.44,1.42-3.59c0.24-0.66,0.43-1.35,0.54-2.05
		c0.21-1.4,0.33-2.82,0.51-4.22c0.12-0.92,0.27-1.84,0.41-2.76c-1.2-0.99-2.46-1.88-3.8-2.68l-2.62,10.4
		c0.06,0.13,0.12,0.27,0.17,0.4C854.38,112.82,854.53,113.15,854.75,113.42z"/>
	<path class="st34" d="M864.54,82.18c-0.13-0.8-0.25-1.6-0.43-2.39c-0.36-1.54-0.58-3.1-0.73-4.66l-1.37,5.46
		c0.84,0.74,1.68,1.49,2.56,2.25C864.55,82.58,864.57,82.38,864.54,82.18z"/>
	<path class="st34" d="M850.9,124.63l-0.3,1.17c0.32-0.27,0.64-0.55,0.99-0.84C851.35,124.86,851.13,124.74,850.9,124.63z"/>
	<path class="st34" d="M851.21,141.58c0.56-1.54,1.09-3.1,1.74-4.6c0.75-1.74,1.15-3.54,1.33-5.41c0.06-0.62,0.06-1.24,0.09-1.91
		c-0.5,0.18-0.94,0.3-1.34,0.48c-1.17,0.54-2.43,0.95-3.47,1.68c-0.19,0.13-0.38,0.28-0.56,0.42l-2.61,10.36
		c1.42-0.07,2.84-0.22,4.25-0.47C850.97,142.07,851.1,141.89,851.21,141.58z"/>
	<path class="st34" d="M852.78,119.28c-0.11-0.27-0.22-0.53-0.33-0.8l-0.3,1.17c0.25,0.02,0.49,0.04,0.75,0.07
		C852.85,119.51,852.83,119.39,852.78,119.28z"/>
	<path class="st34" d="M897.45,102.23c2.86-0.28,5.72-0.6,8.52-1.33c1.09-0.28,2.22-0.52,3.34-0.56c0.91-0.03,1.5-0.41,2.07-1.02
		c1.92-2.05,3.87-4.07,5.77-6.14c2.4-2.63,4.74-5.29,7.1-7.95c0.21-0.24,0.37-0.53,0.64-0.92c-0.47,0.06-0.73,0.07-0.98,0.13
		c-2.77,0.65-5.54,1.29-8.3,1.96c-1.69,0.41-3.38,0.84-5.06,1.3c-2.03,0.55-4.04,1.13-6.06,1.7c-0.39,0.11-0.63,0.37-0.85,0.72
		c-0.49,0.79-0.99,1.61-1.63,2.28c-2.35,2.48-4.3,5.24-6.19,8.07c-0.43,0.64-0.89,1.26-1.33,1.89c0.04,0.07,0.07,0.13,0.11,0.2
		C895.54,102.45,896.49,102.32,897.45,102.23z"/>
	<path class="st34" d="M865.99,142.17c-0.61-1.39-1.2-2.68-1.75-3.99c-0.85-1.99-1.64-4-3.18-5.6c-0.48-0.5-0.91-1.05-1.43-1.66
		c-0.62,1.49-1.18,2.85-1.73,4.22c-0.11,0.27-0.17,0.56-0.2,0.85c-0.28,2.49-0.56,4.99-0.85,7.58c1.6,1.29,3.32,2.46,5.19,3.43
		C863.54,145.41,864.93,143.87,865.99,142.17z"/>
	<path class="st34" d="M839.58,197.44c0.02,0.4,0.1,0.8,0.17,1.35c0.26-0.29,0.43-0.44,0.54-0.63c1.18-1.85,2.38-3.69,3.51-5.57
		c1.08-1.8,1.96-3.73,3.15-5.44c1.28-1.84,2.18-3.89,3.38-5.76c0.39-0.61,0.52-1.23,0.32-2c-0.27-1.09-0.42-2.23-0.45-3.35
		c-0.1-3.9-1.07-7.67-1.7-11.49c0-0.03-0.04-0.05-0.13-0.15c-1.11,1.39-2.15,2.8-3.29,4.12c-1.47,1.7-2.62,3.6-3.82,5.48
		c-0.59,0.92-1.22,1.83-1.94,2.65c-0.45,0.51-0.62,1.02-0.6,1.66c0.09,3,0.14,6,0.27,8.99
		C839.15,190.67,839.38,194.05,839.58,197.44z"/>
	<path class="st34" d="M856.28,162.87c2.73,2.52,5.58,4.91,8.57,7.11c0.2,0.15,0.41,0.27,0.65,0.43c1.11-1.54,2.24-2.99,3.26-4.52
		c1.2-1.8,2.33-3.65,3.44-5.51c0.84-1.41,1.6-2.88,2.38-4.33c0.18-0.34,0.37-0.69,0.09-1.09c-0.5-0.72-0.89-1.52-1.48-2.15
		c-1.74-1.88-3.24-3.94-4.59-6.11c-0.13-0.2-0.28-0.39-0.45-0.63c-0.99,1.16-1.93,2.25-2.95,3.44c0.78,0.65,1.5,1.24,2.22,1.83
		c0.5,0.41,1.03,0.79,1.46,1.26c0.72,0.78,0.69,1.89,0.01,2.64c-0.65,0.72-1.7,0.83-2.56,0.28c-0.24-0.16-0.46-0.36-0.69-0.54
		c-0.92-0.74-1.84-1.47-2.78-2.22c-0.81,1.18-1.55,2.31-2.34,3.41c-0.84,1.19-1.88,1.16-2.8,0.63c-0.89-0.51-1.11-1.72-0.52-2.75
		c0.27-0.47,0.61-0.91,0.91-1.37c0.51-0.77,1.02-1.55,1.57-2.39c-1.33-0.85-2.54-1.63-3.81-2.44c-0.08,0.19-0.15,0.33-0.19,0.47
		c-0.51,2.04-1.2,4.02-2.03,5.94c-0.52,1.21-1.09,2.4-1.42,3.69c-0.14,0.54-0.05,0.9,0.35,1.28
		C853.84,160.46,855.02,161.71,856.28,162.87z"/>
	<path class="st34" d="M867.66,116.07c2.1-1.48,4.07-3.15,6.12-4.76c-0.22-2.05-0.61-4.09-1.28-6.2c-2.09,0.2-4.13,0.39-6.11,0.58
		c-0.66,1.66-1.25,3.12-1.82,4.59c-0.43,1.11-0.98,2.2-1.22,3.35c-0.3,1.46-0.35,2.97-0.52,4.57c0.5-0.17,0.9-0.27,1.27-0.43
		C865.29,117.23,866.59,116.82,867.66,116.07z"/>
	<path class="st34" d="M881.84,113.7c-0.34,0.22-0.69,0.43-1.09,0.67c1.18,1.01,2.27,1.95,3.47,2.98c0.66-0.79,1.27-1.53,1.89-2.27
		c0.39-0.47,0.76-0.97,1.2-1.39c0.6-0.58,1.49-0.69,2.15-0.36c0.79,0.4,1.27,1.11,1.11,1.96c-0.09,0.51-0.4,1.01-0.72,1.43
		c-0.75,1-1.56,1.95-2.37,2.95c1.18,0.81,2.34,1.57,3.47,2.38c0.98,0.7,1.21,1.81,0.62,2.72c-0.58,0.9-1.71,1.16-2.74,0.59
		c-0.48-0.27-0.91-0.61-1.37-0.91c-0.77-0.52-1.55-1.03-2.41-1.61c-0.84,1.3-1.62,2.51-2.46,3.82c0.21,0.08,0.33,0.14,0.45,0.17
		c2.04,0.52,4.01,1.21,5.95,2.02c1.15,0.49,2.27,1.07,3.5,1.38c0.67,0.17,1.13,0.12,1.63-0.41c1.38-1.49,2.85-2.91,4.23-4.4
		c2.33-2.51,4.47-5.19,6.51-7.94c0.09-0.12,0.15-0.27,0.24-0.43c-0.17-0.14-0.31-0.28-0.46-0.39c-1.94-1.34-3.83-2.75-5.83-3.99
		c-2.55-1.59-5.17-3.04-7.77-4.56c-0.19-0.11-0.4-0.25-0.61-0.29c-0.23-0.04-0.54-0.06-0.72,0.06c-0.77,0.47-1.58,0.92-2.23,1.53
		C885.72,111.04,883.81,112.41,881.84,113.7z"/>
	<path class="st34" d="M901.87,136.39c2.27,1.93,4.68,3.65,7.25,5.17c0.8,0.47,1.56,1.05,2.24,1.69c0.47,0.45,0.97,0.6,1.57,0.58
		c3.09-0.09,6.19-0.18,9.28-0.29c2.32-0.09,4.65-0.19,6.97-0.32c1.38-0.08,2.76-0.23,4.36-0.37c-0.37-0.32-0.52-0.49-0.71-0.6
		c-1.85-1.18-3.7-2.38-5.58-3.51c-1.77-1.06-3.66-1.94-5.36-3.1c-1.66-1.14-3.45-2.03-5.18-3.03c-0.45-0.26-0.9-0.51-1.37-0.71
		c-0.24-0.1-0.55-0.12-0.82-0.08c-1.31,0.17-2.62,0.39-3.93,0.54c-1.7,0.2-3.41,0.29-5.11,0.53c-1.82,0.26-3.63,0.65-5.44,0.99
		c-0.31,0.06-0.62,0.12-1.09,0.21C900.02,134.92,900.97,135.62,901.87,136.39z"/>
	<path class="st34" d="M869.15,90.91c-0.18,1.05-0.36,2.08-0.43,3.15c-0.15,2.22-0.46,4.42-1.01,6.59c-0.07,0.27-0.1,0.54-0.16,0.88
		c1.52-0.12,2.96-0.23,4.53-0.35c-0.1-1.05-0.22-2-0.28-2.96c-0.05-0.73-0.13-1.49-0.03-2.21c0.13-0.9,0.9-1.47,1.77-1.51
		c0.9-0.04,1.7,0.53,1.95,1.44c0.09,0.34,0.11,0.7,0.15,1.05c0.13,1.18,0.26,2.35,0.4,3.55c0.32-0.07,0.57-0.12,0.82-0.17
		c1.11-0.21,2.22-0.46,3.33-0.62c1.37-0.2,2.38,0.68,2.36,2.01c-0.01,0.85-0.62,1.6-1.58,1.84c-0.78,0.19-1.59,0.28-2.38,0.45
		c-0.68,0.14-1.35,0.33-2.05,0.5c0.34,1.52,0.64,2.9,0.97,4.4c0.25-0.13,0.41-0.23,0.58-0.31c1.59-0.8,3.16-1.62,4.76-2.38
		c1.37-0.65,2.77-1.23,4.16-1.83c0.64-0.28,0.9-0.72,0.88-1.44c-0.08-2.19-0.05-4.39-0.15-6.58c-0.15-3.23-0.5-6.44-0.97-9.63
		c-0.03-0.18-0.09-0.35-0.15-0.57c-0.21,0.02-0.37,0.03-0.52,0.06c-2.44,0.45-4.91,0.81-7.33,1.37c-2.92,0.68-5.81,1.53-8.71,2.29
		C869.53,90.08,869.25,90.36,869.15,90.91z"/>
	<path class="st34" d="M867.03,71.33c0.04,4.1,1.1,8.06,1.74,12.29c0.87-1.1,1.59-2.05,2.35-2.97c1.74-2.09,3.38-4.25,4.76-6.59
		c0.56-0.94,1.17-1.88,1.92-2.67c0.63-0.66,0.76-1.35,0.73-2.18c-0.1-2.74-0.12-5.48-0.25-8.22c-0.17-3.61-0.4-7.22-0.62-10.83
		c-0.02-0.32-0.11-0.64-0.17-0.96c-0.07-0.01-0.14-0.02-0.22-0.02c-1.3,2.08-2.64,4.13-3.9,6.23c-1.08,1.8-1.95,3.74-3.15,5.44
		c-1.31,1.86-2.2,3.95-3.42,5.85c-0.32,0.5-0.37,1.03-0.21,1.66C866.84,69.33,867.02,70.34,867.03,71.33z"/>
	<path class="st0" d="M859.84,94.09c0.19-0.29,0.33-0.63,0.42-0.97c0.25-0.94-0.09-1.75-0.87-2.19l-1.6,6.36
		c0.1-0.22,0.19-0.44,0.32-0.63C858.68,95.79,859.28,94.95,859.84,94.09z"/>
	<path class="st0" d="M845.43,152.04c0.27-0.8,0.13-1.6,0.03-2.4c-0.11-0.87-0.27-1.74-0.17-2.69l-1.61,6.38
		C844.49,153.34,845.16,152.85,845.43,152.04z"/>
	<path class="st0" d="M836.24,202.66c0.07,0.46,0.26,0.93,0.51,1.33c0.37,0.6,1.06,0.68,1.69,0.84c1.21,0.29,1.9,0.07,2.62-0.91
		c0.87-1.2,1.79-2.38,2.57-3.64c1.99-3.17,3.92-6.39,5.87-9.58c0.76-1.24,1.55-2.46,2.25-3.72c0.91-1.63,1.72-3.33,2.65-4.95
		c0.54-0.95,0.55-1.86,0.3-2.88c-0.25-1.03-0.42-2.08-0.54-3.14c-0.24-2.05-0.39-4.12-0.66-6.16c-0.18-1.38-0.51-2.73-0.76-4.1
		c-0.04-0.2-0.02-0.42-0.03-0.61c3.47,2.89,6.92,5.75,10.35,8.61c-0.53,0.72-1.09,1.43-1.59,2.18c-0.97,1.45-1.92,2.91-2.87,4.37
		c-0.99,1.51-1.99,3.02-2.95,4.55c-0.53,0.85-0.29,1.95,0.45,2.54c0.8,0.64,1.9,0.58,2.64-0.19c0.38-0.39,0.7-0.85,1-1.31
		c0.88-1.35,1.72-2.73,2.61-4.08c0.58-0.88,1.2-1.73,1.91-2.75c0.13,0.59,0.25,1.01,0.33,1.44c0.5,2.93,1,5.86,1.47,8.79
		c0.05,0.33,0.05,0.75-0.11,1.01c-0.62,1.02-1.29,2.02-2.01,2.96c-1.19,1.57-2.45,3.08-3.66,4.63c-0.51,0.65-0.51,1.38-0.15,2.1
		c0.36,0.71,1.12,1.09,1.94,1.01c0.76-0.08,1.32-0.48,1.76-1.08c1.58-2.16,3.18-4.31,4.77-6.47c0.05-0.07,0.14-0.12,0.28-0.23
		c0.59,0.49,1.15,1.02,1.77,1.47c1.61,1.18,3.24,2.35,4.89,3.49c0.36,0.25,0.8,0.44,1.22,0.54c0.94,0.22,1.87-0.29,2.22-1.14
		c0.37-0.89,0.09-1.83-0.71-2.4c-0.79-0.56-1.58-1.11-2.37-1.68c-1.35-0.99-2.66-2.06-4.06-2.96c-1.19-0.77-1.55-1.79-1.67-3.13
		c-0.23-2.6-0.65-5.19-0.97-7.79c-0.05-0.38-0.21-0.79,0.09-1.21c1.46,1.23,2.86,2.41,4.27,3.59c0.99,0.83,1.97,1.68,3.01,2.44
		c0.94,0.68,2.13,0.44,2.74-0.45c0.61-0.88,0.4-2.04-0.49-2.77c-2.31-1.92-4.6-3.85-6.92-5.77c-0.99-0.82-2.03-1.6-3.04-2.4
		c-0.07-0.05-0.1-0.15-0.12-0.17c2.49-3.76,4.96-7.49,7.41-11.2c0.01,0.02,0.07,0.06,0.08,0.12c0.05,0.25,0.1,0.51,0.12,0.76
		c0.32,3.55,0.77,7.06,1.69,10.52c0.23,0.86,0.2,1.79,0.25,2.69c0.04,0.76,0.17,1.49,0.67,2.08c0.39,0.47,0.8,0.94,1.24,1.36
		c2.39,2.26,4.8,4.51,7.21,6.76c1.56,1.45,3.11,2.92,4.73,4.3c2.14,1.82,4.34,3.58,6.54,5.31c0.35,0.27,0.91,0.46,1.34,0.41
		c1.39-0.18,3.17-1.27,2.72-3.27c-0.65-2.9-1.13-5.83-1.79-8.73c-0.79-3.5-1.66-6.97-2.57-10.44c-0.51-1.94-1.17-3.83-1.73-5.75
		c-0.26-0.9-0.84-1.48-1.61-1.97c-1.03-0.66-2.05-1.34-2.99-2.13c-1.78-1.5-3.5-3.07-5.49-4.3c-0.85-0.53-1.65-1.13-2.47-1.71
		c-0.19-0.13-0.36-0.3-0.54-0.46c4.52-0.41,8.97-0.82,13.45-1.23c0.1,0.74,0.15,1.48,0.3,2.2c0.74,3.57,1.49,7.14,2.25,10.71
		c0.23,1.09,1.14,1.77,2.18,1.65c1.04-0.12,1.76-0.98,1.72-2.11c-0.02-0.51-0.11-1.03-0.22-1.53c-0.34-1.58-0.71-3.15-1.04-4.73
		c-0.22-1.03-0.38-2.07-0.6-3.27c0.48,0.29,0.84,0.49,1.17,0.72c2.48,1.75,4.95,3.51,7.42,5.29c0.24,0.18,0.5,0.46,0.56,0.74
		c0.27,1.26,0.52,2.53,0.7,3.81c0.26,1.85,0.43,3.72,0.67,5.58c0.11,0.86,0.65,1.4,1.46,1.64c0.77,0.23,1.62-0.15,2.11-0.85
		c0.44-0.63,0.44-1.32,0.33-2.04c-0.39-2.68-0.76-5.36-1.15-8.11c0.22-0.03,0.47-0.06,0.72-0.08c0.58-0.05,1.16-0.07,1.74-0.16
		c1.91-0.3,3.83-0.61,5.73-0.95c0.43-0.08,0.89-0.23,1.26-0.46c0.86-0.55,1.15-1.59,0.77-2.47c-0.38-0.88-1.31-1.31-2.34-1.11
		c-0.85,0.17-1.71,0.32-2.58,0.43c-2.01,0.28-3.98,0.84-6.03,0.9c-0.52,0.01-0.98,0.05-1.45-0.31c-2.38-1.89-4.79-3.73-7.18-5.6
		c-0.32-0.25-0.6-0.54-1-0.91c1.91-0.18,3.65-0.35,5.38-0.52c1.38-0.13,2.77-0.22,4.15-0.39c0.8-0.1,1.37-0.57,1.62-1.35
		c0.45-1.41-0.71-2.69-2.28-2.53c-0.67,0.07-1.35,0.14-2.02,0.2c-1.54,0.13-3.09,0.25-4.63,0.39c-2.12,0.19-4.23,0.4-6.33,0.6
		c-0.89-4.37-1.78-8.77-2.69-13.25c0.5,0.39,0.93,0.72,1.36,1.07c2.04,1.64,4.02,3.35,6.3,4.68c1.48,0.86,2.92,1.78,4.11,3.05
		c0.45,0.48,1.05,0.78,1.72,0.8c0.87,0.04,1.74,0.05,2.61,0.03c2.51-0.07,5.03-0.14,7.54-0.24c2.84-0.11,5.68-0.18,8.52-0.39
		c2.51-0.18,5.01-0.51,7.51-0.79c1.24-0.14,1.73-0.61,2.04-1.85c0.03-0.13,0.06-0.25,0.09-0.38c0.31-1.24,0.1-1.88-0.9-2.61
		c-1.2-0.87-2.38-1.79-3.64-2.57c-3.17-1.99-6.39-3.92-9.58-5.87c-1.24-0.76-2.46-1.55-3.72-2.26c-1.63-0.91-3.32-1.72-4.95-2.65
		c-0.95-0.54-1.87-0.53-2.88-0.28c-1.03,0.25-2.09,0.42-3.14,0.54c-1.99,0.23-3.99,0.36-5.97,0.62c-1.41,0.19-2.8,0.52-4.19,0.78
		c-0.24,0.04-0.48,0.04-0.71,0.06c2.89-3.48,5.75-6.92,8.59-10.33c1.22,0.81,2.45,1.63,3.69,2.44c0.43,0.28,0.87,0.56,1.3,0.85
		c2.04,1.35,4.08,2.73,6.14,4.06c0.88,0.57,2,0.31,2.6-0.49c0.61-0.81,0.51-1.88-0.28-2.63c-0.33-0.31-0.69-0.59-1.07-0.83
		c-2.16-1.42-4.33-2.82-6.49-4.23c-0.14-0.09-0.24-0.23-0.45-0.43c0.53-0.12,0.93-0.23,1.34-0.3c2.93-0.5,5.86-1,8.79-1.47
		c0.33-0.05,0.76-0.06,1.02,0.1c1.11,0.71,2.2,1.47,3.26,2.25c0.81,0.59,1.57,1.24,2.36,1.86c0.58,0.46,1.18,0.9,1.75,1.37
		c0.85,0.71,1.87,0.77,2.65,0.13c0.79-0.66,0.97-1.8,0.34-2.72c-0.25-0.36-0.61-0.66-0.96-0.94c-1.25-0.97-2.51-1.93-3.77-2.88
		c-0.67-0.5-1.37-0.97-2.05-1.45c-0.22-0.16-0.44-0.33-0.65-0.5c0.64-0.81,1.23-1.53,1.79-2.28c0.79-1.06,1.54-2.15,2.31-3.23
		c0.41-0.58,0.88-1.13,1.22-1.74c0.56-0.98,0.18-2.29-0.74-2.81c-0.95-0.54-2.01-0.24-2.69,0.75c-0.49,0.72-0.99,1.44-1.52,2.13
		c-1.23,1.61-2.22,3.41-3.63,4.9c-0.36,0.38-0.66,0.73-1.25,0.8c-3.02,0.35-6.03,0.74-9.04,1.11c-0.39,0.05-0.79,0.04-1.35,0.06
		c1.25-1.51,2.36-2.85,3.47-4.19c0.89-1.07,1.83-2.1,2.64-3.22c0.7-0.96,0.46-2.14-0.42-2.76c-0.88-0.62-2.03-0.42-2.77,0.47
		c-1.98,2.38-3.98,4.76-5.96,7.14c-0.82,0.99-1.63,1.99-2.4,2.93c-3.74-2.47-7.48-4.94-11.26-7.45c0.37-0.05,0.74-0.12,1.12-0.16
		c3.48-0.32,6.93-0.77,10.32-1.67c0.86-0.23,1.79-0.21,2.69-0.26c0.8-0.04,1.58-0.14,2.16-0.71c1.69-1.64,3.37-3.3,5-5
		c1.41-1.47,2.72-3.02,4.1-4.51c2.88-3.11,5.68-6.27,8.22-9.67c1.04-1.39,1.06-1.85,0.2-3.32c-0.68-1.16-1.31-1.46-2.65-1.24
		c-1.11,0.18-2.23,0.36-3.34,0.6c-2.59,0.55-5.18,1.1-7.76,1.72c-1.95,0.47-3.85,1.15-5.81,1.54c-2.77,0.54-5.43,1.45-8.12,2.24
		c-0.86,0.26-1.49,0.79-1.88,1.57c-0.58,1.17-1.41,2.15-2.24,3.14c-1.27,1.51-2.51,3.04-3.7,4.61c-0.8,1.05-1.5,2.18-2.25,3.27
		c-0.13,0.19-0.31,0.36-0.42,0.49c-0.41-4.48-0.82-8.94-1.23-13.45c0.7-0.09,1.45-0.14,2.17-0.29c3.13-0.66,6.25-1.35,9.38-2.02
		c0.5-0.11,1.03-0.15,1.52-0.28c0.97-0.25,1.6-1.15,1.51-2.11c-0.08-0.93-0.81-1.64-1.8-1.73c-0.35-0.03-0.71,0-1.06,0.07
		c-1.2,0.24-2.4,0.53-3.6,0.78c-1.67,0.34-3.34,0.66-5.2,1.03c0.25-0.44,0.4-0.75,0.6-1.03c1.79-2.53,3.59-5.06,5.41-7.57
		c0.19-0.26,0.52-0.53,0.82-0.59c1.42-0.28,2.86-0.52,4.29-0.72c1.69-0.24,3.4-0.39,5.09-0.64c0.84-0.13,1.38-0.68,1.56-1.53
		c0.17-0.78-0.16-1.54-0.84-2.02c-0.6-0.42-1.25-0.46-1.95-0.35c-1.53,0.23-3.07,0.43-4.6,0.65c-0.96,0.14-1.91,0.3-2.87,0.45
		c-0.24,0.04-0.48,0.06-0.76,0.09c-0.08-0.85-0.1-1.63-0.22-2.39c-0.3-1.95-0.62-3.89-0.97-5.83c-0.08-0.43-0.22-0.89-0.46-1.26
		c-0.56-0.87-1.58-1.16-2.46-0.77c-0.89,0.39-1.32,1.29-1.12,2.32c0.17,0.85,0.32,1.71,0.44,2.57c0.28,2.01,0.85,3.98,0.89,6.03
		c0.01,0.49,0.09,0.94-0.26,1.38c-1.96,2.49-3.89,5-5.83,7.49c-0.18,0.23-0.42,0.41-0.74,0.72c-0.08-0.86-0.14-1.53-0.2-2.2
		c-0.1-1.09-0.2-2.18-0.3-3.28c-0.13-1.35-0.2-2.71-0.42-4.04c-0.19-1.17-1.18-1.82-2.25-1.63c-1.06,0.18-1.72,1.14-1.62,2.29
		c0.28,3.05,0.55,6.11,0.83,9.16c0.12,1.31,0.26,2.62,0.38,3.87c-4.38,0.89-8.76,1.78-13.27,2.7c0.34-0.44,0.64-0.81,0.93-1.18
		c1.55-1.98,3.24-3.86,4.55-6.04c0.98-1.63,1.95-3.27,3.36-4.61c0.39-0.37,0.65-0.99,0.75-1.54c0.13-0.79,0.09-1.61,0.07-2.41
		c-0.07-2.71-0.15-5.42-0.26-8.12c-0.1-2.48-0.18-4.97-0.37-7.45c-0.22-2.86-0.53-5.72-0.85-8.57c-0.1-0.91-0.64-1.53-1.58-1.74
		c-0.28-0.06-0.57-0.13-0.85-0.21c-0.93-0.27-1.68,0.05-2.23,0.78c-0.98,1.32-1.96,2.65-2.85,4.03c-1.37,2.11-2.67,4.27-3.99,6.42
		c-0.49,0.8-0.98,1.6-1.47,2.41l-4.66,18.52c0.16,1.56,0.37,3.12,0.73,4.66c0.19,0.79,0.3,1.59,0.43,2.39
		c0.03,0.19,0.01,0.4,0.02,0.67c-0.87-0.76-1.72-1.51-2.56-2.25l-1.09,4.33c0.03,0.03,0.07,0.06,0.1,0.09
		c1.25,1.17,2.44,2.41,3.68,3.59c0.44,0.41,0.53,0.84,0.32,1.38c-0.37,0.92-0.72,1.86-1.1,2.78c-0.82,2-1.62,4.01-2.15,6.11
		c-0.09,0.34-0.17,0.69-0.29,1.15c-1.27-0.81-2.47-1.56-3.76-2.38l-1.02,4.05c1.34,0.8,2.6,1.69,3.8,2.68
		c-0.14,0.93-0.29,1.84-0.41,2.76c-0.18,1.41-0.3,2.82-0.51,4.22c-0.1,0.69-0.3,1.39-0.54,2.05c-0.41,1.15-0.89,2.27-1.42,3.59
		c-1.05-1.3-1.97-2.42-2.87-3.56c-0.22-0.28-0.37-0.61-0.51-0.93c-0.06-0.13-0.12-0.27-0.17-0.4l-1.61,6.4
		c0.11,0.27,0.22,0.53,0.33,0.8c0.05,0.11,0.07,0.23,0.12,0.44c-0.26-0.03-0.5-0.04-0.75-0.07l-1.25,4.98
		c0.22,0.11,0.44,0.22,0.69,0.34c-0.34,0.29-0.67,0.57-0.99,0.84l-1.62,6.43c0.19-0.14,0.37-0.28,0.56-0.42
		c1.04-0.73,2.3-1.15,3.47-1.68c0.41-0.19,0.84-0.3,1.34-0.48c-0.03,0.67-0.02,1.3-0.09,1.91c-0.19,1.86-0.58,3.67-1.33,5.41
		c-0.65,1.5-1.18,3.06-1.74,4.6c-0.11,0.3-0.23,0.49-0.58,0.55c-1.41,0.24-2.83,0.39-4.25,0.47l-1.02,4.06
		c1.49-0.11,2.89-0.22,4.37-0.33c-0.01,0.15,0,0.26-0.02,0.37c-0.3,1.49-0.63,2.97-0.9,4.46c-0.14,0.79-0.17,1.6-0.26,2.4
		c-0.13,1.12-0.27,2.23-0.4,3.35c-0.06,0.54-0.33,0.84-0.89,0.99c-1.7,0.46-3.39,0.96-5.09,1.42l-1.1,4.36
		c1.12-0.23,2.22-0.45,3.35-0.68c-0.28,0.37-0.51,0.67-0.74,0.97c-1.33,1.7-2.75,3.33-3.97,5.12l-4.65,18.47
		c0.03,0.6,0.07,1.19,0.09,1.79C835.29,193.81,835.58,198.25,836.24,202.66z M890.14,167.28c0.69,0.67,1.54,1.18,2.35,1.7
		c0.33,0.21,0.55,0.43,0.66,0.78c0.14,0.43,0.27,0.86,0.39,1.3c0.5,1.97,1.17,3.89,1.54,5.9c0.36,1.99,1.09,3.92,1.58,5.89
		c0.54,2.16,1,4.34,1.49,6.52c0.05,0.21,0.04,0.43,0.08,0.81c-0.38-0.27-0.66-0.42-0.89-0.62c-2.06-1.81-4.1-3.65-6.17-5.45
		c-1.56-1.36-2.95-2.88-4.57-4.18c-1.35-1.09-2.52-2.41-3.76-3.64c-0.4-0.4-0.59-0.85-0.6-1.46c-0.01-0.9-0.14-1.81-0.37-2.68
		c-0.78-2.98-1.26-6-1.51-9.07c-0.09-1.08-0.25-2.16-0.38-3.24c0.14-0.01,0.22-0.04,0.26-0.01
		C883.6,162.23,887.15,164.38,890.14,167.28z M890.68,152.74c-1.99,0.19-3.99,0.29-5.99,0.37c-1.81,0.07-3.61,0.03-5.42,0.08
		c-0.51,0.01-0.79-0.17-0.99-0.59c-0.44-0.96-0.88-1.93-1.33-2.89c-0.92-1.96-1.85-3.91-2.78-5.86c-0.16-0.34-0.37-0.66-0.58-1.02
		c1.48-0.32,2.86-0.63,4.36-0.96c0.12,0.37,0.27,0.72,0.35,1.08c0.2,0.98,0.36,1.97,0.56,2.95c0.06,0.28,0.13,0.57,0.25,0.83
		c0.42,0.88,1.34,1.31,2.25,1.09c0.74-0.17,1.61-1.03,1.45-2.02c-0.18-1.15-0.39-2.29-0.59-3.43c-0.06-0.31-0.13-0.63-0.21-1.01
		c1.25-0.14,2.45-0.28,3.65-0.42c0.38-0.05,0.78-0.08,1.14-0.21c0.81-0.28,1.28-1.05,1.24-1.89c-0.04-0.86-0.57-1.47-1.43-1.73
		c-0.77-0.23-1.54-0.08-2.3,0.01c-0.93,0.1-1.85,0.19-2.92,0.29c-0.13-1.58-0.24-3.04-0.37-4.59c0.36,0.07,0.63,0.1,0.9,0.17
		c2.45,0.6,4.92,0.97,7.45,1.07c0.99,0.04,1.96,0.34,2.97,0.53c1.84,5.68,3.21,11.41,3.99,17.41
		C894.39,152.25,892.54,152.56,890.68,152.74z M866.88,128.39c0.67,0.07,1.36,0.09,2.01,0.26c0.87,0.23,1.71,0.57,2.55,0.9
		c1.74,0.67,3.48,1.36,5.4,2.11c0.19,1.93,0.39,4,0.6,6.15c-2.12,0.64-4.16,1.06-6.21,1.27c-1.29-1.65-2.5-3.34-3.85-4.89
		c-1.52-1.73-2.13-3.87-3.09-6.03C865.25,128.24,866.07,128.3,866.88,128.39z M865.62,122.92c1.44-1.23,2.72-2.42,4.24-3.27
		c0.81-0.45,1.71-0.76,2.57-1.13c1.47-0.65,2.95-1.29,4.46-1.96c1.69,1.14,3.29,2.47,4.8,3.97c-1.01,1.89-2.15,3.63-3.44,5.17
		c-2.59-0.29-5.11-0.56-7.63-0.85c-0.29-0.03-0.58-0.1-0.84-0.21C868.44,124.1,867.11,123.54,865.62,122.92z M900.05,133.89
		c1.81-0.34,3.61-0.73,5.44-0.99c1.69-0.25,3.41-0.34,5.11-0.53c1.31-0.15,2.62-0.37,3.93-0.54c0.27-0.03,0.57-0.02,0.82,0.08
		c0.47,0.19,0.93,0.45,1.37,0.71c1.73,1,3.52,1.89,5.18,3.03c1.7,1.16,3.59,2.04,5.36,3.1c1.88,1.13,3.72,2.33,5.58,3.51
		c0.18,0.12,0.34,0.29,0.71,0.6c-1.6,0.14-2.98,0.29-4.36,0.37c-2.32,0.13-4.64,0.24-6.97,0.32c-3.09,0.11-6.19,0.2-9.28,0.29
		c-0.59,0.02-1.09-0.13-1.57-0.58c-0.67-0.64-1.43-1.22-2.24-1.69c-2.56-1.52-4.98-3.24-7.25-5.17c-0.9-0.77-1.85-1.46-2.91-2.29
		C899.43,134,899.74,133.94,900.05,133.89z M895.81,100.47c1.89-2.83,3.84-5.59,6.19-8.07c0.64-0.67,1.14-1.49,1.63-2.28
		c0.22-0.36,0.46-0.61,0.85-0.72c2.02-0.57,4.04-1.15,6.06-1.7c1.68-0.45,3.37-0.89,5.06-1.3c2.76-0.67,5.53-1.31,8.3-1.96
		c0.25-0.06,0.51-0.07,0.98-0.13c-0.27,0.39-0.43,0.68-0.64,0.92c-2.36,2.66-4.71,5.33-7.1,7.95c-1.89,2.07-3.85,4.09-5.77,6.14
		c-0.57,0.61-1.17,0.98-2.07,1.02c-1.12,0.04-2.25,0.27-3.34,0.56c-2.8,0.73-5.65,1.04-8.52,1.33c-0.95,0.09-1.9,0.22-2.86,0.34
		c-0.04-0.07-0.07-0.13-0.11-0.2C894.93,101.73,895.39,101.11,895.81,100.47z M889.69,107.9c0.18-0.11,0.49-0.1,0.72-0.06
		c0.21,0.04,0.41,0.18,0.61,0.29c2.59,1.51,5.22,2.97,7.77,4.56c2,1.25,3.89,2.65,5.83,3.99c0.16,0.11,0.29,0.25,0.46,0.39
		c-0.09,0.16-0.15,0.31-0.24,0.43c-2.04,2.75-4.18,5.42-6.51,7.94c-1.38,1.49-2.85,2.91-4.23,4.4c-0.49,0.53-0.96,0.58-1.63,0.41
		c-1.23-0.32-2.34-0.89-3.5-1.38c-1.94-0.81-3.91-1.51-5.95-2.02c-0.12-0.03-0.24-0.09-0.45-0.17c0.84-1.3,1.62-2.51,2.46-3.82
		c0.86,0.57,1.64,1.09,2.41,1.61c0.46,0.3,0.89,0.64,1.37,0.91c1.03,0.57,2.16,0.31,2.74-0.59c0.59-0.91,0.36-2.02-0.62-2.72
		c-1.12-0.81-2.28-1.57-3.47-2.38c0.81-1,1.62-1.95,2.37-2.95c0.32-0.43,0.63-0.93,0.72-1.43c0.16-0.86-0.31-1.57-1.11-1.96
		c-0.67-0.33-1.55-0.22-2.15,0.36c-0.44,0.42-0.8,0.92-1.2,1.39c-0.62,0.74-1.23,1.47-1.89,2.27c-1.2-1.03-2.29-1.97-3.47-2.98
		c0.4-0.25,0.75-0.45,1.09-0.67c1.97-1.29,3.88-2.66,5.62-4.27C888.11,108.82,888.92,108.38,889.69,107.9z M878.78,87.66
		c2.42-0.56,4.88-0.92,7.33-1.37c0.15-0.03,0.31-0.03,0.52-0.06c0.06,0.21,0.12,0.39,0.15,0.57c0.47,3.2,0.83,6.41,0.97,9.63
		c0.1,2.19,0.08,4.39,0.15,6.58c0.02,0.72-0.24,1.16-0.88,1.44c-1.39,0.6-2.79,1.18-4.16,1.83c-1.6,0.76-3.18,1.58-4.76,2.38
		c-0.17,0.09-0.34,0.18-0.58,0.31c-0.33-1.51-0.64-2.89-0.97-4.4c0.7-0.17,1.37-0.36,2.05-0.5c0.79-0.17,1.6-0.26,2.38-0.45
		c0.96-0.24,1.57-0.99,1.58-1.84c0.02-1.32-0.99-2.21-2.36-2.01c-1.12,0.16-2.22,0.41-3.33,0.62c-0.25,0.05-0.51,0.1-0.82,0.17
		c-0.13-1.2-0.26-2.38-0.4-3.55c-0.04-0.35-0.06-0.71-0.15-1.05c-0.25-0.91-1.05-1.48-1.95-1.44c-0.87,0.04-1.64,0.61-1.77,1.51
		c-0.1,0.72-0.02,1.47,0.03,2.21c0.07,0.95,0.18,1.91,0.28,2.96c-1.57,0.12-3.01,0.23-4.53,0.35c0.06-0.34,0.09-0.62,0.16-0.88
		c0.55-2.16,0.86-4.37,1.01-6.59c0.07-1.07,0.25-2.1,0.43-3.15c0.09-0.55,0.37-0.83,0.91-0.97
		C872.97,89.19,875.85,88.33,878.78,87.66z M866.8,66.71c1.23-1.9,2.12-3.98,3.42-5.85c1.2-1.71,2.07-3.65,3.15-5.44
		c1.26-2.1,2.6-4.16,3.9-6.23c0.07,0.01,0.14,0.02,0.22,0.02c0.06,0.32,0.15,0.64,0.17,0.96c0.22,3.61,0.45,7.22,0.62,10.83
		c0.13,2.74,0.15,5.48,0.25,8.22c0.03,0.83-0.1,1.52-0.73,2.18c-0.75,0.79-1.36,1.73-1.92,2.67c-1.39,2.35-3.02,4.51-4.76,6.59
		c-0.76,0.91-1.48,1.86-2.35,2.97c-0.64-4.24-1.7-8.19-1.74-12.29c-0.01-0.99-0.19-2-0.45-2.96
		C866.42,67.74,866.47,67.21,866.8,66.71z M863.35,113.64c0.24-1.15,0.79-2.24,1.22-3.35c0.57-1.47,1.16-2.93,1.82-4.59
		c1.98-0.19,4.02-0.38,6.11-0.58c0.67,2.11,1.06,4.15,1.28,6.2c-2.04,1.6-4.01,3.27-6.12,4.76c-1.06,0.75-2.36,1.16-3.56,1.7
		c-0.37,0.17-0.77,0.27-1.27,0.43C862.99,116.61,863.04,115.1,863.35,113.64z M857.7,135.98c0.03-0.29,0.09-0.58,0.2-0.85
		c0.55-1.37,1.12-2.72,1.73-4.22c0.52,0.61,0.94,1.16,1.43,1.66c1.54,1.6,2.32,3.62,3.18,5.6c0.56,1.3,1.14,2.6,1.75,3.99
		c-1.06,1.7-2.45,3.24-3.94,4.82c-1.87-0.97-3.59-2.13-5.19-3.43C857.14,140.97,857.42,138.48,857.7,135.98z M852.25,157.99
		c0.32-1.29,0.9-2.48,1.42-3.69c0.83-1.93,1.51-3.91,2.03-5.94c0.04-0.15,0.11-0.28,0.19-0.47c1.27,0.81,2.48,1.59,3.81,2.44
		c-0.55,0.84-1.06,1.61-1.57,2.39c-0.3,0.46-0.64,0.89-0.91,1.37c-0.59,1.02-0.37,2.24,0.52,2.75c0.92,0.52,1.95,0.55,2.8-0.63
		c0.78-1.1,1.53-2.23,2.34-3.41c0.94,0.75,1.86,1.49,2.78,2.22c0.23,0.18,0.44,0.38,0.69,0.54c0.86,0.56,1.91,0.44,2.56-0.28
		c0.68-0.75,0.71-1.86-0.01-2.64c-0.43-0.47-0.97-0.85-1.46-1.26c-0.71-0.6-1.43-1.19-2.22-1.83c1.02-1.19,1.96-2.28,2.95-3.44
		c0.17,0.23,0.32,0.42,0.45,0.63c1.36,2.17,2.85,4.22,4.59,6.11c0.58,0.63,0.98,1.44,1.48,2.15c0.28,0.4,0.09,0.75-0.09,1.09
		c-0.78,1.45-1.54,2.91-2.38,4.33c-1.1,1.86-2.24,3.71-3.44,5.51c-1.02,1.53-2.14,2.99-3.26,4.52c-0.24-0.16-0.45-0.29-0.65-0.43
		c-3-2.2-5.84-4.59-8.57-7.11c-1.26-1.16-2.43-2.41-3.67-3.59C852.21,158.9,852.12,158.53,852.25,157.99z M839.32,176.63
		c0.72-0.82,1.35-1.73,1.94-2.65c1.21-1.87,2.36-3.78,3.82-5.48c1.14-1.32,2.18-2.72,3.29-4.12c0.09,0.1,0.13,0.12,0.13,0.15
		c0.63,3.82,1.6,7.59,1.7,11.49c0.03,1.12,0.18,2.26,0.45,3.35c0.19,0.77,0.07,1.39-0.32,2c-1.2,1.88-2.1,3.92-3.38,5.76
		c-1.19,1.71-2.07,3.65-3.15,5.44c-1.13,1.88-2.33,3.72-3.51,5.57c-0.12,0.18-0.28,0.33-0.54,0.63c-0.07-0.55-0.14-0.95-0.17-1.35
		c-0.2-3.38-0.43-6.77-0.58-10.15c-0.14-3-0.18-6-0.27-8.99C838.7,177.65,838.87,177.14,839.32,176.63z"/>
	<g>
		<path class="st0" d="M461.08,49.22c-0.87,0.58-1.64,1.07-2.37,1.61c-0.5,0.36-1.07,0.38-1.46-0.03c-0.41-0.43-0.4-1.07,0.05-1.5
			c0.21-0.2,0.45-0.36,0.69-0.52c0.89-0.59,1.78-1.18,2.67-1.76c0.21-0.14,0.34-0.29,0.33-0.57c-0.04-0.89-0.05-1.79-0.07-2.69
			c0-0.07-0.01-0.13-0.02-0.23c-0.29-0.05-0.52,0.08-0.77,0.16c-0.9,0.29-1.79,0.63-2.7,0.86c-0.77,0.19-1.43-0.13-1.91-0.76
			c-0.21-0.28-0.35-0.61-0.51-0.93c-0.32-0.65-0.64-1.31-0.96-1.96c-0.06-0.12-0.15-0.21-0.27-0.36c-0.25,0.25-0.47,0.48-0.7,0.69
			c-0.45,0.43-0.9,0.87-1.37,1.29c-0.23,0.2-0.31,0.41-0.24,0.71c0.21,0.96,0.4,1.92,0.6,2.88c0.06,0.3,0.11,0.6,0.16,0.9
			c0.1,0.64-0.32,1.21-0.94,1.27c-0.59,0.06-1.03-0.39-1.13-1.05c-0.13-0.88-0.33-1.76-0.51-2.7c-0.15,0.12-0.26,0.19-0.34,0.28
			c-1.1,1.12-2.21,2.25-3.3,3.38c-0.16,0.17-0.3,0.37-0.41,0.57c-0.06,0.11-0.09,0.26-0.07,0.38c0.12,0.95,0.26,1.91,0.4,2.86
			c0.14,0.95,0.29,1.9,0.44,2.85c0.09,0.57-0.32,1.16-0.86,1.25c-0.61,0.1-1.12-0.25-1.22-0.87c-0.12-0.72-0.2-1.44-0.3-2.16
			c-0.12-0.89-0.25-1.77-0.37-2.66c-0.06-0.42-0.1-0.83-0.16-1.27c-0.33-0.05-0.63-0.1-0.92-0.15c-1.39-0.19-2.78-0.38-4.17-0.57
			c-0.33-0.05-0.67-0.07-1-0.14c-0.64-0.13-1-0.63-0.88-1.2c0.11-0.58,0.68-0.95,1.3-0.85c0.5,0.08,1,0.17,1.5,0.24
			c1.35,0.19,2.71,0.37,4.06,0.57c0.25,0.04,0.47-0.01,0.67-0.16c0.13-0.1,0.28-0.2,0.4-0.31c1.12-1.09,2.23-2.18,3.34-3.27
			c0.09-0.09,0.18-0.2,0.32-0.36c-0.36-0.07-0.67-0.14-0.97-0.2c-0.65-0.13-1.29-0.25-1.94-0.37c-0.49-0.09-0.9-0.57-0.86-1.04
			c0.04-0.52,0.47-0.99,0.98-0.99c0.37,0,0.74,0.06,1.1,0.13c1.03,0.2,2.05,0.41,3.08,0.63c0.18,0.04,0.33,0.03,0.46-0.11
			c0.7-0.74,1.39-1.47,2.12-2.24c-0.16-0.11-0.29-0.22-0.43-0.29c-0.7-0.34-1.4-0.67-2.11-1c-0.69-0.32-1.23-0.77-1.44-1.53
			c-0.15-0.57,0.01-1.1,0.19-1.64c0.26-0.73,0.52-1.46,0.77-2.2c0.04-0.12,0.05-0.26,0.09-0.43c-0.13-0.02-0.24-0.05-0.35-0.05
			c-0.86-0.01-1.73-0.01-2.59-0.04c-0.27-0.01-0.44,0.07-0.58,0.3c-0.57,0.88-1.15,1.76-1.73,2.63c-0.17,0.25-0.34,0.51-0.55,0.73
			c-0.42,0.45-1.08,0.46-1.5,0.07c-0.41-0.38-0.39-0.98-0.04-1.47c0.53-0.73,1.02-1.5,1.6-2.36c-0.68,0-1.24,0-1.81,0
			c-1.03,0.01-2.07,0.02-3.1,0.03c-0.12,0-0.24-0.01-0.36,0c-0.46,0.06-0.84,0.18-1.15,0.61c-1.05,1.47-2.16,2.91-3.24,4.36
			c-0.38,0.51-1.04,0.63-1.53,0.29c-0.5-0.36-0.58-0.97-0.19-1.52c0.3-0.41,0.62-0.81,0.93-1.21c0.8-1.05,1.6-2.1,2.4-3.15
			c0.11-0.15,0.22-0.3,0.33-0.46c-0.07-0.12-0.12-0.22-0.19-0.32c-1.1-1.44-2.19-2.88-3.29-4.32c-0.07-0.09-0.15-0.18-0.21-0.28
			c-0.35-0.54-0.25-1.14,0.24-1.48c0.47-0.32,1.13-0.2,1.49,0.28c0.26,0.35,0.5,0.72,0.77,1.07c0.89,1.18,1.78,2.34,2.67,3.52
			c0.26,0.34,0.63,0.36,1,0.37c0.74,0.02,1.49,0,2.24,0.01c0.83,0.01,1.66,0.04,2.48,0.07c0.13,0,0.26,0,0.46,0
			c-0.08-0.16-0.11-0.26-0.17-0.35c-0.48-0.71-0.96-1.43-1.45-2.14c-0.29-0.42-0.24-1,0.12-1.34c0.39-0.37,0.98-0.41,1.39-0.04
			c0.25,0.22,0.45,0.51,0.64,0.79c0.61,0.9,1.2,1.8,1.79,2.71c0.13,0.21,0.29,0.29,0.54,0.28c0.9-0.03,1.79-0.05,2.69-0.07
			c0.08,0,0.16-0.02,0.26-0.04c-0.03-0.17-0.04-0.32-0.09-0.46c-0.25-0.73-0.51-1.47-0.78-2.2c-0.26-0.71-0.34-1.4,0.03-2.11
			c0.28-0.54,0.78-0.79,1.27-1.04c0.7-0.35,1.4-0.67,2.1-1.01c0.13-0.06,0.24-0.17,0.41-0.29c-0.27-0.27-0.5-0.5-0.73-0.74
			c-0.42-0.44-0.85-0.88-1.25-1.33c-0.2-0.23-0.42-0.3-0.72-0.24c-1.02,0.22-2.05,0.43-3.08,0.64c-0.28,0.06-0.56,0.11-0.85,0.13
			c-0.56,0.04-1.09-0.45-1.13-1.02c-0.04-0.51,0.4-0.97,0.96-1.07c0.86-0.15,1.72-0.33,2.58-0.49c0.05-0.01,0.1-0.03,0.19-0.07
			c-0.09-0.11-0.16-0.22-0.25-0.3c-1.12-1.1-2.24-2.21-3.38-3.3c-0.17-0.16-0.37-0.3-0.57-0.41c-0.11-0.06-0.26-0.09-0.38-0.08
			c-1.9,0.27-3.81,0.55-5.71,0.84c-0.59,0.09-1.18-0.32-1.27-0.9c-0.09-0.57,0.3-1.09,0.92-1.18c1.02-0.14,2.04-0.26,3.06-0.4
			c0.98-0.14,1.97-0.29,2.99-0.44c0.06-0.49,0.12-0.97,0.19-1.45c0.16-1.12,0.32-2.24,0.47-3.36c0.05-0.38,0.1-0.77,0.15-1.15
			c0.09-0.68,0.62-1.11,1.22-0.99c0.6,0.11,0.96,0.71,0.86,1.34c-0.16,0.95-0.29,1.9-0.43,2.85c-0.13,0.9-0.24,1.81-0.38,2.71
			c-0.03,0.2-0.02,0.36,0.1,0.52c0.12,0.16,0.22,0.34,0.36,0.49c1.12,1.15,2.25,2.3,3.38,3.45c0.06,0.06,0.12,0.11,0.25,0.22
			c0.08-0.35,0.16-0.65,0.22-0.95c0.12-0.65,0.24-1.29,0.36-1.94c0.11-0.56,0.63-0.95,1.14-0.86c0.59,0.11,1.02,0.63,0.92,1.2
			c-0.12,0.72-0.28,1.42-0.42,2.14c-0.12,0.58-0.23,1.16-0.34,1.74c-0.03,0.18-0.08,0.36,0.09,0.52c0.74,0.69,1.47,1.39,2.25,2.13
			c0.11-0.17,0.23-0.31,0.3-0.47c0.34-0.7,0.65-1.41,1.01-2.1c0.26-0.51,0.54-0.99,1.12-1.25c0.7-0.32,1.35-0.19,2.01,0.04
			c0.73,0.26,1.46,0.52,2.2,0.77c0.13,0.04,0.26,0.05,0.42,0.09c0.02-0.13,0.04-0.24,0.04-0.35c0.03-0.86,0.04-1.72,0.07-2.58
			c0.01-0.24-0.05-0.41-0.27-0.55c-0.9-0.58-1.78-1.17-2.67-1.76c-0.27-0.18-0.54-0.36-0.77-0.58c-0.43-0.42-0.43-1.04-0.05-1.46
			c0.38-0.42,0.98-0.41,1.46-0.06c0.75,0.54,1.52,1.04,2.38,1.62c0-0.68,0.01-1.23,0-1.78c-0.02-1.1-0.04-2.2-0.07-3.3
			c-0.01-0.25-0.04-0.51-0.11-0.75c-0.04-0.15-0.14-0.31-0.26-0.4c-1.51-1.14-3.03-2.28-4.55-3.41c-0.37-0.28-0.55-0.64-0.49-1.1
			c0.05-0.41,0.29-0.68,0.66-0.83c0.39-0.15,0.73-0.05,1.05,0.19c0.73,0.55,1.45,1.12,2.17,1.67c0.79,0.61,1.59,1.21,2.39,1.81
			c0.08,0.06,0.17,0.11,0.26,0.17c0.11-0.07,0.21-0.13,0.31-0.2c1.43-1.09,2.86-2.17,4.28-3.26c0.09-0.07,0.18-0.15,0.28-0.22
			c0.54-0.36,1.13-0.28,1.49,0.2c0.35,0.48,0.24,1.15-0.27,1.53c-0.34,0.25-0.69,0.48-1.03,0.74c-1.19,0.9-2.37,1.8-3.56,2.7
			c-0.33,0.25-0.32,0.61-0.38,0.95c-0.04,0.2-0.01,0.41-0.01,0.61c-0.01,1.37-0.02,2.74-0.03,4.11c0,0.15,0.01,0.29,0.03,0.5
			c0.15-0.09,0.25-0.14,0.34-0.2c0.7-0.47,1.4-0.95,2.09-1.43c0.42-0.29,1-0.26,1.35,0.11c0.38,0.39,0.41,1.03,0.03,1.43
			c-0.22,0.23-0.49,0.42-0.75,0.6c-0.89,0.59-1.78,1.17-2.67,1.76c-0.17,0.11-0.32,0.22-0.32,0.47c0.01,1,0.01,1.99,0.01,3.08
			c0.34-0.09,0.59-0.15,0.83-0.23c0.85-0.28,1.69-0.6,2.55-0.84c0.9-0.25,1.72,0.09,2.18,0.89c0.44,0.76,0.8,1.56,1.19,2.35
			c0.12,0.24,0.25,0.47,0.39,0.74c0.15-0.13,0.25-0.21,0.34-0.3c0.59-0.56,1.17-1.13,1.76-1.68c0.21-0.2,0.32-0.38,0.24-0.7
			c-0.23-1-0.43-2.02-0.62-3.03c-0.06-0.31-0.12-0.63-0.13-0.95c-0.02-0.59,0.47-1.09,1.04-1.1c0.52-0.01,0.94,0.44,1.03,1
			c0.11,0.73,0.28,1.46,0.42,2.19c0.03,0.17,0.07,0.33,0.12,0.54c0.11-0.07,0.21-0.12,0.28-0.19c0.47-0.49,0.93-0.98,1.41-1.46
			c0.6-0.62,1.22-1.22,1.83-1.84c0.16-0.17,0.3-0.36,0.45-0.55c0.16-0.2,0.18-0.42,0.14-0.67c-0.2-1.42-0.39-2.84-0.59-4.26
			c-0.06-0.43-0.15-0.87-0.21-1.3c-0.07-0.44,0.07-0.81,0.42-1.08c0.32-0.25,0.68-0.29,1.05-0.12c0.33,0.15,0.53,0.41,0.58,0.78
			c0.09,0.65,0.18,1.3,0.27,1.96c0.18,1.32,0.36,2.64,0.54,3.96c0.01,0.05,0.03,0.09,0.06,0.19c0.45,0.06,0.91,0.13,1.37,0.19
			c1.12,0.16,2.24,0.31,3.36,0.47c0.38,0.05,0.77,0.1,1.15,0.15c0.76,0.09,1.17,0.59,1.04,1.27c-0.11,0.58-0.71,0.92-1.37,0.81
			c-0.95-0.16-1.9-0.28-2.86-0.42c-0.9-0.13-1.8-0.26-2.71-0.38c-0.14-0.02-0.3,0.01-0.43,0.08c-0.19,0.1-0.38,0.23-0.53,0.38
			c-1.15,1.12-2.3,2.25-3.45,3.37c-0.07,0.07-0.13,0.15-0.23,0.27c0.25,0.05,0.44,0.1,0.63,0.13c0.75,0.14,1.49,0.29,2.24,0.43
			c0.58,0.11,0.97,0.63,0.87,1.17c-0.1,0.58-0.64,0.99-1.22,0.88c-0.86-0.15-1.72-0.34-2.58-0.51c-0.43-0.09-0.86-0.16-1.3-0.24
			c-0.21-0.04-0.39-0.03-0.55,0.15c-0.67,0.72-1.35,1.43-2.04,2.16c0.16,0.23,0.42,0.31,0.65,0.43c0.82,0.41,1.65,0.79,2.44,1.24
			c0.72,0.41,1.07,1.25,0.86,2.05c-0.24,0.89-0.56,1.77-0.85,2.65c-0.08,0.24-0.14,0.48-0.24,0.78c0.24,0,0.41,0,0.57,0
			c0.78,0.02,1.55,0.03,2.33,0.07c0.31,0.02,0.5-0.08,0.67-0.34c0.57-0.9,1.16-1.79,1.75-2.67c0.15-0.22,0.31-0.45,0.49-0.65
			c0.43-0.46,1.05-0.5,1.5-0.1c0.44,0.39,0.43,0.98,0.05,1.5c-0.54,0.73-1.02,1.5-1.59,2.36c0.7,0,1.28,0.01,1.86,0
			c0.62-0.01,1.25-0.05,1.87-0.06c0.49-0.01,0.98,0,1.47,0c0.49,0,0.88-0.14,1.2-0.59c1.06-1.47,2.16-2.91,3.24-4.36
			c0.29-0.39,0.69-0.55,1.16-0.45c0.44,0.09,0.69,0.39,0.8,0.83c0.07,0.31-0.04,0.57-0.21,0.81c-0.17,0.23-0.36,0.45-0.54,0.67
			c-0.96,1.27-1.92,2.54-2.87,3.81c-0.09,0.12-0.17,0.25-0.28,0.4c0.06,0.1,0.12,0.2,0.19,0.29c1.1,1.44,2.19,2.88,3.29,4.32
			c0.08,0.11,0.17,0.21,0.24,0.32c0.31,0.5,0.22,1.07-0.21,1.41c-0.44,0.34-1.08,0.28-1.47-0.14c-0.1-0.11-0.17-0.25-0.26-0.37
			c-1.08-1.43-2.17-2.86-3.24-4.3c-0.27-0.37-0.67-0.35-1.04-0.4c-0.23-0.03-0.47-0.01-0.71-0.01c-1.34-0.01-2.67-0.02-4.01-0.03
			c-0.12,0-0.24,0.01-0.41,0.02c0.07,0.14,0.12,0.26,0.19,0.36c0.47,0.7,0.95,1.4,1.42,2.1c0.3,0.43,0.25,0.99-0.13,1.34
			c-0.38,0.36-1,0.4-1.39,0.04c-0.25-0.23-0.45-0.51-0.63-0.79c-0.6-0.88-1.18-1.78-1.76-2.67c-0.11-0.18-0.22-0.31-0.48-0.31
			c-0.96,0.03-1.93,0.03-2.89,0.05c-0.03,0-0.06,0.02-0.16,0.06c0.07,0.24,0.14,0.5,0.22,0.75c0.28,0.88,0.6,1.76,0.85,2.65
			c0.2,0.75-0.15,1.57-0.8,1.99c-0.28,0.18-0.59,0.33-0.89,0.48c-0.65,0.32-1.31,0.64-1.96,0.96c-0.12,0.06-0.21,0.15-0.34,0.25
			c0.13,0.14,0.25,0.26,0.36,0.39c0.53,0.55,1.06,1.1,1.57,1.66c0.22,0.24,0.43,0.36,0.79,0.27c0.97-0.23,1.95-0.42,2.93-0.61
			c0.33-0.07,0.67-0.12,1-0.14c0.58-0.02,1.05,0.43,1.08,0.99c0.03,0.56-0.4,0.98-1,1.07c-0.89,0.14-1.78,0.34-2.74,0.53
			c0.11,0.14,0.16,0.24,0.24,0.32c1.13,1.12,2.27,2.23,3.41,3.34c0.38,0.38,0.8,0.52,1.37,0.42c1.31-0.23,2.64-0.37,3.96-0.56
			c0.42-0.06,0.83-0.14,1.25-0.21c0.77-0.13,1.38,0.38,1.33,1.12c-0.03,0.44-0.3,0.81-0.76,0.9c-0.46,0.1-0.93,0.14-1.4,0.21
			c-1.47,0.2-2.94,0.4-4.42,0.6c-0.39,0.05-0.4,0.06-0.46,0.45c-0.24,1.79-0.48,3.58-0.73,5.37c-0.01,0.1-0.03,0.2-0.05,0.3
			c-0.15,0.68-0.61,1.01-1.24,0.9c-0.54-0.1-0.92-0.67-0.83-1.27c0.08-0.52,0.18-1.03,0.25-1.55c0.19-1.37,0.38-2.74,0.56-4.11
			c0.02-0.15-0.04-0.33-0.1-0.47c-0.08-0.17-0.19-0.32-0.32-0.45c-1.14-1.18-2.3-2.35-3.45-3.52c-0.06-0.06-0.13-0.1-0.25-0.19
			c-0.19,0.96-0.39,1.86-0.53,2.77c-0.09,0.57-0.49,0.99-1.03,0.98c-0.56-0.01-1.04-0.47-1.03-1.04c0.01-0.35,0.07-0.71,0.14-1.05
			c0.2-1.03,0.42-2.05,0.61-3.08c0.02-0.13,0-0.33-0.08-0.41c-0.73-0.72-1.48-1.42-2.25-2.15c-0.09,0.13-0.18,0.23-0.24,0.35
			c-0.34,0.68-0.67,1.37-1,2.05c-0.05,0.11-0.09,0.22-0.14,0.32c-0.63,1.24-1.72,1.57-2.99,1.09c-0.73-0.27-1.46-0.53-2.2-0.78
			c-0.16-0.05-0.32-0.08-0.52-0.12c-0.02,0.17-0.04,0.3-0.04,0.42c-0.01,0.83-0.02,1.66-0.04,2.49c-0.01,0.28,0.07,0.47,0.32,0.63
			c0.9,0.57,1.79,1.16,2.67,1.75c0.22,0.15,0.45,0.31,0.65,0.49c0.45,0.42,0.49,1.07,0.11,1.5c-0.39,0.44-0.98,0.43-1.5,0.05
			c-0.73-0.54-1.5-1.02-2.35-1.58c0,0.66,0,1.21,0,1.76c0.01,1.08,0.02,2.17,0.04,3.25c0,0.2,0.04,0.4,0.06,0.6
			c0.04,0.33,0.21,0.54,0.48,0.73c1.49,1.09,2.96,2.2,4.43,3.31c0.37,0.28,0.54,0.65,0.45,1.11c-0.09,0.46-0.39,0.74-0.85,0.83
			c-0.35,0.07-0.63-0.07-0.89-0.27c-0.73-0.56-1.44-1.12-2.17-1.67c-0.86-0.65-1.73-1.29-2.61-1.95c-0.1,0.07-0.21,0.12-0.3,0.19
			c-1.44,1.1-2.88,2.19-4.32,3.29c-0.31,0.24-0.62,0.49-1.05,0.41c-0.44-0.08-0.75-0.33-0.85-0.77c-0.11-0.45,0.01-0.86,0.38-1.14
			c0.89-0.68,1.79-1.34,2.68-2c0.66-0.5,1.33-0.99,1.98-1.5c0.11-0.08,0.19-0.23,0.23-0.37c0.06-0.24,0.1-0.5,0.11-0.75
			c0.02-0.46,0-0.91,0.01-1.37c0.02-1.03,0.04-2.06,0.07-3.09C461.08,49.68,461.08,49.52,461.08,49.22z M463.3,41.27
			c1.33,0.43,2.58,0.83,3.84,1.23c0.61-1.19,1.21-2.35,1.82-3.53c-0.95-1.23-4.85-5.11-5.63-5.57
			C463.12,36.04,463.26,38.66,463.3,41.27z M465.03,31.62c0.65,0.72,1.2,1.39,1.81,2c0.93,0.94,1.89,1.84,2.85,2.75
			c0.33,0.31,0.67,0.61,0.97,0.89c1.21-0.62,2.37-1.22,3.56-1.83c-0.41-1.28-0.82-2.54-1.23-3.84
			C470.37,31.55,467.75,31.41,465.03,31.62z M451.29,31.6c-0.42,1.3-0.82,2.56-1.23,3.83c1.2,0.62,2.36,1.22,3.58,1.85
			c1.83-1.85,3.83-3.57,5.6-5.66C456.53,31.43,453.91,31.54,451.29,31.6z M463.29,19.59c-0.02,2.62-0.18,5.24,0.04,7.95
			c2.09-1.78,3.81-3.77,5.65-5.6c-0.63-1.23-1.23-2.4-1.84-3.58C465.87,18.76,464.62,19.16,463.29,19.59z M451.3,29.28
			c2.62-0.04,5.24,0.19,7.95-0.05c-0.63-0.7-1.17-1.37-1.78-1.97c-0.98-0.98-1.99-1.93-2.99-2.89c-0.29-0.28-0.6-0.53-0.86-0.77
			c-1.21,0.63-2.38,1.23-3.55,1.83C450.48,26.71,450.88,27.96,451.3,29.28z M455.32,21.89c1.27,1.59,4.98,5.24,5.65,5.55
			c0.04-1.02,0.08-2.03,0.1-3.04c0.01-0.49-0.05-0.98-0.06-1.47c-0.01-0.68,0-1.35,0-2.03c-0.01-0.45-0.03-0.9-0.05-1.33
			c-1.3-0.42-2.56-0.82-3.82-1.22C456.53,19.54,455.93,20.69,455.32,21.89z M470.68,23.6c-2.03,1.7-5.35,5.09-5.53,5.66
			c1,0.03,1.99,0.09,2.99,0.1c0.78,0.01,1.55-0.04,2.33-0.06c0.46-0.01,0.91,0.01,1.37,0c0.4-0.01,0.8-0.04,1.16-0.05
			c0.24-0.74,0.46-1.43,0.69-2.12c0.15-0.46,0.31-0.93,0.47-1.39c0.09-0.24,0.03-0.39-0.2-0.49c-0.2-0.09-0.41-0.16-0.6-0.26
			C472.47,24.54,471.59,24.07,470.68,23.6z M460.95,33.31c-0.72,0.65-1.39,1.2-2.01,1.82c-0.95,0.94-1.86,1.92-2.78,2.88
			c-0.3,0.32-0.59,0.65-0.88,0.97c0.25,0.42,0.5,0.8,0.71,1.21c0.34,0.66,0.64,1.34,0.96,2.01c0.15,0.32,0.21,0.33,0.55,0.22
			c1.04-0.34,2.09-0.67,3.13-1c0.11-0.03,0.22-0.07,0.36-0.13C460.95,38.66,461.17,36.05,460.95,33.31z"/>
	</g>
</g>
</svg>
