<?xml version="1.0" encoding="utf-8"?>
<!-- Generator: Adobe Illustrator 27.9.0, SVG Export Plug-In . SVG Version: 6.00 Build 0)  -->
<svg version="1.1" id="Layer_1" xmlns="http://www.w3.org/2000/svg" xmlns:xlink="http://www.w3.org/1999/xlink" x="0px" y="0px"
	 viewBox="0 0 345.13 93.22" style="enable-background:new 0 0 345.13 93.22;" xml:space="preserve">
<style type="text/css">
	.st0{fill:#FFFFFF;}
	.st1{fill:url(#SVGID_1_);}
</style>
<g>
	<g>
		<g>
			<path class="st0" d="M194.53,55.41h-5.22l-4.14,15.44h-12.18l10.97-40.93h12.18l-4.03,15.06h5.57l6.1-8.49
				c0.68-0.98,1.45-1.91,2.31-2.78c0.86-0.87,1.8-1.65,2.81-2.32c1.02-0.67,2.1-1.21,3.26-1.62c1.16-0.41,2.38-0.62,3.68-0.62
				c0.7,0,1.37,0.04,2.02,0.12c0.65,0.08,1.22,0.17,1.7,0.27l1.64,0.39l-2.8,10.43h-2.43c-0.88,0-1.68,0.25-2.39,0.73
				c-0.71,0.49-1.28,1.02-1.71,1.58l-5.55,7.72l4.96,20.47h-13.23L194.53,55.41z"/>
		</g>
		<g>
			<path class="st0" d="M255.44,59.27c-1.04,3.86-2.83,6.89-5.39,9.07c-2.56,2.19-5.58,3.28-9.06,3.28h-16.01
				c-3.48,0-5.91-1.09-7.3-3.28c-1.39-2.19-1.56-5.21-0.53-9.07l4.76-17.76c1.03-3.86,2.83-6.89,5.39-9.07
				c2.55-2.19,5.58-3.28,9.05-3.28h16.01c3.48,0,5.91,1.09,7.3,3.28c1.38,2.19,1.56,5.21,0.53,9.07L255.44,59.27z M247.71,42.67
				c0.55-2.06-0.1-3.09-1.95-3.09h-8.35c-1.86,0-3.06,1.03-3.61,3.09l-4.14,15.45c-0.55,2.06,0.1,3.09,1.95,3.09h8.35
				c1.85,0,3.06-1.03,3.61-3.09L247.71,42.67z"/>
		</g>
		<g>
			<path class="st0" d="M286.34,63.9h-9.05L274.06,50l-5.59,20.85h-12.18l10.97-40.93h12.88l4.99,21.62l16.58-21.62h12.88
				l-10.97,40.93h-12.18L297.02,50L286.34,63.9z"/>
		</g>
	</g>
	<linearGradient id="SVGID_1_" gradientUnits="userSpaceOnUse" x1="-54.708" y1="-27.0655" x2="418.184" y2="86.4661">
		<stop  offset="0" style="stop-color:#E4F600"/>
		<stop  offset="0.0926" style="stop-color:#DCF200"/>
		<stop  offset="0.2386" style="stop-color:#C5E800"/>
		<stop  offset="0.419" style="stop-color:#A0D700"/>
		<stop  offset="0.4381" style="stop-color:#9CD500"/>
		<stop  offset="0.6467" style="stop-color:#95CF08"/>
		<stop  offset="0.9749" style="stop-color:#80BF1F"/>
		<stop  offset="0.9768" style="stop-color:#80BF1F"/>
		<stop  offset="1" style="stop-color:#82C01C"/>
	</linearGradient>
	<path class="st1" d="M169.36,89.46l2.44-9.11h1.48l-2.44,9.11H169.36z M173.94,76.48c0.3,0,0.39,0.19,0.31,0.48l-0.28,1.07
		c-0.09,0.34-0.27,0.49-0.57,0.49h-0.7c-0.31,0-0.41-0.15-0.32-0.49l0.28-1.07c0.08-0.3,0.27-0.48,0.58-0.48H173.94z M180.73,89.46
		h-1.47l1.13-4.23h-4.47l-1.13,4.23h-1.47l2.44-9.11h1.47l-0.98,3.67h4.47l0.98-3.67h1.47L180.73,89.46z M188.88,81.66l-2.09,7.8
		h-1.48l2.09-7.8h-3.09l0.35-1.31h7.65l-0.35,1.31H188.88z M198.39,88.11l-0.14,1.07c-0.88,0.36-2.46,0.51-3.44,0.51
		c-2.92,0-3.7-1.31-2.77-4.81c0.96-3.57,2.44-4.75,5.17-4.75c2.57,0,3.38,1.01,2.87,2.97c-0.44,1.63-1.3,2.58-2.72,2.58h-3.97
		c-0.44,2.17,0.21,2.66,1.96,2.66C196.28,88.34,197.48,88.24,198.39,88.11z M193.69,84.45h3.62c0.75,0,1.11-0.67,1.27-1.35
		c0.31-1.16-0.12-1.63-1.66-1.63C195.15,81.47,194.36,82.14,193.69,84.45z M209.31,84.95c-0.94,3.52-2.32,4.73-4.48,4.73
		c-1.08,0-2.11-0.3-2.91-0.93c-0.11,0.62-0.25,1.2-0.44,1.83l-0.71,2.64h-1.47l3.45-12.87h1.21l-0.25,1.44
		c1.22-1.03,2.73-1.66,3.96-1.66C209.77,80.12,210.16,81.79,209.31,84.95z M207.78,84.95c0.69-2.58,0.4-3.44-0.95-3.44
		c-0.93,0-1.87,0.45-3.3,1.4l-1.3,4.85c0.99,0.3,1.67,0.54,2.58,0.54C206.3,88.3,207.06,87.63,207.78,84.95z M217.54,89.46h-1.47
		l1.13-4.23h-4.47l-1.13,4.23h-1.47l2.44-9.11h1.47l-0.98,3.67h4.47l0.98-3.67h1.47L217.54,89.46z M227.13,88.11l-0.15,1.07
		c-0.88,0.36-2.46,0.51-3.44,0.51c-2.92,0-3.7-1.31-2.77-4.81c0.96-3.57,2.45-4.75,5.17-4.75c2.57,0,3.38,1.01,2.88,2.97
		c-0.44,1.63-1.3,2.58-2.72,2.58h-3.97c-0.44,2.17,0.21,2.66,1.96,2.66C225.02,88.34,226.22,88.24,227.13,88.11z M222.43,84.45h3.62
		c0.75,0,1.11-0.67,1.27-1.35c0.31-1.16-0.12-1.63-1.66-1.63C223.89,81.47,223.1,82.14,222.43,84.45z M234.78,81.66l-2.09,7.8h-1.48
		l2.09-7.8h-3.09l0.35-1.31h7.65l-0.35,1.31H234.78z M248.08,89.46h-1.47l2.09-7.82h-4.37l-2.09,7.82h-1.45l2.44-9.11h7.29
		L248.08,89.46z M259.51,84.95c-0.94,3.52-2.32,4.73-4.48,4.73c-1.08,0-2.11-0.3-2.91-0.93c-0.11,0.62-0.25,1.2-0.44,1.83
		l-0.71,2.64h-1.47l3.45-12.87h1.21l-0.25,1.44c1.22-1.03,2.73-1.66,3.96-1.66C259.96,80.12,260.36,81.79,259.51,84.95z
		 M257.97,84.95c0.69-2.58,0.4-3.44-0.95-3.44c-0.93,0-1.87,0.45-3.3,1.4l-1.3,4.85c0.99,0.3,1.67,0.54,2.58,0.54
		C256.5,88.3,257.25,87.63,257.97,84.95z M269.16,84.91c-0.94,3.5-2.37,4.79-5.29,4.79c-2.94,0-3.67-1.29-2.73-4.79
		c0.93-3.48,2.36-4.79,5.3-4.79C269.36,80.12,270.09,81.43,269.16,84.91z M262.7,84.91c-0.71,2.66-0.33,3.44,1.54,3.44
		c1.85,0,2.66-0.79,3.37-3.44c0.71-2.66,0.33-3.44-1.52-3.44C264.21,81.47,263.41,82.26,262.7,84.91z M276.41,84.8
		c1.55,0.13,1.87,0.95,1.48,2.42c-0.5,1.87-1.58,2.37-4.04,2.37c-1.8,0-2.72-0.02-3.9-0.11l2.44-9.11c1.09-0.09,1.92-0.11,3.49-0.11
		c2.64,0,3.45,0.5,2.93,2.43c-0.35,1.29-1.06,1.95-2.39,2.06L276.41,84.8z M273.98,88.34c1.57,0,2.21-0.28,2.52-1.46
		c0.31-1.16-0.17-1.54-1.81-1.54h-2.24l-0.8,2.98L273.98,88.34z M273.48,81.51l-0.72,2.7h2.24c1.47,0,2.07-0.28,2.36-1.39
		c0.28-1.05-0.22-1.31-1.87-1.31C274.69,81.49,274.03,81.49,273.48,81.51z M287.94,83.04l-1.72,6.42h-1.17l0.22-1.5
		c-0.84,0.71-2.39,1.66-3.96,1.66c-1.52,0-2.29-0.9-1.85-2.54l0.27-0.99c0.38-1.42,1.46-2.25,2.96-2.25h3.54l0.22-0.8
		c0.28-1.13,0.04-1.57-1.31-1.57c-0.91,0-2.39,0.11-3.73,0.24l0.17-1.18c1.25-0.2,2.96-0.41,4.23-0.41
		C287.71,80.12,288.53,80.83,287.94,83.04z M285.42,86.88l0.49-1.83l-3.29,0.02c-0.83,0.03-1.25,0.48-1.46,1.25l-0.16,0.58
		c-0.25,0.96,0.05,1.37,0.96,1.37C282.83,88.28,284.17,87.83,285.42,86.88z M294.71,89.46l1.62-6.04c0.11-0.39,0.22-0.77,0.38-1.22
		h-0.05c-0.24,0.36-0.59,0.77-0.86,1.07l-6.01,6.19h-1.21l2.44-9.11h1.35l-1.62,6.05c-0.11,0.41-0.22,0.77-0.38,1.22h0.04
		c0.27-0.38,0.6-0.77,0.89-1.05l6-6.21h1.21l-2.44,9.11H294.71z M298.39,76.31c-0.3,1.44-1.61,2.56-3.29,2.56
		c-1.69,0-2.42-1.13-1.95-2.56h1.14c-0.29,1.09,0.09,1.68,1.05,1.68c0.93,0,1.63-0.6,1.92-1.68H298.39z M305.97,92.15h-0.98
		l0.58-2.69h-6.87l-0.86,2.69h-0.96l1.06-3.97h0.98c1.31-1.81,2.16-3.76,2.81-5.74c0.46-1.38,1.35-2.1,2.73-2.1h3.49l-2.1,7.84h1.17
		L305.97,92.15z M306.21,81.6h-1.83c-0.66,0-1.11,0.37-1.36,1.1c-0.73,2.12-1.54,3.89-2.76,5.48h4.19L306.21,81.6z M315.56,88.11
		l-0.15,1.07c-0.88,0.36-2.46,0.51-3.44,0.51c-2.92,0-3.7-1.31-2.77-4.81c0.96-3.57,2.45-4.75,5.17-4.75c2.57,0,3.38,1.01,2.88,2.97
		c-0.44,1.63-1.3,2.58-2.72,2.58h-3.97c-0.44,2.17,0.21,2.66,1.96,2.66C313.46,88.34,314.65,88.24,315.56,88.11z M310.86,84.45h3.62
		c0.75,0,1.11-0.67,1.27-1.35c0.31-1.16-0.12-1.63-1.66-1.63C312.33,81.47,311.53,82.14,310.86,84.45z M326.49,84.95
		c-0.94,3.52-2.32,4.73-4.48,4.73c-1.08,0-2.11-0.3-2.91-0.93c-0.11,0.62-0.25,1.2-0.44,1.83l-0.71,2.64h-1.47l3.45-12.87h1.21
		l-0.25,1.44c1.22-1.03,2.73-1.66,3.96-1.66C326.95,80.12,327.34,81.79,326.49,84.95z M324.95,84.95c0.69-2.58,0.4-3.44-0.95-3.44
		c-0.93,0-1.87,0.45-3.3,1.4l-1.3,4.85c0.99,0.3,1.67,0.54,2.58,0.54C323.48,88.3,324.24,87.63,324.95,84.95z M48.96,39.73
		c-1.43,5.35-3.64,9.23-6.63,11.65c-2.99,2.42-7.06,3.63-12.23,3.63H11.65c-5.17,0-8.59-1.21-10.28-3.63s-1.82-6.3-0.38-11.65
		l6.55-24.45c1.43-5.35,3.64-9.23,6.63-11.65S21.23,0,26.39,0h18.45c5.17,0,8.59,1.21,10.28,3.63c1.69,2.42,1.82,6.3,0.38,11.65
		L48.96,39.73z M42.22,15.28c0.82-3.06-0.25-4.59-3.2-4.59H26.48c-2.96,0-4.84,1.53-5.66,4.59l-6.55,24.45
		c-0.82,3.05,0.25,4.59,3.2,4.59h12.55c2.95,0,4.84-1.53,5.66-4.59L42.22,15.28z M100.2,13.75l-10.85,40.5H76.43l8.09-30.18H71.24
		l-8.09,30.18H50.23l10.85-40.5H100.2z M125.48,24.07l-8.09,30.18h-12.92l8.09-30.18h-12.18l2.76-10.32h37.27l-2.76,10.32H125.48z
		 M168.83,13.75h13.65l-10.85,40.5h-12.92l5.94-22.16l-18.48,22.16h-13.65l10.85-40.5h12.92l-5.94,22.16L168.83,13.75z
		 M333.29,13.21h11.83l-2.9,10.81h-11.83l-3.52,13.13h-9.74l3.52-13.13h-11.83l2.89-10.81h11.83l3.52-13.13h9.74L333.29,13.21z"/>
</g>
</svg>
